<svg viewBox="0 0 16 17" fill="none" xmlns="http://www.w3.org/2000/svg">
    <path d="M8.0026 1.83398L14.6693 6.16732M8.0026 1.83398L1.33594 6.16732M8.0026 1.83398V6.16732M14.6693 6.16732V10.834M14.6693 6.16732L8.0026 10.834M14.6693 10.834L8.0026 15.1673M14.6693 10.834L8.0026 6.16732M8.0026 15.1673L1.33594 10.834M8.0026 15.1673V10.834M1.33594 10.834V6.16732M1.33594 10.834L8.0026 6.16732M1.33594 6.16732L8.0026 10.834" stroke="white" stroke-linecap="round" stroke-linejoin="round"/>
    <path d="M8.0026 1.83398L14.6693 6.16732M8.0026 1.83398L1.33594 6.16732M8.0026 1.83398V6.16732M14.6693 6.16732V10.834M14.6693 6.16732L8.0026 10.834M14.6693 10.834L8.0026 15.1673M14.6693 10.834L8.0026 6.16732M8.0026 15.1673L1.33594 10.834M8.0026 15.1673V10.834M1.33594 10.834V6.16732M1.33594 10.834L8.0026 6.16732M1.33594 6.16732L8.0026 10.834" stroke="url(#paint0_linear_651_539)" stroke-linecap="round" stroke-linejoin="round"/>
    <defs>
        <linearGradient id="paint0_linear_651_539" x1="2.13405" y1="10.2893" x2="52.2755" y2="33.2641" gradientUnits="userSpaceOnUse">
            <stop stop-color="#D4F76C"/>
            <stop offset="1" stop-color="#389BD8"/>
        </linearGradient>
    </defs>
</svg>
