<svg viewBox="0 0 16 17" fill="none" xmlns="http://www.w3.org/2000/svg">
    <path d="M5.53333 7.16654C5.44739 7.17123 5.36183 7.15206 5.2861 7.11115C5.21038 7.07025 5.14744 7.0092 5.10425 6.93475C5.06106 6.8603 5.0393 6.77536 5.04137 6.68932C5.04344 6.60328 5.06927 6.51948 5.116 6.4472L7.6 2.49987C7.63903 2.42958 7.69556 2.37057 7.76411 2.32856C7.83266 2.28654 7.91089 2.26295 7.99124 2.26007C8.07159 2.25718 8.15132 2.2751 8.2227 2.3121C8.29408 2.34909 8.3547 2.4039 8.39867 2.4712L10.8667 6.4332C10.9153 6.50307 10.9439 6.5849 10.9494 6.66986C10.9549 6.75481 10.937 6.83964 10.8977 6.91517C10.8585 6.9907 10.7993 7.05405 10.7266 7.09835C10.6539 7.14266 10.5705 7.16624 10.4853 7.16654H5.53333Z" stroke="black" stroke-linecap="round" stroke-linejoin="round"/>
    <path d="M5.53333 7.16654C5.44739 7.17123 5.36183 7.15206 5.2861 7.11115C5.21038 7.07025 5.14744 7.0092 5.10425 6.93475C5.06106 6.8603 5.0393 6.77536 5.04137 6.68932C5.04344 6.60328 5.06927 6.51948 5.116 6.4472L7.6 2.49987C7.63903 2.42958 7.69556 2.37057 7.76411 2.32856C7.83266 2.28654 7.91089 2.26295 7.99124 2.26007C8.07159 2.25718 8.15132 2.2751 8.2227 2.3121C8.29408 2.34909 8.3547 2.4039 8.39867 2.4712L10.8667 6.4332C10.9153 6.50307 10.9439 6.5849 10.9494 6.66986C10.9549 6.75481 10.937 6.83964 10.8977 6.91517C10.8585 6.9907 10.7993 7.05405 10.7266 7.09835C10.6539 7.14266 10.5705 7.16624 10.4853 7.16654H5.53333Z" stroke="url(#paint0_linear_651_549)" stroke-linecap="round" stroke-linejoin="round"/>
    <path d="M6 9.8332H2.66667C2.29848 9.8332 2 10.1317 2 10.4999V13.8332C2 14.2014 2.29848 14.4999 2.66667 14.4999H6C6.36819 14.4999 6.66667 14.2014 6.66667 13.8332V10.4999C6.66667 10.1317 6.36819 9.8332 6 9.8332Z" stroke="black" stroke-linecap="round" stroke-linejoin="round"/>
    <path d="M6 9.8332H2.66667C2.29848 9.8332 2 10.1317 2 10.4999V13.8332C2 14.2014 2.29848 14.4999 2.66667 14.4999H6C6.36819 14.4999 6.66667 14.2014 6.66667 13.8332V10.4999C6.66667 10.1317 6.36819 9.8332 6 9.8332Z" stroke="url(#paint1_linear_651_549)" stroke-linecap="round" stroke-linejoin="round"/>
    <path d="M11.6667 14.4999C12.9553 14.4999 14 13.4552 14 12.1665C14 10.8779 12.9553 9.8332 11.6667 9.8332C10.378 9.8332 9.33333 10.8779 9.33333 12.1665C9.33333 13.4552 10.378 14.4999 11.6667 14.4999Z" stroke="black" stroke-linecap="round" stroke-linejoin="round"/>
    <path d="M11.6667 14.4999C12.9553 14.4999 14 13.4552 14 12.1665C14 10.8779 12.9553 9.8332 11.6667 9.8332C10.378 9.8332 9.33333 10.8779 9.33333 12.1665C9.33333 13.4552 10.378 14.4999 11.6667 14.4999Z" stroke="url(#paint2_linear_651_549)" stroke-linecap="round" stroke-linejoin="round"/>
    <defs>
        <linearGradient id="paint0_linear_651_549" x1="2.71831" y1="10.0218" x2="48.1518" y2="30.4311" gradientUnits="userSpaceOnUse">
            <stop stop-color="#D4F76C"/>
            <stop offset="1" stop-color="#389BD8"/>
        </linearGradient>
        <linearGradient id="paint1_linear_651_549" x1="2.71831" y1="10.0218" x2="48.1518" y2="30.4311" gradientUnits="userSpaceOnUse">
            <stop stop-color="#D4F76C"/>
            <stop offset="1" stop-color="#389BD8"/>
        </linearGradient>
        <linearGradient id="paint2_linear_651_549" x1="2.71831" y1="10.0218" x2="48.1518" y2="30.4311" gradientUnits="userSpaceOnUse">
            <stop stop-color="#D4F76C"/>
            <stop offset="1" stop-color="#389BD8"/>
        </linearGradient>
    </defs>
</svg>
