<svg viewBox="0 0 16 17" fill="none" xmlns="http://www.w3.org/2000/svg">
    <g clip-path="url(#clip0_714_507)">
        <path d="M11.3333 2.5H12.6667C13.0203 2.5 13.3594 2.64048 13.6095 2.89052C13.8595 3.14057 14 3.47971 14 3.83333V5.16667M14 11.8333V13.1667C14 13.5203 13.8595 13.8594 13.6095 14.1095C13.3594 14.3595 13.0203 14.5 12.6667 14.5H11.3333M2 5.16667V3.83333C2 3.47971 2.14048 3.14057 2.39052 2.89052C2.64057 2.64048 2.97971 2.5 3.33333 2.5H4.66667M4.66667 14.5H3.33333C2.97971 14.5 2.64057 14.3595 2.39052 14.1095C2.14048 13.8594 2 13.5203 2 13.1667V11.8333M7.49733 11.6047C7.55991 11.6765 7.63716 11.7341 7.72387 11.7735C7.81057 11.813 7.90473 11.8334 8 11.8334C8.09527 11.8334 8.18943 11.813 8.27613 11.7735C8.36284 11.7341 8.44009 11.6765 8.50267 11.6047L10.8827 8.87067C11.0454 8.68297 11.1683 8.46416 11.2439 8.22752C11.3194 7.99088 11.3461 7.74135 11.3223 7.49407C11.2985 7.2468 11.2247 7.00694 11.1054 6.78906C10.9861 6.57118 10.8237 6.37983 10.6282 6.22662C10.4326 6.0734 10.208 5.96153 9.96789 5.89778C9.72779 5.83403 9.47724 5.81975 9.23145 5.85579C8.98566 5.89183 8.74976 5.97745 8.53807 6.10744C8.32638 6.23744 8.14332 6.4091 8 6.612C7.85668 6.4091 7.67362 6.23744 7.46193 6.10744C7.25024 5.97745 7.01434 5.89183 6.76855 5.85579C6.52276 5.81975 6.27221 5.83403 6.03211 5.89778C5.79201 5.96153 5.56738 6.0734 5.37183 6.22662C5.17629 6.37983 5.01393 6.57118 4.8946 6.78906C4.77527 7.00694 4.70146 7.2468 4.67766 7.49407C4.65386 7.74135 4.68056 7.99088 4.75614 8.22752C4.83172 8.46416 4.95461 8.68297 5.11733 8.87067L7.49733 11.6047Z" stroke="black" stroke-linecap="round" stroke-linejoin="round"/>
        <path d="M11.3333 2.5H12.6667C13.0203 2.5 13.3594 2.64048 13.6095 2.89052C13.8595 3.14057 14 3.47971 14 3.83333V5.16667M14 11.8333V13.1667C14 13.5203 13.8595 13.8594 13.6095 14.1095C13.3594 14.3595 13.0203 14.5 12.6667 14.5H11.3333M2 5.16667V3.83333C2 3.47971 2.14048 3.14057 2.39052 2.89052C2.64057 2.64048 2.97971 2.5 3.33333 2.5H4.66667M4.66667 14.5H3.33333C2.97971 14.5 2.64057 14.3595 2.39052 14.1095C2.14048 13.8594 2 13.5203 2 13.1667V11.8333M7.49733 11.6047C7.55991 11.6765 7.63716 11.7341 7.72387 11.7735C7.81057 11.813 7.90473 11.8334 8 11.8334C8.09527 11.8334 8.18943 11.813 8.27613 11.7735C8.36284 11.7341 8.44009 11.6765 8.50267 11.6047L10.8827 8.87067C11.0454 8.68297 11.1683 8.46416 11.2439 8.22752C11.3194 7.99088 11.3461 7.74135 11.3223 7.49407C11.2985 7.2468 11.2247 7.00694 11.1054 6.78906C10.9861 6.57118 10.8237 6.37983 10.6282 6.22662C10.4326 6.0734 10.208 5.96153 9.96789 5.89778C9.72779 5.83403 9.47724 5.81975 9.23145 5.85579C8.98566 5.89183 8.74976 5.97745 8.53807 6.10744C8.32638 6.23744 8.14332 6.4091 8 6.612C7.85668 6.4091 7.67362 6.23744 7.46193 6.10744C7.25024 5.97745 7.01434 5.89183 6.76855 5.85579C6.52276 5.81975 6.27221 5.83403 6.03211 5.89778C5.79201 5.96153 5.56738 6.0734 5.37183 6.22662C5.17629 6.37983 5.01393 6.57118 4.8946 6.78906C4.77527 7.00694 4.70146 7.2468 4.67766 7.49407C4.65386 7.74135 4.68056 7.99088 4.75614 8.22752C4.83172 8.46416 4.95461 8.68297 5.11733 8.87067L7.49733 11.6047Z" stroke="url(#paint0_linear_714_507)" stroke-linecap="round" stroke-linejoin="round"/>
    </g>
    <defs>
        <linearGradient id="paint0_linear_714_507" x1="2.71831" y1="10.1098" x2="47.8456" y2="30.7871" gradientUnits="userSpaceOnUse">
            <stop stop-color="#D4F76C"/>
            <stop offset="1" stop-color="#389BD8"/>
        </linearGradient>
        <clipPath id="clip0_714_507">
            <rect width="16" height="16" fill="white" transform="translate(0 0.5)"/>
        </clipPath>
    </defs>
</svg>
