<svg viewBox="0 0 16 17" fill="none" xmlns="http://www.w3.org/2000/svg">
    <path d="M2.66894 9.83377C2.54278 9.8342 2.41909 9.79882 2.31224 9.73175C2.20539 9.66468 2.11976 9.56867 2.06531 9.45487C2.01085 9.34107 1.9898 9.21416 2.00461 9.08887C2.01941 8.96359 2.06946 8.84507 2.14894 8.7471L8.74894 1.9471C8.79845 1.88996 8.86591 1.85134 8.94026 1.83759C9.01461 1.82384 9.09142 1.83578 9.15809 1.87144C9.22476 1.9071 9.27733 1.96437 9.30716 2.03384C9.337 2.10331 9.34233 2.18087 9.32227 2.25377L8.04227 6.2671C8.00453 6.36812 7.99185 6.47678 8.00533 6.58377C8.01881 6.69076 8.05805 6.79289 8.11967 6.88138C8.18129 6.96988 8.26346 7.04211 8.35912 7.09187C8.45479 7.14164 8.5611 7.16745 8.66894 7.1671H13.3356C13.4618 7.16667 13.5855 7.20205 13.6923 7.26912C13.7992 7.33619 13.8848 7.4322 13.9392 7.546C13.9937 7.6598 14.0147 7.78671 13.9999 7.912C13.9851 8.03728 13.9351 8.15579 13.8556 8.25377L7.25561 15.0538C7.2061 15.1109 7.13863 15.1495 7.06429 15.1633C6.98994 15.177 6.91312 15.1651 6.84645 15.1294C6.77978 15.0938 6.72722 15.0365 6.69738 14.967C6.66755 14.8976 6.66222 14.82 6.68227 14.7471L7.96227 10.7338C8.00002 10.6328 8.01269 10.5241 7.99921 10.4171C7.98573 10.3101 7.9465 10.208 7.88488 10.1195C7.82326 10.031 7.74109 9.95876 7.64542 9.90899C7.54976 9.85923 7.44344 9.83342 7.33561 9.83377H2.66894Z" stroke="#141414" stroke-linecap="round" stroke-linejoin="round"/>
    <path d="M2.66894 9.83377C2.54278 9.8342 2.41909 9.79882 2.31224 9.73175C2.20539 9.66468 2.11976 9.56867 2.06531 9.45487C2.01085 9.34107 1.9898 9.21416 2.00461 9.08887C2.01941 8.96359 2.06946 8.84507 2.14894 8.7471L8.74894 1.9471C8.79845 1.88996 8.86591 1.85134 8.94026 1.83759C9.01461 1.82384 9.09142 1.83578 9.15809 1.87144C9.22476 1.9071 9.27733 1.96437 9.30716 2.03384C9.337 2.10331 9.34233 2.18087 9.32227 2.25377L8.04227 6.2671C8.00453 6.36812 7.99185 6.47678 8.00533 6.58377C8.01881 6.69076 8.05805 6.79289 8.11967 6.88138C8.18129 6.96988 8.26346 7.04211 8.35912 7.09187C8.45479 7.14164 8.5611 7.16745 8.66894 7.1671H13.3356C13.4618 7.16667 13.5855 7.20205 13.6923 7.26912C13.7992 7.33619 13.8848 7.4322 13.9392 7.546C13.9937 7.6598 14.0147 7.78671 13.9999 7.912C13.9851 8.03728 13.9351 8.15579 13.8556 8.25377L7.25561 15.0538C7.2061 15.1109 7.13863 15.1495 7.06429 15.1633C6.98994 15.177 6.91312 15.1651 6.84645 15.1294C6.77978 15.0938 6.72722 15.0365 6.69738 14.967C6.66755 14.8976 6.66222 14.82 6.68227 14.7471L7.96227 10.7338C8.00002 10.6328 8.01269 10.5241 7.99921 10.4171C7.98573 10.3101 7.9465 10.208 7.88488 10.1195C7.82326 10.031 7.74109 9.95876 7.64542 9.90899C7.54976 9.85923 7.44344 9.83342 7.33561 9.83377H2.66894Z" stroke="url(#paint0_linear_651_545)" stroke-linecap="round" stroke-linejoin="round"/>
    <defs>
        <linearGradient id="paint0_linear_651_545" x1="2.71858" y1="10.2895" x2="49.4004" y2="29.5425" gradientUnits="userSpaceOnUse">
            <stop stop-color="#D4F76C"/>
            <stop offset="1" stop-color="#389BD8"/>
        </linearGradient>
    </defs>
</svg>
