<svg width="27" height="27" viewBox="0 0 27 27" fill="none" xmlns="http://www.w3.org/2000/svg">
<g clip-path="url(#clip0_614_1174)">
<path d="M13.6359 6.23242C12.7329 6.23242 11.8592 6.34525 11.0248 6.55923C10.3216 6.73819 9.64773 6.98913 9.00916 7.30232C8.92885 7.34706 8.84658 7.38986 8.76039 7.42682C8.76039 7.42682 8.75843 7.42876 8.75647 7.42876C8.63894 7.49101 8.52141 7.5552 8.40584 7.62134C7.42251 8.18547 6.54104 8.90522 5.79277 9.74557C4.16499 11.578 3.17578 13.9843 3.17578 16.6201C3.17578 22.3567 7.85933 27.0079 13.6359 27.0079C19.4125 27.0079 24.096 22.3567 24.096 16.6201C24.096 10.8836 19.4125 6.23242 13.6359 6.23242ZM13.6359 24.409C9.30494 24.409 5.79277 20.9211 5.79277 16.6182C5.79277 16.5851 5.79277 16.5521 5.79277 16.517C5.82019 14.2508 6.82507 12.2161 8.40584 10.8116C9.15999 10.1385 10.0473 9.61135 11.0228 9.27093C11.8397 8.98497 12.7192 8.82741 13.6339 8.82741C17.9669 8.82741 21.479 12.3153 21.479 16.6163C21.479 20.9172 17.9669 24.407 13.6339 24.407L13.6359 24.409Z" fill="url(#paint0_linear_614_1174)"/>
<path d="M13.6343 11.4297C12.6843 11.4297 11.7911 11.6826 11.0232 12.1222C9.4601 13.019 8.40625 14.6977 8.40625 16.6196C8.40625 19.487 10.747 21.8116 13.6343 21.8116C16.5217 21.8116 18.8624 19.487 18.8624 16.6196C18.8624 13.7523 16.5217 11.4277 13.6343 11.4277V11.4297ZM13.6343 19.2146C12.1927 19.2146 11.0232 18.0533 11.0232 16.6216C11.0232 15.1899 12.1927 14.0286 13.6343 14.0286C15.076 14.0286 16.2455 15.1899 16.2455 16.6216C16.2455 18.0533 15.076 19.2146 13.6343 19.2146Z" fill="url(#paint1_linear_614_1174)"/>
<path d="M11.0248 3.89637V6.55944C10.3216 6.7384 9.64773 6.98934 9.00916 7.30253C8.92493 7.34338 8.84266 7.38423 8.76039 7.42703C8.76039 7.42703 8.75843 7.42897 8.75647 7.42897C8.64286 7.48344 8.52533 7.53013 8.40584 7.57292V3.89637C8.40584 3.18051 7.82211 2.59888 7.09931 2.59888C6.3765 2.59888 5.79277 3.18051 5.79277 3.89637V9.74578C4.16499 11.5782 3.17578 13.9845 3.17578 16.6204V3.89637C3.17578 1.7449 4.93285 0 7.09931 0C9.26576 0 11.0228 1.7449 11.0228 3.89637H11.0248Z" fill="url(#paint2_linear_614_1174)"/>
</g>
<defs>
<linearGradient id="paint0_linear_614_1174" x1="3.17774" y1="6.23631" x2="20.854" y2="24.0338" gradientUnits="userSpaceOnUse">
<stop stop-color="#D4F76C"/>
<stop offset="1" stop-color="#389BD8"/>
</linearGradient>
<linearGradient id="paint1_linear_614_1174" x1="8.20449" y1="11.2293" x2="17.2653" y2="20.3533" gradientUnits="userSpaceOnUse">
<stop stop-color="#D4F76C"/>
<stop offset="1" stop-color="#389BD8"/>
</linearGradient>
<linearGradient id="paint2_linear_614_1174" x1="7.09931" y1="-11.9848" x2="7.09931" y2="20.0479" gradientUnits="userSpaceOnUse">
<stop offset="0.35" stop-color="#D4F76C"/>
<stop offset="0.67" stop-color="#389BD8"/>
</linearGradient>
<clipPath id="clip0_614_1174">
<rect width="27" height="27" fill="white"/>
</clipPath>
</defs>
</svg>
