<svg viewBox="0 0 185 52" fill="none" xmlns="http://www.w3.org/2000/svg">
    <g>
        <path d="M52.3516 31.3873C52.3516 23.858 58.3863 17.9785 65.9306 17.9785C73.4749 17.9785 79.5096 23.858 79.5096 31.3873C79.5096 38.9167 73.5119 44.7961 65.9306 44.7961C58.3493 44.7961 52.3516 38.9167 52.3516 31.3873ZM75.8096 31.3873C75.8096 25.879 71.5102 21.5723 65.9269 21.5723C60.3436 21.5723 56.0442 25.879 56.0442 31.3873C56.0442 36.8956 60.3806 41.2023 65.9269 41.2023C71.4732 41.2023 75.8096 36.8956 75.8096 31.3873Z" fill="currentColor"/>
        <path d="M90.5338 25.4685C95.8914 25.4685 100.265 29.7752 100.265 35.1329C100.265 40.4905 95.8877 44.7972 90.5338 44.7972C88.0067 44.7972 85.9717 43.7499 84.5768 42.1V50.1328C84.5768 51.158 83.7406 51.9885 82.7083 51.9885C81.676 51.9885 80.8398 51.158 80.8398 50.1328V35.1292C80.8398 29.7715 85.1762 25.4648 90.5338 25.4648V25.4685ZM96.5685 35.1329C96.5685 31.8808 94.2338 29.2791 91.0074 29.044C87.4739 28.7867 84.5398 31.539 84.4991 35.0557C84.4584 38.5099 87.1261 41.2511 90.5597 41.2364C93.9452 41.2218 96.5685 38.4915 96.5685 35.1292V35.1329Z" fill="currentColor"/>
        <path d="M106.806 29.326V35.6207C106.806 39.1778 108.201 40.8277 110.88 41.0518V44.6126C106.355 44.4252 103.147 41.6912 103.11 35.6575V29.326H100.316V25.769H103.11V20.9001C103.11 19.8859 103.939 19.0664 104.956 19.0664C105.977 19.0664 106.803 19.8895 106.803 20.9001V25.769H110.876V29.326H106.803H106.806Z" fill="currentColor"/>
        <path d="M112.656 20.9383C112.656 19.6632 113.637 18.6895 114.921 18.6895C116.205 18.6895 117.144 19.6632 117.144 20.9383C117.144 22.2134 116.164 23.1872 114.921 23.1872C113.677 23.1872 112.656 22.2134 112.656 20.9383ZM113.071 25.7705H116.767V44.5002H113.071V25.7705Z" fill="currentColor"/>
        <path d="M136.464 36.9336C136.464 41.4644 133.145 44.4997 128.882 44.4997H119.414V18.2773H127.11C131.709 18.2773 134.429 20.6365 134.429 24.4949C134.429 27.6771 132.919 29.3638 131.635 30.1869C134.802 31.4252 136.464 33.8211 136.464 36.9299V36.9336ZM123.11 21.6507V28.6178H127.484C129.334 28.6178 130.729 26.7437 130.729 25.0203C130.729 23.1095 129.707 21.647 127.106 21.647H123.107L123.11 21.6507ZM132.767 36.3713C132.767 34.2364 131.295 32.252 128.542 32.252H123.11V41.13H128.842C131.106 41.13 132.764 39.0318 132.764 36.375L132.767 36.3713Z" fill="currentColor"/>
        <path d="M157.814 35.1331C157.814 40.4907 153.477 44.7974 148.083 44.7974C142.688 44.7974 138.352 40.4907 138.352 35.1331C138.352 29.7754 142.688 25.4688 148.083 25.4688C153.477 25.4688 157.814 29.7754 157.814 35.1331ZM142.048 35.1331C142.048 38.5432 144.69 41.2404 148.12 41.2404C151.549 41.2404 154.117 38.5432 154.117 35.1331C154.117 31.723 151.59 29.0295 148.12 29.0295C144.649 29.0295 142.048 31.7267 142.048 35.1331Z" fill="currentColor"/>
        <path d="M164.724 29.326V35.6207C164.724 39.1778 166.119 40.8277 168.798 41.0518V44.6126C164.269 44.4252 161.065 41.6912 161.028 35.6575V29.326H158.234V25.769H161.028V20.9001C161.028 19.8859 161.857 19.0664 162.874 19.0664C163.895 19.0664 164.72 19.8895 164.72 20.9001V25.769H168.794V29.326H164.72H164.724Z" fill="currentColor"/>
        <path d="M170.211 38.881H173.756C173.756 40.4905 175.454 41.501 177.678 41.501C180.016 41.501 181.3 40.4905 181.3 39.028C181.263 34.7948 170.511 38.0175 170.511 30.749C170.511 27.5998 173.604 25.4648 177.489 25.4648C181.374 25.4648 184.393 27.4896 184.393 31.0834H180.848C180.848 29.6209 179.265 28.7243 177.415 28.7243C175.565 28.7243 174.207 29.6246 174.207 31.0099C174.207 34.7544 184.881 31.8698 184.996 39.1015C185.033 42.9231 181.829 44.7935 177.604 44.7935C173.719 44.7935 170.211 42.6953 170.211 38.8773V38.881Z" fill="currentColor"/>
        <path d="M19.758 11.7715C18.0523 11.7715 16.4021 11.9846 14.8259 12.3888C13.4976 12.7269 12.2248 13.2009 11.0186 13.7925C10.8669 13.8771 10.7115 13.9579 10.5487 14.0277C10.5487 14.0277 10.545 14.0314 10.5413 14.0314C10.3193 14.149 10.0973 14.2702 9.879 14.3952C8.0216 15.4608 6.3566 16.8205 4.9432 18.4079C1.8685 21.8694 0 26.415 0 31.3941C0 42.2307 8.8467 51.0168 19.758 51.0168C30.6693 51.0168 39.516 42.2307 39.516 31.3941C39.516 20.5576 30.6693 11.7715 19.758 11.7715ZM19.758 46.1074C11.5773 46.1074 4.9432 39.5188 4.9432 31.3905C4.9432 31.328 4.9432 31.2655 4.9432 31.1994C4.995 26.9184 6.8931 23.0747 9.879 20.4216C11.3035 19.1502 12.9796 18.1544 14.8222 17.5113C16.3651 16.9711 18.0264 16.6735 19.7543 16.6735C27.9387 16.6735 34.5728 23.2621 34.5728 31.3868C34.5728 39.5114 27.9387 46.1038 19.7543 46.1038L19.758 46.1074Z" fill="url(#paint0_linear_579_1441)"/>
        <path d="M19.7659 21.5877C17.9714 21.5877 16.2842 22.0654 14.8338 22.8958C11.8812 24.5899 9.89062 27.7611 9.89062 31.3916C9.89062 36.8081 14.3121 41.1993 19.7659 41.1993C25.2197 41.1993 29.6412 36.8081 29.6412 31.3916C29.6412 25.9752 25.2197 21.584 19.7659 21.584V21.5877ZM19.7659 36.2936C17.0427 36.2936 14.8338 34.0999 14.8338 31.3953C14.8338 28.6908 17.0427 26.497 19.7659 26.497C22.4891 26.497 24.698 28.6908 24.698 31.3953C24.698 34.0999 22.4891 36.2936 19.7659 36.2936Z" fill="url(#paint1_linear_579_1441)"/>
        <path d="M14.8259 7.35838V12.389C13.4976 12.727 12.2248 13.2011 11.0186 13.7927C10.8595 13.8699 10.7041 13.947 10.5487 14.0279C10.5487 14.0279 10.545 14.0315 10.5413 14.0315C10.3267 14.1344 10.1047 14.2226 9.879 14.3035V7.35838C9.879 6.0061 8.7764 4.90738 7.4111 4.90738C6.0458 4.90738 4.9432 6.0061 4.9432 7.35838V18.4081C1.8685 21.8696 0 26.4151 0 31.3943V7.35838C0 3.29421 3.3189 -0.00195312 7.4111 -0.00195312C11.5033 -0.00195312 14.8222 3.29421 14.8222 7.35838H14.8259Z" fill="url(#paint2_linear_579_1441)"/>
    </g>
    <defs>
        <linearGradient id="paint0_linear_579_1441" x1="0.00369969" y1="11.7788" x2="33.3945" y2="45.3963" gradientUnits="userSpaceOnUse">
            <stop stop-color="#D4F76C"/>
            <stop offset="1" stop-color="#389BD8"/>
        </linearGradient>
        <linearGradient id="paint1_linear_579_1441" x1="9.50952" y1="21.2092" x2="26.6257" y2="38.4434" gradientUnits="userSpaceOnUse">
            <stop stop-color="#D4F76C"/>
            <stop offset="1" stop-color="#389BD8"/>
        </linearGradient>
        <linearGradient id="paint2_linear_579_1441" x1="7.4111" y1="-22.6415" x2="7.4111" y2="37.869" gradientUnits="userSpaceOnUse">
            <stop offset="0.35" stop-color="#D4F76C"/>
            <stop offset="0.67" stop-color="#389BD8"/>
        </linearGradient>
        <clipPath>
            <rect width="185" height="52" fill="white"/>
        </clipPath>
    </defs>
</svg>
