<svg viewBox="0 0 16 17" fill="none" xmlns="http://www.w3.org/2000/svg">
    <path d="M7.99984 1.83398V15.1673M1.66651 11.754C1.58733 11.7078 1.51853 11.6457 1.46442 11.5717C1.41031 11.4977 1.37205 11.4133 1.35203 11.3238C1.33201 11.2343 1.33065 11.1417 1.34806 11.0517C1.36546 10.9617 1.40125 10.8762 1.45317 10.8007L7.45317 2.12065C7.51461 2.03263 7.5964 1.96075 7.69157 1.91111C7.78675 1.86148 7.8925 1.83556 7.99984 1.83556C8.10718 1.83556 8.21294 1.86148 8.30811 1.91111C8.40329 1.96075 8.48507 2.03263 8.54651 2.12065L14.5465 10.794C14.5996 10.8698 14.6363 10.9557 14.6543 11.0465C14.6723 11.1372 14.6712 11.2307 14.6512 11.3209C14.6311 11.4112 14.5925 11.4964 14.5377 11.5709C14.483 11.6455 14.4133 11.7078 14.3332 11.754L8.65984 14.994C8.45874 15.1085 8.23128 15.1688 7.99984 15.1688C7.7684 15.1688 7.54094 15.1085 7.33984 14.994L1.66651 11.754Z" stroke="white" stroke-linecap="round" stroke-linejoin="round"/>
    <path d="M7.99984 1.83398V15.1673M1.66651 11.754C1.58733 11.7078 1.51853 11.6457 1.46442 11.5717C1.41031 11.4977 1.37205 11.4133 1.35203 11.3238C1.33201 11.2343 1.33065 11.1417 1.34806 11.0517C1.36546 10.9617 1.40125 10.8762 1.45317 10.8007L7.45317 2.12065C7.51461 2.03263 7.5964 1.96075 7.69157 1.91111C7.78675 1.86148 7.8925 1.83556 7.99984 1.83556C8.10718 1.83556 8.21294 1.86148 8.30811 1.91111C8.40329 1.96075 8.48507 2.03263 8.54651 2.12065L14.5465 10.794C14.5996 10.8698 14.6363 10.9557 14.6543 11.0465C14.6723 11.1372 14.6712 11.2307 14.6512 11.3209C14.6311 11.4112 14.5925 11.4964 14.5377 11.5709C14.483 11.6455 14.4133 11.7078 14.3332 11.754L8.65984 14.994C8.45874 15.1085 8.23128 15.1688 7.99984 15.1688C7.7684 15.1688 7.54094 15.1085 7.33984 14.994L1.66651 11.754Z" stroke="url(#paint0_linear_651_541)" stroke-linecap="round" stroke-linejoin="round"/>
    <defs>
        <linearGradient id="paint0_linear_651_541" x1="2.13392" y1="10.2902" x2="52.2718" y2="33.2571" gradientUnits="userSpaceOnUse">
            <stop stop-color="#D4F76C"/>
            <stop offset="1" stop-color="#389BD8"/>
        </linearGradient>
    </defs>
</svg>
