<svg viewBox="0 0 16 17" fill="none" xmlns="http://www.w3.org/2000/svg">
    <path d="M6.0626 6.49967C6.21934 6.05412 6.52871 5.67841 6.93591 5.4391C7.34311 5.19978 7.82187 5.1123 8.28739 5.19215C8.75291 5.272 9.17515 5.51402 9.47932 5.87536C9.7835 6.2367 9.94997 6.69402 9.94927 7.16634C9.94927 8.49967 7.94927 9.16634 7.94927 9.16634M8.0026 11.833H8.00927M14.6693 8.49967C14.6693 12.1816 11.6845 15.1663 8.0026 15.1663C4.32071 15.1663 1.33594 12.1816 1.33594 8.49967C1.33594 4.81778 4.32071 1.83301 8.0026 1.83301C11.6845 1.83301 14.6693 4.81778 14.6693 8.49967Z" stroke="black" stroke-linecap="round" stroke-linejoin="round"/>
    <path d="M6.0626 6.49967C6.21934 6.05412 6.52871 5.67841 6.93591 5.4391C7.34311 5.19978 7.82187 5.1123 8.28739 5.19215C8.75291 5.272 9.17515 5.51402 9.47932 5.87536C9.7835 6.2367 9.94997 6.69402 9.94927 7.16634C9.94927 8.49967 7.94927 9.16634 7.94927 9.16634M8.0026 11.833H8.00927M14.6693 8.49967C14.6693 12.1816 11.6845 15.1663 8.0026 15.1663C4.32071 15.1663 1.33594 12.1816 1.33594 8.49967C1.33594 4.81778 4.32071 1.83301 8.0026 1.83301C11.6845 1.83301 14.6693 4.81778 14.6693 8.49967Z" stroke="url(#paint0_linear_651_547)" stroke-linecap="round" stroke-linejoin="round"/>
    <defs>
        <linearGradient id="paint0_linear_651_547" x1="2.13405" y1="10.2883" x2="52.2755" y2="33.2632" gradientUnits="userSpaceOnUse">
            <stop stop-color="#D4F76C"/>
            <stop offset="1" stop-color="#389BD8"/>
        </linearGradient>
    </defs>
</svg>
