<svg width="77" height="13" viewBox="0 0 77 13" fill="none" xmlns="http://www.w3.org/2000/svg">
<path opacity="0.35" d="M53.7422 0.527344H70.6123C72.5301 0.527344 74.085 2.08221 74.085 4V9C74.085 10.9178 72.5301 12.4727 70.6123 12.4727H53.7422C51.8244 12.4727 50.2695 10.9178 50.2695 9V4C50.2695 2.08222 51.8244 0.527344 53.7422 0.527344Z" stroke="black" stroke-width="1.05509"/>
<path opacity="0.4" d="M75.6094 5V9.22034C76.454 8.86291 77.0033 8.0314 77.0033 7.11017C77.0033 6.18894 76.454 5.35744 75.6094 5Z" fill="black"/>
<path d="M51.7305 4C51.7305 2.89543 52.6259 2 53.7305 2H70.6216C71.7262 2 72.6216 2.89543 72.6216 4V9C72.6216 10.1046 71.7262 11 70.6216 11H53.7305C52.6259 11 51.7305 10.1046 51.7305 9V4Z" fill="black"/>
<path d="M31.9512 10.0849C33.3636 8.85949 35.4324 8.85929 36.8447 10.0849C36.9158 10.1509 36.957 10.2444 36.959 10.3427C36.9609 10.441 36.9229 10.5356 36.8545 10.6044L34.6436 12.8945C34.5787 12.9618 34.4897 13 34.3975 13C34.3053 12.9999 34.2171 12.9617 34.1524 12.8945L31.9404 10.6044C31.8721 10.5356 31.834 10.441 31.8359 10.3427C31.838 10.2444 31.8801 10.1508 31.9512 10.0849ZM28.9609 7.2607C32.0042 4.35619 36.7166 4.35613 39.7598 7.2607C39.8284 7.3288 39.8682 7.42251 39.8691 7.52046C39.87 7.61834 39.8319 7.71274 39.7647 7.78218L38.4863 9.10738C38.3547 9.24263 38.142 9.24569 38.0068 9.11421C37.0075 8.18569 35.7066 7.67174 34.3584 7.67183C33.0113 7.67252 31.7125 8.18641 30.7139 9.11421C30.5787 9.24585 30.3661 9.24258 30.2344 9.10738L28.9561 7.78218C28.8887 7.71282 28.8507 7.6184 28.8516 7.52046C28.8525 7.42242 28.8922 7.32881 28.9609 7.2607ZM25.9736 4.44234C30.6412 -0.147446 38.0053 -0.147446 42.6729 4.44234C42.7404 4.51052 42.7788 4.60392 42.7793 4.70113C42.7797 4.7981 42.7423 4.89105 42.6758 4.95992L41.3955 6.28609C41.2637 6.42187 41.0499 6.42364 40.916 6.28999C39.1378 4.55533 36.7778 3.58807 34.3242 3.58785C31.8703 3.58784 29.51 4.55517 27.7315 6.28999C27.5976 6.42413 27.3828 6.42232 27.251 6.28609L25.9707 4.95992C25.9041 4.89089 25.8666 4.79729 25.8672 4.70015C25.8679 4.60318 25.9063 4.51035 25.9736 4.44234Z" fill="black"/>
<path d="M9.94817 4C9.94817 3.44772 10.3936 3 10.943 3H11.9378C12.4872 3 12.9326 3.44772 12.9326 4V12C12.9326 12.5523 12.4872 13 11.9378 13H10.943C10.3936 13 9.94817 12.5523 9.94817 12V4Z" fill="black"/>
<path d="M14.9222 2C14.9222 1.44772 15.3676 1 15.9171 1H16.9119C17.4613 1 17.9067 1.44772 17.9067 2V12C17.9067 12.5523 17.4613 13 16.9119 13H15.9171C15.3676 13 14.9222 12.5523 14.9222 12V2Z" fill="black"/>
<path d="M4.97408 7.5C4.97408 6.94772 5.41948 6.5 5.9689 6.5H6.96372C7.51314 6.5 7.95853 6.94772 7.95853 7.5V12C7.95853 12.5523 7.51314 13 6.96372 13H5.9689C5.41948 13 4.97408 12.5523 4.97408 12V7.5Z" fill="black"/>
<path d="M0 10C0 9.44772 0.445395 9 0.994817 9H1.98963C2.53906 9 2.98445 9.44772 2.98445 10V12C2.98445 12.5523 2.53906 13 1.98963 13H0.994817C0.445395 13 0 12.5523 0 12V10Z" fill="black"/>
</svg>
