<svg width="52" height="13" viewBox="0 0 52 13" fill="none" xmlns="http://www.w3.org/2000/svg">
<path opacity="0.35" d="M28.7422 0.527344H45.6123C47.5301 0.527344 49.085 2.08221 49.085 4V9C49.085 10.9178 47.5301 12.4727 45.6123 12.4727H28.7422C26.8244 12.4727 25.2695 10.9178 25.2695 9V4C25.2695 2.08222 26.8244 0.527344 28.7422 0.527344Z" stroke="black" stroke-width="1.05509"/>
<path opacity="0.4" d="M50.6094 5V9.22034C51.454 8.86291 52.0033 8.0314 52.0033 7.11017C52.0033 6.18894 51.454 5.35744 50.6094 5Z" fill="black"/>
<path d="M26.7305 4C26.7305 2.89543 27.6259 2 28.7305 2H45.6216C46.7262 2 47.6216 2.89543 47.6216 4V9C47.6216 10.1046 46.7262 11 45.6216 11H28.7305C27.6259 11 26.7305 10.1046 26.7305 9V4Z" fill="black"/>
<path d="M6.9502 10.0849C8.36264 8.85927 10.4313 8.85927 11.8438 10.0849C11.9148 10.1508 11.9561 10.2444 11.958 10.3427C11.9599 10.4409 11.9227 10.5356 11.8545 10.6044L9.64259 12.8945C9.57786 12.9617 9.48953 12.9998 9.39747 12.9999C9.30524 12.9999 9.21621 12.9618 9.15137 12.8945L6.93946 10.6044C6.87119 10.5356 6.834 10.4409 6.83595 10.3427C6.83797 10.2444 6.87909 10.1508 6.9502 10.0849ZM3.95997 7.26068C7.00319 4.35608 11.7156 4.35608 14.7588 7.26068C14.8274 7.32869 14.8671 7.42163 14.8682 7.51947C14.8691 7.61748 14.832 7.71263 14.7647 7.78216L13.4854 9.10736C13.3537 9.24248 13.141 9.24569 13.0059 9.11419C12.0066 8.18572 10.7065 7.6708 9.35841 7.67083C8.01111 7.67141 6.71159 8.18628 5.7129 9.11419C5.57773 9.24561 5.36506 9.24255 5.23341 9.10736L3.95509 7.78216C3.88772 7.71284 3.84982 7.61832 3.85059 7.52044C3.8515 7.42247 3.89133 7.32877 3.95997 7.26068ZM0.973641 4.44232C5.64123 -0.147435 13.0043 -0.147443 17.6719 4.44232C17.7394 4.51042 17.7777 4.60302 17.7783 4.70013C17.7789 4.79737 17.7416 4.8909 17.6748 4.9599L16.3955 6.28607C16.2637 6.42204 16.049 6.42375 15.915 6.28997C14.1367 4.55524 11.777 3.58699 9.32325 3.58685C6.86924 3.58684 4.50905 4.55509 2.73048 6.28997C2.59663 6.42396 2.38177 6.42225 2.25001 6.28607L0.969734 4.9599C0.903163 4.89088 0.866573 4.79724 0.867195 4.70013C0.867887 4.60299 0.906089 4.51039 0.973641 4.44232Z" fill="black"/>
</svg>
