<svg width="95" height="52" viewBox="0 0 95 52" fill="none" xmlns="http://www.w3.org/2000/svg">
<rect width="95" height="52" rx="26" fill="url(#paint0_linear_1199_1146)" fill-opacity="0.53"/>
<rect x="0.75" y="0.75" width="93.5" height="50.5" rx="25.25" stroke="white" stroke-opacity="0.26" stroke-width="1.5"/>
<path fill-rule="evenodd" clip-rule="evenodd" d="M64.813 8.04833C65.4839 7.69583 66.778 7.25 68.9964 7.25C71.2147 7.25 72.5089 7.69583 73.1814 8.04833C73.6914 8.315 73.9897 8.74 74.1597 9.095C74.4014 9.59917 74.9305 10.7367 75.393 11.9692C76.2891 12.3784 77.1438 12.8726 77.9455 13.445C79.2455 13.2283 80.4964 13.12 81.0547 13.0758C81.4464 13.0458 81.963 13.0925 82.4505 13.4008C83.0922 13.8058 84.1255 14.7033 85.2339 16.625C86.3439 18.5467 86.6039 19.89 86.6347 20.6483C86.6589 21.2233 86.4405 21.6942 86.218 22.0192C85.6282 22.881 85.0027 23.7179 84.343 24.5275C84.436 25.507 84.436 26.493 84.343 27.4725C85.0027 28.2821 85.6282 29.119 86.218 29.9808C86.4405 30.3058 86.6589 30.7758 86.6347 31.3517C86.6039 32.11 86.343 33.4533 85.2347 35.375C84.1247 37.2967 83.0914 38.1942 82.4505 38.6C81.9639 38.9083 81.4472 38.9542 81.0547 38.9242C80.0136 38.8444 78.9763 38.7213 77.9455 38.555C77.1438 39.1274 76.2891 39.6216 75.393 40.0308C75.0221 41.0056 74.6106 41.9645 74.1597 42.905C73.9897 43.26 73.6914 43.6842 73.1814 43.9517C72.5089 44.3033 71.2147 44.75 68.9964 44.75C66.778 44.75 65.4839 44.3042 64.8114 43.9517C64.3014 43.685 64.003 43.26 63.833 42.905C63.5914 42.4008 63.0622 41.2633 62.5997 40.0308C61.7037 39.6216 60.8489 39.1274 60.0472 38.555C58.7472 38.7717 57.4955 38.88 56.9372 38.9242C56.5455 38.9542 56.0289 38.9075 55.5422 38.5992C54.9005 38.1942 53.8672 37.2967 52.7589 35.375C51.6489 33.4533 51.388 32.11 51.3572 31.3517C51.3339 30.7767 51.5522 30.3058 51.7739 29.9808C52.3637 29.119 52.9892 28.2821 53.6489 27.4725C53.5559 26.493 53.5559 25.507 53.6489 24.5275C52.9892 23.7179 52.3637 22.881 51.7739 22.0192C51.5522 21.6942 51.3339 21.2242 51.3572 20.6483C51.3889 19.89 51.6489 18.5467 52.758 16.625C53.8672 14.7033 54.9014 13.8058 55.5422 13.4C56.0289 13.0917 56.5455 13.0458 56.938 13.0758C57.4964 13.1192 58.7464 13.2292 60.0464 13.445C60.8483 12.8726 61.7034 12.3784 62.5997 11.9692C62.9706 10.9944 63.3821 10.0355 63.833 9.095C64.003 8.74 64.3014 8.31583 64.8114 8.04833H64.813ZM75.663 26C75.663 27.7681 74.9606 29.4638 73.7104 30.714C72.4602 31.9643 70.7645 32.6667 68.9964 32.6667C67.2282 32.6667 65.5325 31.9643 64.2823 30.714C63.0321 29.4638 62.3297 27.7681 62.3297 26C62.3297 24.2319 63.0321 22.5362 64.2823 21.286C65.5325 20.0357 67.2282 19.3333 68.9964 19.3333C70.7645 19.3333 72.4602 20.0357 73.7104 21.286C74.9606 22.5362 75.663 24.2319 75.663 26Z" fill="black"/>
<path fill-rule="evenodd" clip-rule="evenodd" d="M64.813 8.04833C65.4839 7.69583 66.778 7.25 68.9964 7.25C71.2147 7.25 72.5089 7.69583 73.1814 8.04833C73.6914 8.315 73.9897 8.74 74.1597 9.095C74.4014 9.59917 74.9305 10.7367 75.393 11.9692C76.2891 12.3784 77.1438 12.8726 77.9455 13.445C79.2455 13.2283 80.4964 13.12 81.0547 13.0758C81.4464 13.0458 81.963 13.0925 82.4505 13.4008C83.0922 13.8058 84.1255 14.7033 85.2339 16.625C86.3439 18.5467 86.6039 19.89 86.6347 20.6483C86.6589 21.2233 86.4405 21.6942 86.218 22.0192C85.6282 22.881 85.0027 23.7179 84.343 24.5275C84.436 25.507 84.436 26.493 84.343 27.4725C85.0027 28.2821 85.6282 29.119 86.218 29.9808C86.4405 30.3058 86.6589 30.7758 86.6347 31.3517C86.6039 32.11 86.343 33.4533 85.2347 35.375C84.1247 37.2967 83.0914 38.1942 82.4505 38.6C81.9639 38.9083 81.4472 38.9542 81.0547 38.9242C80.0136 38.8444 78.9763 38.7213 77.9455 38.555C77.1438 39.1274 76.2891 39.6216 75.393 40.0308C75.0221 41.0056 74.6106 41.9645 74.1597 42.905C73.9897 43.26 73.6914 43.6842 73.1814 43.9517C72.5089 44.3033 71.2147 44.75 68.9964 44.75C66.778 44.75 65.4839 44.3042 64.8114 43.9517C64.3014 43.685 64.003 43.26 63.833 42.905C63.5914 42.4008 63.0622 41.2633 62.5997 40.0308C61.7037 39.6216 60.8489 39.1274 60.0472 38.555C58.7472 38.7717 57.4955 38.88 56.9372 38.9242C56.5455 38.9542 56.0289 38.9075 55.5422 38.5992C54.9005 38.1942 53.8672 37.2967 52.7589 35.375C51.6489 33.4533 51.388 32.11 51.3572 31.3517C51.3339 30.7767 51.5522 30.3058 51.7739 29.9808C52.3637 29.119 52.9892 28.2821 53.6489 27.4725C53.5559 26.493 53.5559 25.507 53.6489 24.5275C52.9892 23.7179 52.3637 22.881 51.7739 22.0192C51.5522 21.6942 51.3339 21.2242 51.3572 20.6483C51.3889 19.89 51.6489 18.5467 52.758 16.625C53.8672 14.7033 54.9014 13.8058 55.5422 13.4C56.0289 13.0917 56.5455 13.0458 56.938 13.0758C57.4964 13.1192 58.7464 13.2292 60.0464 13.445C60.8483 12.8726 61.7034 12.3784 62.5997 11.9692C62.9706 10.9944 63.3821 10.0355 63.833 9.095C64.003 8.74 64.3014 8.31583 64.8114 8.04833H64.813ZM75.663 26C75.663 27.7681 74.9606 29.4638 73.7104 30.714C72.4602 31.9643 70.7645 32.6667 68.9964 32.6667C67.2282 32.6667 65.5325 31.9643 64.2823 30.714C63.0321 29.4638 62.3297 27.7681 62.3297 26C62.3297 24.2319 63.0321 22.5362 64.2823 21.286C65.5325 20.0357 67.2282 19.3333 68.9964 19.3333C70.7645 19.3333 72.4602 20.0357 73.7104 21.286C74.9606 22.5362 75.663 24.2319 75.663 26Z" fill="url(#paint1_linear_1199_1146)"/>
<defs>
<linearGradient id="paint0_linear_1199_1146" x1="5.30854e-07" y1="13" x2="91.5" y2="13" gradientUnits="userSpaceOnUse">
<stop stop-color="white" stop-opacity="0.1"/>
<stop offset="1" stop-color="#999999" stop-opacity="0"/>
</linearGradient>
<linearGradient id="paint1_linear_1199_1146" x1="63.351" y1="16.2137" x2="99.7922" y2="48.7207" gradientUnits="userSpaceOnUse">
<stop stop-color="#D4F76C"/>
<stop offset="1" stop-color="#389BD8"/>
</linearGradient>
</defs>
</svg>
