<svg width="95" height="52" viewBox="0 0 95 52" fill="none" xmlns="http://www.w3.org/2000/svg">
<g clip-path="url(#clip0_1199_1196)">
<rect width="95" height="52" rx="26" fill="url(#paint0_linear_1199_1196)" fill-opacity="0.53"/>
<path fill-rule="evenodd" clip-rule="evenodd" d="M77.0924 11.0074C77.5271 10.8245 78.0029 10.7613 78.4703 10.8247C78.9377 10.888 79.3795 11.0754 79.7499 11.3675C80.1202 11.6595 80.4055 12.0455 80.5761 12.4852C80.7467 12.925 80.7963 13.4024 80.7197 13.8678L76.73 38.068C76.343 40.4024 73.7817 41.7411 71.6409 40.5783C69.8501 39.6055 67.1903 38.1067 64.7979 36.5429C63.6017 35.7601 59.9374 33.2533 60.3877 31.4696C60.7747 29.9444 66.9317 24.2132 70.4499 20.8057C71.8308 19.467 71.2011 18.6948 69.5704 19.9262C65.5209 22.9835 59.0191 27.6329 56.8695 28.9417C54.9732 30.0957 53.9845 30.2927 52.8024 30.0957C50.6457 29.7368 48.6456 29.1809 47.0131 28.5037C44.8072 27.5889 44.9145 24.5562 47.0114 23.6731L77.0924 11.0074Z" fill="black"/>
<path fill-rule="evenodd" clip-rule="evenodd" d="M77.0924 11.0074C77.5271 10.8245 78.0029 10.7613 78.4703 10.8247C78.9377 10.888 79.3795 11.0754 79.7499 11.3675C80.1202 11.6595 80.4055 12.0455 80.5761 12.4852C80.7467 12.925 80.7963 13.4024 80.7197 13.8678L76.73 38.068C76.343 40.4024 73.7817 41.7411 71.6409 40.5783C69.8501 39.6055 67.1903 38.1067 64.7979 36.5429C63.6017 35.7601 59.9374 33.2533 60.3877 31.4696C60.7747 29.9444 66.9317 24.2132 70.4499 20.8057C71.8308 19.467 71.2011 18.6948 69.5704 19.9262C65.5209 22.9835 59.0191 27.6329 56.8695 28.9417C54.9732 30.0957 53.9845 30.2927 52.8024 30.0957C50.6457 29.7368 48.6456 29.1809 47.0131 28.5037C44.8072 27.5889 44.9145 24.5562 47.0114 23.6731L77.0924 11.0074Z" fill="url(#paint1_linear_1199_1196)"/>
<path d="M-6.5 23.4998C-3.5 18.5 12.5649 11.6953 18.5 29.4997C24 45.9987 41 48.4972 54.5 35.9979" stroke="black" stroke-width="1.5" stroke-linecap="round" stroke-dasharray="6 6"/>
<path d="M-6.5 23.4998C-3.5 18.5 12.5649 11.6953 18.5 29.4997C24 45.9987 41 48.4972 54.5 35.9979" stroke="url(#paint2_linear_1199_1196)" stroke-width="1.5" stroke-linecap="round" stroke-dasharray="6 6"/>
</g>
<rect x="0.75" y="0.75" width="93.5" height="50.5" rx="25.25" stroke="white" stroke-opacity="0.26" stroke-width="1.5"/>
<defs>
<linearGradient id="paint0_linear_1199_1196" x1="5.30854e-07" y1="13" x2="91.5" y2="13" gradientUnits="userSpaceOnUse">
<stop stop-color="white" stop-opacity="0.1"/>
<stop offset="1" stop-color="#999999" stop-opacity="0"/>
</linearGradient>
<linearGradient id="paint1_linear_1199_1196" x1="57.4195" y1="18.0205" x2="77.0084" y2="45.6476" gradientUnits="userSpaceOnUse">
<stop stop-color="#D4F76C"/>
<stop offset="1" stop-color="#389BD8"/>
</linearGradient>
<linearGradient id="paint2_linear_1199_1196" x1="21.9756" y1="16.3053" x2="53.317" y2="61.1476" gradientUnits="userSpaceOnUse">
<stop stop-color="#D4F76C"/>
<stop offset="1" stop-color="#389BD8"/>
</linearGradient>
<clipPath id="clip0_1199_1196">
<rect width="95" height="52" rx="26" fill="white"/>
</clipPath>
</defs>
</svg>
