<svg width="178" height="93" viewBox="0 0 178 93" fill="none" xmlns="http://www.w3.org/2000/svg">
<path d="M0 90.9386L32.4102 52.5924L32.2915 60.1904L1.8995 23.7438H19.5886L42.62 51.0491H36.0905L59.2407 23.7438H76.3362L45.3506 60.4279L44.757 51.524L78.2357 90.9386H60.5466L35.3782 61.4963H42.1452L17.2142 90.9386H0Z" fill="url(#paint0_linear_1159_1018)" fill-opacity="0.08"/>
<path d="M129.497 0C144.139 0 155.338 2.25566 163.094 6.76697C170.851 11.1991 174.729 17.4121 174.729 25.4058C174.729 32.5289 171.365 37.9109 164.638 41.5516C157.91 45.1923 148.531 46.7752 136.501 46.3003V43.926C149.402 42.9762 159.454 44.4008 166.656 48.1998C173.858 51.9988 177.459 58.0139 177.459 66.2451C177.459 74.872 173.344 81.4807 165.112 86.0711C156.96 90.5824 145.089 92.8381 129.497 92.8381C113.984 92.8381 102.112 90.5824 93.8812 86.0711C85.65 81.4807 81.5344 74.872 81.5344 66.2451C81.5344 58.0139 85.1356 51.9988 92.3379 48.1998C99.6193 44.3217 109.71 42.8971 122.611 43.926V46.3003C110.581 46.7752 101.163 45.1923 94.3561 41.5516C87.6287 37.9109 84.265 32.5289 84.265 25.4058C84.265 17.4121 88.1431 11.1991 95.8994 6.76697C103.656 2.25566 114.855 0 129.497 0ZM129.497 74.0805C137.016 74.0805 142.714 73.2495 146.592 71.5874C150.55 69.8462 152.528 67.3531 152.528 64.1081C152.528 60.784 150.55 58.2909 146.592 56.6289C142.714 54.9668 137.016 54.1358 129.497 54.1358C121.978 54.1358 116.24 54.9668 112.283 56.6289C108.404 58.2909 106.465 60.784 106.465 64.1081C106.465 67.3531 108.404 69.8462 112.283 71.5874C116.24 73.2495 121.978 74.0805 129.497 74.0805ZM129.497 37.159C134.008 37.159 137.768 36.8424 140.775 36.2092C143.862 35.4969 146.197 34.468 147.78 33.1225C149.442 31.6979 150.273 29.9567 150.273 27.8989C150.273 24.9705 148.492 22.7149 144.93 21.1319C141.369 19.549 136.224 18.7576 129.497 18.7576C122.849 18.7576 117.744 19.549 114.182 21.1319C110.621 22.7149 108.84 24.9705 108.84 27.8989C108.84 29.9567 109.631 31.6979 111.214 33.1225C112.797 34.468 115.132 35.4969 118.219 36.2092C121.305 36.8424 125.065 37.159 129.497 37.159Z" fill="url(#paint1_linear_1159_1018)" fill-opacity="0.08"/>
<defs>
<linearGradient id="paint0_linear_1159_1018" x1="89.9791" y1="92.1014" x2="136.376" y2="-60.2923" gradientUnits="userSpaceOnUse">
<stop stop-color="#D4F76C"/>
<stop offset="1" stop-color="#389BD8"/>
</linearGradient>
<linearGradient id="paint1_linear_1159_1018" x1="89.9791" y1="92.1014" x2="136.376" y2="-60.2923" gradientUnits="userSpaceOnUse">
<stop stop-color="#D4F76C"/>
<stop offset="1" stop-color="#389BD8"/>
</linearGradient>
</defs>
</svg>
