<svg width="76" height="68" viewBox="0 0 76 68" fill="none" xmlns="http://www.w3.org/2000/svg">
<path d="M40.6466 66.4404C39.4701 68.5198 36.5292 68.5199 35.3528 66.4404L28.067 53.561C27.2228 52.0687 28.3009 50.2202 30.0154 50.2202H45.9845C47.6991 50.2202 48.7771 52.0687 47.9329 53.561L40.6466 66.4404Z" fill="url(#paint0_linear_1159_1012)"/>
<path d="M53.9949 42.8454C53.5976 43.5476 52.8533 43.9817 52.0465 43.9817H23.9535C23.1468 43.9817 22.4024 43.5476 22.0052 42.8454L13.0681 27.0472C12.2239 25.5549 13.302 23.7064 15.0165 23.7064H60.9836C62.6981 23.7064 63.7761 25.5549 62.9319 27.0472L53.9949 42.8454Z" fill="url(#paint1_linear_1159_1012)"/>
<path d="M72.9391 0C75.2919 4.69004e-05 76.7624 2.59941 75.586 4.6789L68.9938 16.3316C68.5965 17.0338 67.8522 17.4679 67.0454 17.4679H8.95459C8.14783 17.4679 7.40347 17.0338 7.00623 16.3316L0.414041 4.6789C-0.762359 2.59939 0.708111 0 3.06091 0H72.9391Z" fill="url(#paint2_linear_1159_1012)"/>
<defs>
<linearGradient id="paint0_linear_1159_1012" x1="38.5351" y1="67.4604" x2="88.4977" y2="-28.4924" gradientUnits="userSpaceOnUse">
<stop stop-color="#D4F76C"/>
<stop offset="1" stop-color="#389BD8"/>
</linearGradient>
<linearGradient id="paint1_linear_1159_1012" x1="38.5351" y1="67.4604" x2="88.4977" y2="-28.4924" gradientUnits="userSpaceOnUse">
<stop stop-color="#D4F76C"/>
<stop offset="1" stop-color="#389BD8"/>
</linearGradient>
<linearGradient id="paint2_linear_1159_1012" x1="38.5351" y1="67.4604" x2="88.4977" y2="-28.4924" gradientUnits="userSpaceOnUse">
<stop stop-color="#D4F76C"/>
<stop offset="1" stop-color="#389BD8"/>
</linearGradient>
</defs>
</svg>
