<svg width="1440" height="504" viewBox="0 0 1440 504" fill="none" xmlns="http://www.w3.org/2000/svg">
<g opacity="0.52">
<g filter="url(#filter0_f_1015_966)">
<circle cx="1322" cy="768" r="368" fill="url(#paint0_linear_1015_966)"/>
</g>
<g filter="url(#filter1_f_1015_966)">
<circle cx="1200.5" cy="864.5" r="342.5" fill="url(#paint1_linear_1015_966)" fill-opacity="0.53"/>
</g>
</g>
<path d="M611.196 574.558C612.447 573.996 613.701 573.431 614.954 572.867C615.717 572.604 616.469 572.36 617.234 572.093C615.219 572.919 613.191 573.767 611.196 574.558ZM43.4841 530.768C43.0167 530.347 42.5505 529.927 42.0897 529.511C43.0995 530.233 44.1118 530.956 45.1494 531.694C44.5962 531.386 44.0314 531.074 43.4841 530.768ZM601.017 578.509C603.07 577.516 605.131 576.51 607.194 575.504C608.869 574.94 610.547 574.369 612.228 573.793C610.234 574.696 608.234 575.607 606.259 576.479C604.507 577.164 602.761 577.837 601.017 578.509ZM595.999 580.949C596.679 580.626 597.37 580.284 598.058 579.948C599.02 579.581 599.992 579.198 600.957 578.826C599.295 579.55 597.655 580.237 595.999 580.949ZM36.8239 525.398C36.408 524.92 35.9916 524.442 35.5818 523.971C36.4979 524.806 37.4261 525.652 38.3696 526.508C37.8552 526.139 37.3296 525.762 36.8239 525.398ZM39.6187 528.605C38.9364 527.824 38.2777 527.066 37.6099 526.299C38.4445 526.9 39.2814 527.502 40.1403 528.118C40.8861 528.794 41.6494 529.483 42.4143 530.172C41.4651 529.642 40.5446 529.124 39.6187 528.605ZM30.918 519.342L29.848 517.778C30.6521 518.704 31.468 519.645 32.296 520.601L30.918 519.342ZM591.792 582.038C594.3 580.749 596.825 579.434 599.352 578.116C601.268 577.491 603.192 576.852 605.117 576.209C602.722 577.382 600.321 578.563 597.952 579.695C595.897 580.479 593.834 581.276 591.792 582.038ZM583.626 586.221C585.698 585.176 587.785 584.109 589.881 583.03C591.586 582.396 593.281 581.782 594.994 581.134C592.823 582.163 590.691 583.136 588.532 584.147C586.899 584.836 585.251 585.547 583.626 586.221ZM577.233 589.398C578.274 588.88 579.316 588.361 580.353 587.848C580.93 587.61 581.501 587.385 582.08 587.146C580.464 587.897 578.833 588.67 577.233 589.398ZM33.3438 522.888C32.7533 522.027 32.1696 521.174 31.5927 520.329L33.0675 521.676L33.8428 522.384C34.5095 523.152 35.1665 523.911 35.8488 524.695L33.3438 522.888ZM35.7872 526.446C35.1182 525.474 34.4508 524.504 33.7999 523.554C34.7358 524.23 35.673 524.906 36.6387 525.601C37.3881 526.462 38.1393 527.327 38.9086 528.206C37.8486 527.61 36.8145 527.026 35.7872 526.446ZM25.7552 512.669C25.4563 512.11 25.1582 511.554 24.8624 511.005C25.5482 511.995 26.2443 513.006 26.95 514.034C26.5485 513.574 26.1512 513.119 25.7552 512.669ZM27.8101 516.514C27.311 515.576 26.8165 514.651 26.3269 513.736C26.9727 514.473 27.6261 515.224 28.2886 515.983C28.8639 516.824 29.4476 517.677 30.0369 518.539C29.2847 517.853 28.5416 517.178 27.8101 516.514ZM29.8767 520.387L28.7931 518.355L28.1943 517.232C29.0194 517.983 29.858 518.747 30.7102 519.524L30.7858 519.635C31.4081 520.544 32.05 521.483 32.6877 522.416L32.4335 522.232L29.8767 520.387ZM31.9581 524.282C31.3545 523.153 30.7585 522.038 30.1702 520.936L32.2738 522.454L33.1433 523.082C33.8334 524.088 34.5352 525.111 35.2434 526.14C34.1285 525.51 33.0336 524.89 31.9581 524.282ZM583.677 585.007C586.355 583.556 589.084 582.034 591.804 580.526C593.801 579.893 595.798 579.261 597.804 578.611C595.119 580.012 592.428 581.422 589.775 582.776C587.735 583.533 585.706 584.269 583.677 585.007ZM574.379 589.979C576.93 588.619 579.465 587.281 582.03 585.901C583.969 585.201 585.915 584.486 587.865 583.767C585.305 585.069 582.777 586.327 580.239 587.597C578.278 588.404 576.328 589.192 574.379 589.979ZM566.485 594.188C568.318 593.225 570.183 592.221 572.042 591.226C573.676 590.571 575.325 589.892 576.968 589.223C574.971 590.22 572.969 591.224 570.991 592.194C569.482 592.869 567.986 593.524 566.485 594.188ZM560.819 597.126C561.434 596.807 562.041 596.499 562.655 596.182C563.408 595.852 564.17 595.51 564.924 595.177C563.543 595.847 562.194 596.468 560.819 597.126ZM21.3087 505.458C21.0665 504.876 20.8247 504.299 20.5853 503.729C21.157 504.761 21.7374 505.816 22.3243 506.891C21.9833 506.407 21.6448 505.93 21.3087 505.458ZM23.0089 509.558C22.5973 508.56 22.1903 507.575 21.7866 506.605C22.3433 507.392 22.9059 508.194 23.4752 509.009C23.9642 509.914 24.4587 510.832 24.959 511.762C24.3 511.014 23.6497 510.28 23.0089 509.558ZM24.7119 513.71C24.2433 512.567 23.7817 511.438 23.3245 510.326C24.0488 511.142 24.7832 511.976 25.5303 512.826C26.083 513.858 26.6428 514.906 27.21 515.968C26.3638 515.2 25.53 514.447 24.7119 513.71ZM26.4226 517.901L26.1285 517.181L24.95 514.294C25.8157 515.074 26.6968 515.871 27.593 516.685L28.5526 518.485L29.3734 520.024C28.3715 519.302 27.3868 518.593 26.4226 517.901ZM28.1467 522.12C27.6301 520.858 27.1201 519.61 26.6161 518.377C27.614 519.094 28.6302 519.825 29.6654 520.572C30.2733 521.711 30.8888 522.863 31.5123 524.029L29.0839 522.652L28.1467 522.12ZM575.21 588.066C578.188 586.371 581.174 584.662 584.184 582.927C586.265 582.287 588.363 581.616 590.455 580.957C587.599 582.536 584.73 584.131 581.919 585.65C579.681 586.457 577.433 587.282 575.21 588.066ZM565.476 593.556C568.286 591.982 571.098 590.406 573.937 588.794C576.01 588.067 578.089 587.328 580.173 586.58C577.414 588.06 574.669 589.522 571.929 590.974C569.776 591.838 567.613 592.717 565.476 593.556ZM556.221 598.703C558.716 597.331 561.239 595.919 563.764 594.508C565.704 593.751 567.641 592.998 569.594 592.22C567.23 593.474 564.876 594.718 562.543 595.932C560.437 596.852 558.309 597.806 556.221 598.703ZM547.466 603.463C549.659 602.277 551.827 601.125 554.032 599.92C555.484 599.3 556.921 598.704 558.381 598.073C556.618 598.98 554.846 599.899 553.094 600.793C551.226 601.671 549.319 602.605 547.466 603.463ZM542.541 606.12C542.995 605.877 543.452 605.628 543.907 605.383C544.367 605.172 544.815 604.977 545.277 604.765C544.357 605.225 543.456 605.664 542.541 606.12ZM17.5438 497.814C17.3517 497.219 17.1606 496.63 16.9706 496.047C17.4403 497.098 17.9127 498.178 18.391 499.28C18.1071 498.785 17.8246 498.296 17.5438 497.814ZM18.9062 502.12C18.5785 501.073 18.254 500.043 17.9312 499.029C18.4036 499.849 18.881 500.687 19.3622 501.541C19.7683 502.495 20.1792 503.467 20.5928 504.453C20.0243 503.659 19.4622 502.88 18.9062 502.12ZM20.262 506.501C19.891 505.293 19.5232 504.103 19.1588 502.932C19.7872 503.797 20.4244 504.685 21.0696 505.593C21.5286 506.69 21.9911 507.808 22.4591 508.942C21.7151 508.109 20.9819 507.296 20.262 506.501ZM21.6161 510.945C21.2236 509.649 20.8356 508.373 20.4502 507.116C21.2123 507.957 21.9871 508.821 22.7742 509.707C23.2592 510.883 23.7488 512.079 24.2448 513.29C23.3525 512.49 22.4761 511.707 21.6161 510.945ZM22.9751 515.437C22.5682 514.089 22.1656 512.758 21.7678 511.445C22.6552 512.234 23.5605 513.044 24.4828 513.873C24.9413 514.995 25.405 516.132 25.8756 517.283L26.0051 517.602C24.9745 516.862 23.9641 516.139 22.9751 515.437ZM24.3458 519.967C23.9377 518.619 23.5344 517.284 23.1367 515.968L23.1056 515.864C24.1147 516.583 25.1459 517.321 26.1993 518.077C26.7144 519.336 27.2344 520.612 27.7626 521.903C26.5977 521.241 25.458 520.596 24.3458 519.967ZM567.299 590.789C570.431 588.932 573.583 587.05 576.749 585.148C578.844 584.525 580.932 583.913 583.038 583.269C579.954 585.049 576.885 586.808 573.838 588.538C571.648 589.306 569.476 590.045 567.299 590.789ZM557.245 596.719C560.173 595.011 563.146 593.248 566.116 591.487C568.26 590.756 570.41 590.02 572.567 589.266C569.578 590.958 566.627 592.597 563.665 594.252C561.514 595.091 559.38 595.903 557.245 596.719ZM547.338 602.433C550.162 600.812 552.965 599.216 555.814 597.563C557.854 596.788 559.9 596.001 561.955 595.204C559.273 596.703 556.585 598.212 553.944 599.66C551.727 600.605 549.537 601.513 547.338 602.433ZM538.216 607.653C540.593 606.309 543.002 604.924 545.41 603.54C547.422 602.704 549.44 601.856 551.466 600.998C548.913 602.381 546.371 603.75 543.832 605.115C541.946 605.98 540.089 606.805 538.216 607.653ZM529.156 612.714C531.228 611.561 533.311 610.395 535.393 609.23C537.051 608.485 538.715 607.734 540.384 606.975C538.326 608.077 536.286 609.154 534.248 610.229C532.549 611.06 530.844 611.899 529.156 612.714ZM524.403 615.369C524.76 615.172 525.124 614.966 525.484 614.766C525.77 614.628 526.052 614.496 526.339 614.359C525.696 614.692 525.044 615.038 524.403 615.369ZM14.402 489.855C14.2562 489.252 14.1096 488.658 13.9622 488.068C14.3438 489.127 14.7249 490.213 15.1071 491.327C14.8712 490.829 14.6366 490.339 14.402 489.855ZM15.4552 494.308C15.205 493.226 14.9561 492.161 14.7069 491.116C15.1041 491.954 15.5044 492.813 15.9065 493.691C16.2377 494.683 16.5695 495.694 16.9044 496.724C16.4167 495.899 15.9333 495.093 15.4552 494.308ZM16.486 498.866C16.2069 497.606 15.9277 496.368 15.6495 495.153C16.1907 496.05 16.7374 496.972 17.2896 497.92C17.6591 499.07 18.0299 500.242 18.4048 501.435C17.7566 500.554 17.1173 499.697 16.486 498.866ZM17.5055 503.512C17.2114 502.155 16.9185 500.82 16.6288 499.506C17.2949 500.391 17.9712 501.304 18.6575 502.242C19.0452 503.482 19.4351 504.744 19.8293 506.027C19.0414 505.163 18.2661 504.324 17.5055 503.512ZM18.5175 508.228C18.2151 506.808 17.9144 505.409 17.6174 504.031C18.4034 504.874 19.202 505.743 20.0171 506.639C20.4154 507.937 20.8174 509.258 21.2235 510.598C20.3033 509.784 19.4008 508.994 18.5175 508.228ZM19.531 513.004C19.2208 511.541 18.9153 510.095 18.6123 508.673C19.514 509.456 20.4353 510.264 21.376 511.097C21.7823 512.438 22.1937 513.798 22.6108 515.177C21.5602 514.431 20.5338 513.706 19.531 513.004ZM20.5521 517.828L19.8959 514.728L19.6139 513.396C20.6323 514.11 21.6731 514.846 22.7401 515.605L22.8746 516.048C23.2441 517.274 23.6211 518.517 24.0001 519.772C22.8217 519.105 21.6719 518.457 20.5521 517.828ZM559.32 593.511C562.609 591.49 565.911 589.452 569.241 587.378C571.386 586.76 573.556 586.097 575.713 585.459C572.461 587.408 569.234 589.324 566.013 591.233C563.782 591.992 561.536 592.776 559.32 593.511ZM548.746 599.953C551.934 598.021 555.119 596.091 558.342 594.116C560.494 593.405 562.664 592.664 564.831 591.929C561.779 593.739 558.718 595.558 555.713 597.308C553.39 598.191 551.051 599.098 548.746 599.953ZM538.54 606.107C541.51 604.336 544.525 602.509 547.539 600.683C549.739 599.869 551.956 599.032 554.174 598.193C551.204 599.912 548.258 601.598 545.314 603.283C543.059 604.221 540.777 605.197 538.54 606.107ZM528.375 612.099C531.241 610.417 534.11 608.73 537.002 607.015C539.118 606.157 541.254 605.272 543.388 604.39C540.677 605.937 537.985 607.461 535.307 608.968C533.003 610.002 530.656 611.095 528.375 612.099ZM519.128 617.488C521.576 616.072 524.027 614.652 526.499 613.205C528.481 612.337 530.49 611.432 532.487 610.543C530.118 611.872 527.744 613.207 525.404 614.5C523.305 615.505 521.208 616.508 519.128 617.488ZM510.648 622.359C512.439 621.338 514.249 620.293 516.055 619.253C517.787 618.443 519.558 617.582 521.304 616.754C519.291 617.853 517.296 618.93 515.292 620.016C513.74 620.802 512.19 621.587 510.648 622.359ZM505.346 625.37C505.544 625.257 505.739 625.151 505.938 625.039C506.236 624.891 506.542 624.731 506.841 624.583C506.337 624.852 505.847 625.103 505.346 625.37ZM12.5978 486.251C12.4166 485.143 12.2339 484.056 12.0479 482.989C12.3845 483.835 12.7195 484.704 13.0548 485.596C13.3177 486.61 13.5786 487.646 13.8396 488.703C13.424 487.862 13.0104 487.044 12.5978 486.251ZM13.3331 490.929C13.1362 489.632 12.9379 488.359 12.7368 487.112C13.2031 488.024 13.671 488.968 14.142 489.94C14.4299 491.126 14.7174 492.338 15.0048 493.574C14.4426 492.663 13.8859 491.781 13.3331 490.929ZM14.042 495.722C13.8397 494.318 13.6377 492.938 13.4329 491.586C14.0155 492.493 14.6036 493.436 15.1975 494.409C15.4944 495.696 15.7922 497.009 16.0903 498.346C15.3979 497.44 14.7153 496.565 14.042 495.722ZM14.7308 500.609C14.5264 499.134 14.3221 497.681 14.1183 496.255C14.8121 497.13 15.5168 498.04 16.2316 498.982C16.5328 500.338 16.8359 501.719 17.1406 503.124C16.3215 502.254 15.5186 501.415 14.7308 500.609ZM15.4088 505.58C15.2037 504.052 14.9979 502.546 14.7939 501.065C15.5981 501.891 16.4177 502.75 17.2535 503.642C17.5576 505.048 17.8644 506.479 18.174 507.931C17.2319 507.118 16.3099 506.334 15.4088 505.58ZM16.0845 510.618C15.8757 509.051 15.6686 507.506 15.4641 505.982C16.3773 506.749 17.3123 507.546 18.2682 508.375C18.5765 509.819 18.8872 511.287 19.2023 512.774C18.1365 512.029 17.0968 511.309 16.0845 510.618ZM16.7631 515.715L16.4635 513.468L16.1329 510.982C17.1559 511.683 18.2073 512.411 19.2847 513.166L19.6279 514.786L20.2345 517.649C19.0439 516.981 17.8868 516.337 16.7631 515.715ZM551.694 595.972C555.081 593.823 558.513 591.619 561.95 589.408C564.066 588.818 566.172 588.249 568.3 587.64C564.924 589.742 561.571 591.815 558.241 593.86C556.046 594.584 553.875 595.272 551.694 595.972ZM540.81 602.825C544.101 600.767 547.418 598.677 550.753 596.565C552.919 595.871 555.082 595.181 557.263 594.464C553.962 596.485 550.703 598.451 547.439 600.426C545.214 601.247 543.016 602.03 540.81 602.825ZM530.142 609.442C533.322 607.481 536.501 605.519 539.718 603.512C541.883 602.735 544.049 601.958 546.23 601.155C543.105 603.044 539.988 604.922 536.904 606.756C534.633 607.677 532.395 608.549 530.142 609.442ZM519.878 615.742C522.821 613.954 525.806 612.114 528.791 610.273C530.978 609.411 533.162 608.552 535.367 607.663C532.366 609.444 529.38 611.205 526.413 612.942C524.214 613.904 522.058 614.807 519.878 615.742ZM509.654 621.898C512.471 620.213 515.305 618.504 518.153 616.782C520.283 615.871 522.404 614.974 524.552 614.039C521.666 615.721 518.82 617.35 515.963 618.995C513.842 619.985 511.755 620.932 509.654 621.898ZM500.03 627.61C502.544 626.128 505.052 624.653 507.591 623.14C509.464 622.284 511.315 621.456 513.202 620.58C510.728 622.001 508.262 623.414 505.821 624.794C503.869 625.761 501.966 626.664 500.03 627.61ZM491.414 632.675C493.277 631.591 495.17 630.469 497.059 629.356C498.599 628.61 500.134 627.868 501.683 627.108C499.797 628.164 497.902 629.231 496.026 630.272C494.488 631.074 492.942 631.887 491.414 632.675ZM486.459 635.529C486.612 635.441 486.763 635.355 486.916 635.268L487.305 635.07C487.021 635.224 486.742 635.375 486.459 635.529ZM12.6299 508.299C12.5225 506.642 12.4144 505.006 12.3076 503.394C13.2321 504.132 14.1802 504.909 15.1522 505.722C15.3604 507.262 15.5692 508.826 15.7811 510.411C14.6997 509.675 13.6489 508.97 12.6299 508.299ZM12.9744 513.64L12.8802 512.188L12.6516 508.641C13.6794 509.319 14.7389 510.031 15.8292 510.776L16.1925 513.502L16.4655 515.55C15.262 514.884 14.0984 514.247 12.9744 513.64ZM543.886 598.484C547.441 596.164 551.009 593.827 554.607 591.453C556.745 590.879 558.914 590.251 561.065 589.655C557.575 591.896 554.092 594.128 550.649 596.31C548.396 597.031 546.122 597.788 543.886 598.484ZM532.716 605.74C536.134 603.539 539.599 601.281 543.067 599.017C545.266 598.335 547.493 597.608 549.708 596.902C546.325 599.044 542.951 601.175 539.616 603.257C537.318 604.083 534.995 604.943 532.716 605.74ZM521.676 612.798C525.009 610.682 528.37 608.532 531.747 606.359C533.99 605.578 536.264 604.753 538.525 603.944C535.221 606.002 531.96 608.007 528.694 610.016C526.359 610.937 523.989 611.909 521.676 612.798ZM510.888 619.595C514.102 617.582 517.317 615.568 520.57 613.507C522.808 612.647 525.086 611.735 527.344 610.848C524.231 612.761 521.131 614.66 518.062 616.522C515.674 617.541 513.253 618.608 510.888 619.595ZM500.484 626.081C503.445 624.252 506.444 622.379 509.448 620.497C511.718 619.554 514.044 618.533 516.337 617.559C513.378 619.35 510.42 621.138 507.5 622.88C505.159 623.951 502.8 625.043 500.484 626.081ZM490.183 632.393C492.963 630.702 495.766 628.98 498.577 627.249C500.83 626.245 503.14 625.166 505.416 624.132C502.572 625.821 499.769 627.455 496.952 629.107C494.697 630.201 492.415 631.328 490.183 632.393ZM480.546 638.209C483.065 636.697 485.572 635.202 488.116 633.659C490.063 632.737 492.023 631.796 493.987 630.85C491.578 632.26 489.188 633.646 486.806 635.02C484.715 636.088 482.617 637.165 480.546 638.209ZM472.357 643.112C473.993 642.143 475.658 641.138 477.316 640.142C478.89 639.356 480.497 638.529 482.082 637.728C480.225 638.795 478.355 639.876 476.517 640.917C475.117 641.666 473.749 642.374 472.357 643.112ZM467.128 646.177L467.184 646.144L467.233 646.118L467.128 646.177ZM536.466 600.718C540.133 598.262 543.801 595.805 547.517 593.29C549.611 592.747 551.688 592.234 553.793 591.67C550.157 594.067 546.558 596.419 542.967 598.76C540.785 599.436 538.634 600.065 536.466 600.718ZM524.961 608.371C528.52 606.017 532.089 603.648 535.692 601.237C537.843 600.592 539.984 599.963 542.148 599.294C538.629 601.588 535.12 603.869 531.649 606.102C529.403 606.885 527.19 607.616 524.961 608.371ZM513.737 615.765C517.143 613.54 520.597 611.258 524.055 608.97C526.262 608.224 528.457 607.493 530.68 606.722C527.259 608.922 523.848 611.108 520.476 613.247C518.209 614.116 515.984 614.924 513.737 615.765ZM502.63 622.959C505.956 620.816 509.296 618.655 512.664 616.46C514.897 615.627 517.116 614.815 519.369 613.955C516.003 616.085 512.684 618.156 509.361 620.234C507.092 621.177 504.879 622.045 502.63 622.959ZM491.698 629.949C494.92 627.9 498.144 625.849 501.406 623.752C503.611 622.858 505.792 621.997 508.018 621.076C504.82 623.072 501.643 625.045 498.49 626.988C496.201 628.008 493.965 628.958 491.698 629.949ZM481.168 636.611C484.151 634.741 487.172 632.824 490.199 630.9C492.397 629.945 494.581 629.009 496.8 628.024C493.859 629.835 490.918 631.647 488.019 633.406C485.718 634.497 483.445 635.55 481.168 636.611ZM470.898 642.997C473.658 641.291 476.44 639.559 479.229 637.816C481.421 636.801 483.628 635.766 485.842 634.723C482.95 636.468 480.086 638.177 477.222 639.887C475.093 640.951 473.007 641.96 470.898 642.997ZM460.936 649.103C463.484 647.551 466.018 646.014 468.591 644.432C470.526 643.485 472.465 642.536 474.419 641.567C471.954 643.032 469.518 644.463 467.082 645.895C465.027 646.971 462.971 648.051 460.936 649.103ZM452.804 654.05C454.466 653.05 456.158 652.013 457.843 650.985C459.256 650.26 460.646 649.564 462.067 648.827C460.51 649.739 458.94 650.666 457.4 651.557C455.859 652.399 454.335 653.221 452.804 654.05ZM528.961 602.978C532.705 600.411 536.492 597.795 540.297 595.154C542.43 594.621 544.586 594.046 546.731 593.493C542.987 596.027 539.286 598.51 535.593 600.98C533.384 601.643 531.154 602.34 528.961 602.978ZM517.108 611.036C520.804 608.533 524.489 606.042 528.233 603.48C530.411 602.849 532.626 602.157 534.819 601.501C531.17 603.941 527.56 606.33 523.958 608.712C521.677 609.482 519.369 610.294 517.108 611.036ZM505.529 618.832C509.094 616.446 512.678 614.036 516.291 611.591C518.525 610.86 520.801 610.068 523.052 609.31C519.537 611.633 516.034 613.941 512.569 616.202C510.225 617.075 507.852 617.989 505.529 618.832ZM494.257 626.348C497.649 624.106 501.096 621.797 504.541 619.491C506.834 618.662 509.183 617.755 511.497 616.896C508.082 619.121 504.687 621.322 501.319 623.49C498.965 624.443 496.588 625.427 494.257 626.348ZM482.908 633.779C486.28 631.58 489.657 629.375 493.07 627.126C495.385 626.214 497.757 625.224 500.096 624.281C496.738 626.437 493.425 628.536 490.109 630.641C487.712 631.684 485.28 632.771 482.908 633.779ZM472.061 640.805C475.247 638.753 478.442 636.692 481.669 634.591C483.961 633.62 486.294 632.595 488.611 631.593C485.428 633.609 482.266 635.602 479.127 637.565C476.759 638.662 474.404 639.741 472.061 640.805ZM461.445 647.611C464.443 645.706 467.484 643.749 470.526 641.79C472.745 640.788 474.952 639.801 477.193 638.769C474.279 640.589 471.365 642.41 468.493 644.179C466.137 645.333 463.775 646.491 461.445 647.611ZM451.053 654.153C453.863 652.392 456.69 650.612 459.528 648.818C461.692 647.783 463.858 646.746 466.044 645.684C463.262 647.388 460.506 649.059 457.75 650.731C455.51 651.881 453.269 653.033 451.053 654.153ZM441.318 660.206C443.724 658.718 446.119 657.245 448.549 655.729C450.566 654.717 452.629 653.646 454.666 652.608C452.085 654.166 449.535 655.686 446.984 657.208C445.078 658.229 443.207 659.206 441.318 660.206ZM432.92 665.382C434.584 664.366 436.276 663.316 437.96 662.274C439.424 661.507 440.884 660.741 442.356 659.96C440.814 660.879 439.262 661.811 437.739 662.706C436.126 663.606 434.52 664.497 432.92 665.382ZM521.685 605.023C525.515 602.342 529.392 599.604 533.28 596.852C535.367 596.35 537.44 595.872 539.537 595.35C535.711 598.005 531.899 600.643 528.134 603.222C525.967 603.85 523.837 604.419 521.685 605.023ZM509.627 613.41C513.392 610.806 517.179 608.172 520.999 605.501C523.144 604.9 525.271 604.328 527.432 603.704C523.65 606.291 519.926 608.806 516.194 611.332C513.985 612.054 511.818 612.714 509.627 613.41ZM497.749 621.575C501.436 619.053 505.128 616.524 508.865 613.941C511.043 613.251 513.202 612.589 515.396 611.873C511.718 614.361 508.075 616.805 504.447 619.231C502.19 620.047 499.985 620.789 497.749 621.575ZM486.115 629.497C489.672 627.091 493.266 624.642 496.875 622.174C499.094 621.396 501.286 620.653 503.525 619.847C499.989 622.211 496.459 624.568 492.976 626.867C490.666 627.777 488.404 628.618 486.115 629.497ZM474.662 637.203C478.111 634.899 481.603 632.543 485.105 630.177C487.35 629.318 489.557 628.509 491.825 627.621C488.386 629.886 484.973 632.121 481.579 634.331C479.251 635.317 476.965 636.249 474.662 637.203ZM463.265 644.754C466.669 642.508 470.062 640.274 473.511 637.977C475.781 637.04 478.047 636.109 480.341 635.142C477.008 637.309 473.717 639.424 470.426 641.539C468.031 642.621 465.633 643.706 463.265 644.754ZM452.281 651.954C455.456 649.887 458.65 647.796 461.868 645.676C464.187 644.655 466.55 643.578 468.894 642.524C465.718 644.562 462.556 646.584 459.425 648.568C457.032 649.711 454.647 650.845 452.281 651.954ZM441.729 658.798C444.648 656.922 447.616 654.988 450.58 653.057C452.868 651.989 455.197 650.873 457.512 649.772C454.477 651.692 451.445 653.609 448.452 655.477C446.187 656.615 443.971 657.691 441.729 658.798ZM431.059 665.591C433.918 663.779 436.78 661.961 439.666 660.115C441.824 659.056 443.98 657.998 446.159 656.909C443.372 658.64 440.619 660.33 437.858 662.027C435.588 663.22 433.304 664.43 431.059 665.591ZM421.423 671.662C423.832 670.154 426.244 668.645 428.68 667.104C430.618 666.108 432.557 665.109 434.512 664.09C432.003 665.627 429.523 667.127 427.042 668.628C425.151 669.662 423.297 670.65 421.423 671.662ZM412.813 677.026C414.469 676.002 416.151 674.948 417.827 673.902C419.306 673.11 420.799 672.3 422.289 671.495C420.758 672.419 419.216 673.358 417.703 674.26C416.068 675.188 414.434 676.114 412.813 677.026ZM514.336 607.076C518.283 604.26 522.267 601.4 526.267 598.521C528.36 598.037 530.471 597.524 532.577 597.019C528.66 599.789 524.758 602.544 520.899 605.243C518.711 605.855 516.509 606.489 514.336 607.076ZM502.055 615.807C505.887 613.103 509.781 610.325 513.674 607.547C515.837 606.963 518.034 606.328 520.212 605.721C516.37 608.408 512.552 611.065 508.767 613.682C506.529 614.391 504.274 615.126 502.055 615.807ZM489.901 624.321C493.691 621.677 497.478 619.035 501.319 616.329C503.527 615.652 505.778 614.915 508.005 614.213C504.23 616.82 500.504 619.369 496.78 621.914C494.486 622.719 492.173 623.548 489.901 624.321ZM477.998 632.585C481.664 630.054 485.351 627.497 489.069 624.905C491.325 624.139 493.629 623.308 495.907 622.512C492.252 625.01 488.618 627.481 485.015 629.916C482.672 630.812 480.318 631.721 477.998 632.585ZM466.249 640.666C469.81 638.236 473.426 635.741 477.043 633.243C479.342 632.39 481.683 631.48 484.005 630.595C480.459 632.992 476.91 635.388 473.418 637.719C471.025 638.706 468.616 639.714 466.249 640.666ZM454.768 648.447C458.226 646.115 461.705 643.759 465.21 641.37C467.533 640.439 469.883 639.472 472.231 638.507C468.713 640.849 465.238 643.139 461.765 645.426C459.408 646.464 457.098 647.443 454.768 648.447ZM443.418 656.049C446.79 653.803 450.165 651.551 453.582 649.251C455.862 648.274 458.118 647.325 460.422 646.315C457.08 648.511 453.772 650.667 450.475 652.81C448.101 653.918 445.766 654.975 443.418 656.049ZM432.336 663.397C435.533 661.293 438.767 659.145 442.014 656.984C444.282 655.953 446.529 654.947 448.823 653.883C445.719 655.898 442.619 657.909 439.562 659.87C437.142 661.059 434.726 662.244 432.336 663.397ZM421.593 670.422C424.591 668.475 427.625 666.485 430.664 664.489C432.922 663.405 435.183 662.318 437.467 661.202C434.49 663.104 431.522 664.997 428.581 666.855C426.239 668.06 423.907 669.251 421.593 670.422ZM411.065 677.203C413.88 675.399 416.675 673.617 419.52 671.778C421.728 670.666 423.975 669.506 426.208 668.365C423.35 670.163 420.54 671.904 417.713 673.664C415.485 674.858 413.268 676.039 411.065 677.203ZM401.384 683.379C403.751 681.881 406.137 680.361 408.534 678.826C410.407 677.843 412.253 676.894 414.144 675.888C411.763 677.365 409.404 678.815 407.051 680.258C405.146 681.318 403.271 682.34 401.384 683.379ZM392.562 688.926C394.217 687.891 395.893 686.832 397.561 685.782C399.03 684.981 400.522 684.153 402.002 683.338C400.458 684.28 398.902 685.238 397.374 686.16C395.766 687.087 394.157 688.014 392.562 688.926ZM507.198 608.951C511.227 606.027 515.292 603.061 519.373 600.075C521.439 599.616 523.502 599.164 525.581 598.684C521.556 601.58 517.548 604.455 513.574 607.29C511.433 607.867 509.323 608.396 507.198 608.951ZM494.688 618.001C498.613 615.181 502.602 612.285 506.589 609.392C508.7 608.843 510.787 608.331 512.912 607.76C508.994 610.554 505.073 613.354 501.219 616.071C499.023 616.742 496.867 617.356 494.688 618.001ZM482.314 626.843C486.182 624.093 490.08 621.307 494.005 618.489C496.167 617.851 498.299 617.254 500.477 616.59C496.61 619.315 492.786 621.987 488.972 624.647C486.732 625.407 484.532 626.112 482.314 626.843ZM470.109 635.471C473.906 632.8 477.716 630.113 481.566 627.377C483.76 626.656 485.924 625.979 488.139 625.23C484.38 627.849 480.658 630.427 476.951 632.983C474.654 633.836 472.384 634.65 470.109 635.471ZM458.133 643.863C461.81 641.303 465.533 638.691 469.266 636.064C471.51 635.258 473.73 634.479 475.997 633.641C472.349 636.157 468.71 638.663 465.118 641.112C462.772 642.052 460.454 642.956 458.133 643.863ZM446.256 652.095C449.852 649.621 453.499 647.085 457.151 644.544C459.449 643.649 461.757 642.743 464.08 641.815C460.525 644.237 456.985 646.64 453.482 649C451.07 650.034 448.638 651.097 446.256 652.095ZM434.616 660.046C438.138 657.651 441.653 655.263 445.222 652.812C447.559 651.836 449.932 650.814 452.297 649.803C448.803 652.152 445.358 654.443 441.911 656.736C439.476 657.845 437.022 658.974 434.616 660.046ZM423.294 667.705C426.644 665.454 430.018 663.174 433.417 660.865C435.761 659.825 438.136 658.745 440.508 657.67C437.17 659.888 433.853 662.081 430.563 664.241C428.129 665.41 425.698 666.574 423.294 667.705ZM412.359 675.032C415.46 672.973 418.619 670.846 421.771 668.726C424.121 667.625 426.517 666.469 428.895 665.332C425.719 667.417 422.539 669.509 419.416 671.533C417.039 672.728 414.706 673.872 412.359 675.032ZM401.263 682.338C404.347 680.315 407.446 678.277 410.566 676.214C412.805 675.112 415.033 674.026 417.3 672.891C414.326 674.809 411.37 676.705 408.429 678.584C406.036 679.841 403.627 681.116 401.263 682.338ZM390.9 689.086C393.665 687.297 396.431 685.506 399.23 683.677C401.435 682.544 403.674 681.367 405.905 680.203C403.058 682.015 400.25 683.78 397.439 685.551C395.244 686.749 393.073 687.917 390.9 689.086ZM381.296 695.287C383.581 693.826 385.908 692.316 388.23 690.812C390.114 689.804 391.98 688.818 393.883 687.788C391.541 689.259 389.209 690.718 386.899 692.151C385.015 693.215 383.162 694.244 381.296 695.287ZM372.237 701.024C373.903 699.973 375.581 698.906 377.25 697.85C378.676 697.059 380.126 696.24 381.563 695.436C379.972 696.416 378.366 697.412 376.788 698.376C375.265 699.265 373.748 700.15 372.237 701.024ZM500.069 610.787C504.196 607.742 508.344 604.676 512.528 601.565C514.588 601.127 516.656 600.674 518.729 600.215C514.623 603.218 510.541 606.194 506.489 609.132C504.346 609.689 502.197 610.254 500.069 610.787ZM487.302 620.167C491.325 617.228 495.394 614.234 499.476 611.224C501.599 610.694 503.745 610.127 505.882 609.575C501.869 612.484 497.859 615.392 493.908 618.23C491.702 618.881 489.489 619.544 487.302 620.167ZM474.738 629.312C478.669 626.468 482.649 623.565 486.642 620.648C488.819 620.029 491.03 619.363 493.226 618.718C489.281 621.549 485.357 624.356 481.471 627.117C479.222 627.856 476.967 628.602 474.738 629.312ZM462.317 638.242C466.199 635.461 470.08 632.682 474.017 629.837C476.234 629.133 478.486 628.384 480.724 627.651C476.842 630.408 473.005 633.11 469.177 635.803C466.881 636.629 464.589 637.447 462.317 638.242ZM450.039 646.996C453.833 644.305 457.657 641.58 461.507 638.823C463.767 638.036 466.052 637.214 468.334 636.396C464.549 639.057 460.784 641.695 457.054 644.287C454.707 645.202 452.36 646.116 450.039 646.996ZM438.093 655.438C441.743 652.879 445.456 650.243 449.165 647.614C451.455 646.749 453.757 645.867 456.074 644.969C452.405 647.52 448.733 650.078 445.124 652.559C442.758 653.546 440.431 654.487 438.093 655.438ZM426.186 663.73C429.796 661.226 433.417 658.709 437.076 656.147C439.393 655.207 441.713 654.263 444.058 653.288C440.448 655.766 436.878 658.194 433.315 660.615C430.92 661.677 428.552 662.704 426.186 663.73ZM414.548 671.755C418.031 669.366 421.525 666.964 425.058 664.516C427.397 663.506 429.75 662.477 432.117 661.433C428.604 663.817 425.125 666.159 421.662 668.483C419.264 669.606 416.916 670.669 414.548 671.755ZM403.121 679.56C406.466 677.292 409.855 674.972 413.253 672.642C415.574 671.582 417.881 670.539 420.23 669.444C416.954 671.643 413.682 673.833 410.458 675.971C408.002 677.179 405.545 678.39 403.121 679.56ZM392.018 687.041C395.197 684.91 398.409 682.744 401.634 680.562C403.963 679.443 406.308 678.304 408.667 677.15C405.468 679.266 402.278 681.372 399.124 683.434C396.734 684.662 394.378 685.849 392.018 687.041ZM380.934 694.408C384.029 692.361 387.115 690.325 390.249 688.232C392.539 687.081 394.848 685.909 397.169 684.722C394.12 686.708 391.123 688.635 388.113 690.578C385.715 691.86 383.301 693.162 380.934 694.408ZM370.64 701.184C373.365 699.404 376.112 697.597 378.875 695.772C381.053 694.631 383.248 693.469 385.452 692.298C382.656 694.097 379.884 695.867 377.127 697.621C374.947 698.83 372.795 700.005 370.64 701.184ZM360.808 707.573C363.13 706.074 365.483 704.539 367.833 703.009C369.702 701.992 371.557 700.992 373.446 699.953C371.175 701.397 368.894 702.851 366.66 704.252C364.689 705.382 362.757 706.467 360.808 707.573ZM351.898 713.277C353.594 712.196 355.274 711.132 356.978 710.04C358.334 709.277 359.711 708.491 361.077 707.717C359.4 708.755 357.708 709.812 356.037 710.844C354.65 711.662 353.274 712.47 351.898 713.277ZM493.069 612.496C497.272 609.351 501.479 606.201 505.74 602.985C507.786 602.569 509.839 602.14 511.896 601.703C507.69 604.83 503.526 607.906 499.377 610.965C497.263 611.492 495.168 611.992 493.069 612.496ZM480.088 622.175C484.201 619.121 488.347 616.032 492.518 612.91C494.605 612.41 496.682 611.925 498.785 611.402C494.679 614.429 490.59 617.433 486.543 620.39C484.377 621.005 482.236 621.585 480.088 622.175ZM467.31 631.63C471.322 628.681 475.401 625.652 479.479 622.625C481.613 622.042 483.73 621.481 485.882 620.871C481.873 623.8 477.867 626.724 473.922 629.578C471.703 630.281 469.507 630.955 467.31 631.63ZM454.619 640.899C458.607 637.995 462.596 635.092 466.64 632.121C468.824 631.452 470.996 630.799 473.201 630.102C469.234 632.969 465.328 635.762 461.416 638.563C459.14 639.355 456.872 640.138 454.619 640.899ZM442.154 649.93C446.039 647.127 449.945 644.302 453.888 641.432C456.119 640.681 458.353 639.925 460.607 639.143C456.732 641.915 452.891 644.649 449.071 647.355C446.752 648.231 444.447 649.087 442.154 649.93ZM429.891 658.741C433.661 656.049 437.484 653.295 441.315 650.534C443.594 649.7 445.894 648.839 448.2 647.972C444.436 650.639 440.676 653.302 436.973 655.898C434.6 656.86 432.235 657.814 429.891 658.741ZM417.814 667.313C421.51 664.701 425.234 662.059 428.985 659.384C431.297 658.474 433.617 657.551 435.956 656.606C432.261 659.192 428.595 661.745 424.953 664.269C422.557 665.304 420.181 666.315 417.814 667.313ZM405.858 675.704C409.493 673.164 413.13 670.62 416.817 668.02C419.145 667.042 421.47 666.068 423.826 665.054C420.234 667.54 416.689 669.971 413.147 672.397C410.707 673.513 408.267 674.627 405.858 675.704ZM394.22 683.799C397.694 681.398 401.203 678.954 404.732 676.491C407.09 675.442 409.467 674.37 411.855 673.283C408.389 675.656 404.942 678.007 401.527 680.318C399.078 681.495 396.637 682.662 394.22 683.799ZM382.861 691.612C386.155 689.362 389.495 687.058 392.839 684.749C395.216 683.634 397.634 682.471 400.043 681.318C396.722 683.566 393.404 685.811 390.136 687.996C387.691 689.224 385.273 690.423 382.861 691.612ZM371.55 699.279C374.812 697.078 378.063 694.888 381.366 692.638C383.671 691.506 385.963 690.39 388.297 689.222C385.093 691.357 381.926 693.446 378.762 695.536C376.341 696.804 373.939 698.05 371.55 699.279ZM360.56 706.655C363.585 704.637 366.626 702.603 369.695 700.535C372.01 699.349 374.363 698.117 376.708 696.895C373.685 698.886 370.696 700.835 367.714 702.777C365.324 704.077 362.92 705.391 360.56 706.655ZM350.311 713.467C352.977 711.71 355.695 709.895 358.405 708.087C360.564 706.937 362.734 705.775 364.918 704.595C362.211 706.355 359.509 708.11 356.844 709.821C354.65 711.055 352.479 712.264 350.311 713.467ZM340.21 720.062C342.602 718.505 345.004 716.937 347.413 715.362C349.246 714.35 351.061 713.36 352.913 712.326C350.55 713.834 348.178 715.355 345.839 716.834C343.941 717.935 342.089 718.983 340.21 720.062ZM331.57 725.658C333.208 724.604 334.834 723.563 336.489 722.491C337.85 721.714 339.224 720.924 340.596 720.136C338.77 721.281 336.955 722.41 335.141 723.541C333.941 724.257 332.762 724.951 331.57 725.658ZM486.13 614.132C490.418 610.878 494.697 607.635 499.046 604.308C501.074 603.914 503.102 603.518 505.142 603.103C500.862 606.332 496.641 609.491 492.419 612.649C490.317 613.153 488.218 613.651 486.13 614.132ZM472.928 624.108C477.123 620.951 481.337 617.768 485.59 614.542C487.673 614.064 489.771 613.563 491.869 613.062C487.677 616.198 483.516 619.298 479.383 622.365C477.224 622.956 475.068 623.544 472.928 624.108ZM459.949 633.848C464.036 630.799 468.184 627.68 472.335 624.554C474.468 623.993 476.622 623.403 478.773 622.816C474.676 625.856 470.579 628.896 466.546 631.86C464.338 632.536 462.137 633.201 459.949 633.848ZM447.099 643.382C451.14 640.394 455.195 637.391 459.295 634.334C461.475 633.692 463.673 633.023 465.874 632.352C461.814 635.333 457.803 638.256 453.801 641.17C451.551 641.927 449.323 642.656 447.099 643.382ZM434.363 652.749C438.348 649.829 442.346 646.896 446.39 643.908C448.605 643.187 450.831 642.454 453.071 641.703C449.086 644.6 445.146 647.448 441.219 650.278C438.92 651.119 436.636 651.941 434.363 652.749ZM421.875 661.861C425.748 659.051 429.668 656.186 433.602 653.305C435.853 652.508 438.105 651.711 440.381 650.881C436.525 653.66 432.681 656.424 428.885 659.132C426.535 660.058 424.195 660.972 421.875 661.861ZM409.536 670.772C413.326 668.049 417.156 665.279 421.005 662.489C423.31 661.609 425.646 660.691 427.979 659.776C424.199 662.47 420.437 665.144 416.714 667.773C414.315 668.78 411.904 669.801 409.536 670.772ZM397.413 679.423C401.121 676.786 404.823 674.157 408.583 671.46C410.934 670.501 413.338 669.475 415.719 668.479C411.985 671.111 408.308 673.676 404.628 676.246C402.209 677.323 399.801 678.384 397.413 679.423ZM385.55 687.815C389.121 685.303 392.72 682.758 396.344 680.183C398.709 679.159 401.107 678.095 403.503 677.033C399.883 679.557 396.292 682.049 392.727 684.509C390.31 685.642 387.936 686.72 385.55 687.815ZM373.816 696.041C377.289 693.625 380.823 691.138 384.354 688.654C386.695 687.585 389.019 686.535 391.391 685.429C387.994 687.774 384.593 690.124 381.252 692.402C378.768 693.622 376.267 694.861 373.816 696.041ZM362.359 703.95C365.719 701.637 369.083 699.322 372.486 696.961C374.864 695.821 377.275 694.641 379.684 693.463C376.289 695.772 372.922 698.048 369.572 700.306C367.141 701.551 364.757 702.744 362.359 703.95ZM351.048 711.684C354.284 709.483 357.53 707.271 360.812 705.018C363.133 703.856 365.439 702.711 367.79 701.511C364.596 703.66 361.442 705.758 358.29 707.855C355.861 709.148 353.444 710.428 351.048 711.684ZM340.133 719.075C343.093 717.087 346.099 715.045 349.106 713.001C351.425 711.792 353.792 710.528 356.142 709.284C353.171 711.257 350.213 713.216 347.287 715.138C344.897 716.457 342.492 717.793 340.133 719.075ZM329.596 726.103C332.345 724.278 335.117 722.427 337.898 720.566C340.042 719.407 342.203 718.229 344.373 717.039C341.692 718.795 339.008 720.555 336.364 722.267C334.095 723.561 331.837 724.842 329.596 726.103ZM319.599 732.692C322.031 731.097 324.446 729.523 326.903 727.898C328.713 726.886 330.497 725.905 332.326 724.872C329.925 726.414 327.539 727.939 325.161 729.458C323.29 730.557 321.452 731.616 319.599 732.692ZM311.193 738.195C312.698 737.219 314.234 736.207 315.762 735.204C317.213 734.369 318.662 733.532 320.125 732.682C318.096 733.968 316.119 735.193 314.11 736.455C313.127 737.048 312.171 737.609 311.193 738.195ZM479.257 615.687C483.595 612.352 487.938 609.014 492.341 605.604C494.367 605.228 496.411 604.821 498.449 604.427C494.086 607.762 489.791 611.02 485.49 614.283C483.405 614.761 481.325 615.231 479.257 615.687ZM465.862 625.937C470.133 622.68 474.419 619.405 478.75 616.077C480.81 615.625 482.875 615.167 484.951 614.693C480.679 617.933 476.448 621.125 472.236 624.295C470.101 624.856 467.977 625.402 465.862 625.937ZM452.658 635.976C456.835 632.817 461.067 629.594 465.309 626.358C467.414 625.828 469.519 625.296 471.642 624.741C467.47 627.881 463.306 631.011 459.198 634.074C457.01 634.72 454.825 635.359 452.658 635.976ZM439.576 645.823C443.706 642.726 447.862 639.6 452.054 636.431C454.208 635.82 456.37 635.199 458.543 634.561C454.429 637.627 450.351 640.65 446.297 643.646C444.054 644.376 441.795 645.124 439.576 645.823ZM426.687 655.435C430.746 652.419 434.809 649.396 438.927 646.311C441.132 645.62 443.362 644.894 445.589 644.172C441.525 647.174 437.512 650.115 433.506 653.048C431.224 653.857 428.945 654.66 426.687 655.435ZM414.019 664.814C417.962 661.91 421.946 658.957 425.951 655.982C428.197 655.214 430.474 654.406 432.746 653.605C428.769 656.515 424.815 659.402 420.899 662.241C418.585 663.125 416.305 663.966 414.019 664.814ZM401.521 673.982C405.388 671.161 409.303 668.284 413.23 665.392C415.493 664.556 417.74 663.739 420.031 662.868C416.156 665.677 412.292 668.475 408.48 671.212C406.133 672.169 403.839 673.061 401.521 673.982ZM389.14 682.956C392.966 680.193 396.782 677.44 400.662 674.613C402.964 673.702 405.255 672.804 407.586 671.857C403.762 674.598 400.001 677.264 396.232 679.942C393.845 680.976 391.496 681.961 389.14 682.956ZM376.954 691.717C380.67 689.059 384.412 686.372 388.185 683.648C390.509 682.67 392.812 681.718 395.165 680.702C391.495 683.307 387.857 685.873 384.24 688.416C381.8 689.53 379.361 690.643 376.954 691.717ZM365.103 700.165C368.66 697.647 372.28 695.058 375.896 692.471C378.262 691.419 380.648 690.344 383.045 689.253C379.466 691.768 375.891 694.279 372.37 696.726C369.928 697.896 367.512 699.036 365.103 700.165ZM353.277 708.475C356.781 706.022 360.295 703.556 363.847 701.049C366.223 699.938 368.624 698.798 371.034 697.648C367.56 700.057 364.113 702.437 360.688 704.79C358.205 706.033 355.725 707.272 353.277 708.475ZM341.796 716.464C345.161 714.133 348.536 711.794 351.95 709.407C354.332 708.242 356.729 707.06 359.143 705.855C355.722 708.201 352.349 710.489 348.976 712.778C346.555 714.041 344.184 715.241 341.796 716.464ZM330.555 724.214C333.733 722.04 336.954 719.814 340.183 717.579C342.51 716.394 344.833 715.212 347.193 713.989C344.03 716.133 340.885 718.255 337.769 720.343C335.349 721.652 332.943 722.945 330.555 724.214ZM319.443 731.772C322.452 729.738 325.492 727.666 328.542 725.584C330.849 724.363 333.203 723.087 335.541 721.83C332.604 723.797 329.665 725.766 326.773 727.679C324.327 729.048 321.856 730.443 319.443 731.772ZM308.836 738.894C311.661 737.006 314.47 735.138 317.328 733.211C319.489 732.027 321.678 730.81 323.866 729.594C321.102 731.413 318.359 733.207 315.622 734.992C313.353 736.301 311.076 737.619 308.836 738.894ZM298.987 745.45C301.328 743.903 303.693 742.33 306.069 740.743C307.979 739.664 309.876 738.596 311.807 737.491C309.407 739.05 307.052 740.556 304.679 742.083C302.775 743.212 300.87 744.343 298.987 745.45ZM290.025 751.329C291.689 750.243 293.373 749.133 295.047 748.034C296.35 747.274 297.64 746.532 298.953 745.761C297.422 746.741 295.898 747.715 294.386 748.674C292.931 749.561 291.469 750.456 290.025 751.329ZM472.49 617.132C476.89 613.71 481.306 610.27 485.774 606.77C487.771 606.417 489.762 606.076 491.771 605.705C487.358 609.123 483.001 612.475 478.652 615.816C476.588 616.269 474.537 616.702 472.49 617.132ZM458.905 627.651C463.244 624.301 467.592 620.942 471.991 617.521C474.036 617.093 476.086 616.657 478.146 616.206C473.799 619.546 469.5 622.828 465.213 626.097C463.1 626.63 461 627.144 458.905 627.651ZM445.525 637.947C449.767 634.699 454.057 631.393 458.363 628.069C460.453 627.565 462.553 627.047 464.661 626.518C460.401 629.767 456.155 632.996 451.96 636.169C449.801 636.781 447.664 637.364 445.525 637.947ZM432.299 648.037C436.479 644.862 440.692 641.647 444.935 638.398C447.068 637.818 449.205 637.231 451.357 636.623C447.153 639.801 442.979 642.944 438.839 646.046C436.639 646.736 434.476 647.377 432.299 648.037ZM419.161 657.964C423.309 654.839 427.458 651.713 431.666 648.519C433.835 647.865 435.999 647.219 438.191 646.535C434.039 649.645 429.945 652.686 425.853 655.726C423.604 656.495 421.384 657.228 419.161 657.964ZM406.19 667.697C410.254 664.662 414.357 661.583 418.484 658.474C420.691 657.747 422.885 657.033 425.117 656.273C421.092 659.263 417.091 662.223 413.126 665.142C410.812 665.998 408.477 666.878 406.19 667.697ZM393.529 677.122C397.461 674.211 401.449 671.236 405.445 668.252C407.717 667.441 410.038 666.568 412.339 665.721C408.389 668.628 404.443 671.532 400.557 674.366C398.204 675.297 395.851 676.228 393.529 677.122ZM380.918 686.396C384.845 683.517 388.761 680.65 392.745 677.705C395.043 676.824 397.362 675.917 399.69 675C395.779 677.847 391.932 680.621 388.077 683.405C385.682 684.413 383.28 685.428 380.918 686.396ZM368.569 695.407C372.37 692.647 376.195 689.859 380.055 687.03C382.39 686.077 384.755 685.087 387.123 684.095C383.312 686.844 379.539 689.548 375.786 692.231C373.366 693.306 370.955 694.372 368.569 695.407ZM356.504 704.142C360.148 701.522 363.854 698.83 367.56 696.138C369.926 695.116 372.331 694.046 374.729 692.984C371.039 695.621 367.354 698.25 363.724 700.819C361.294 701.953 358.898 703.049 356.504 704.142ZM344.417 712.776C348.057 710.187 351.707 707.583 355.397 704.933C357.748 703.863 360.085 702.809 362.469 701.7C358.897 704.222 355.349 706.716 351.83 709.177C349.347 710.391 346.865 711.604 344.417 712.776ZM332.673 721.084C336.151 718.635 339.637 716.178 343.167 713.669C345.583 712.517 348.052 711.302 350.505 710.109C346.988 712.563 343.523 714.958 340.056 717.355C337.579 718.618 335.115 719.865 332.673 721.084ZM321.231 729.11C324.553 726.796 327.918 724.432 331.293 722.056C333.665 720.875 336.042 719.688 338.448 718.468C335.074 720.797 331.725 723.1 328.404 725.369C325.985 726.649 323.616 727.869 321.231 729.11ZM309.917 736.945C313.106 734.748 316.328 732.514 319.563 730.264C321.883 729.064 324.197 727.87 326.548 726.631C323.416 728.77 320.283 730.911 317.203 732.989C314.754 734.332 312.332 735.643 309.917 736.945ZM298.775 744.563C301.841 742.476 304.892 740.407 307.997 738.275C310.293 737.043 312.623 735.771 314.95 734.501C311.927 736.533 308.927 738.535 305.938 740.527C303.541 741.884 301.14 743.245 298.775 744.563ZM288.145 751.763C290.887 749.919 293.651 748.048 296.435 746.157C298.659 744.924 300.929 743.636 303.183 742.369C300.399 744.217 297.655 746.019 294.906 747.826C292.65 749.141 290.372 750.481 288.145 751.763ZM278.17 758.439C280.505 756.887 282.875 755.294 285.241 753.706C287.145 752.617 289.067 751.508 290.993 750.395C288.757 751.861 286.529 753.318 284.326 754.746C282.275 755.976 280.198 757.236 278.17 758.439ZM269.243 764.328C270.963 763.197 272.669 762.082 274.397 760.943C275.521 760.28 276.617 759.651 277.749 758.98C276.444 759.819 275.121 760.678 273.824 761.507C272.299 762.445 270.755 763.405 269.243 764.328ZM13.3453 519.344C14.5814 519.888 15.8667 520.456 17.2019 521.047C23.8058 570.134 33.8827 635.135 68.7937 681.487C113.203 740.449 197.768 769.224 366.446 696.626C362.701 699.344 358.962 702.053 355.278 704.701C188.684 780.519 104.811 757.488 61.6339 701.256C23.3755 651.428 17.032 575.547 13.3453 519.344ZM17.158 520.727C15.8319 520.14 14.5532 519.575 13.3248 519.036C13.2134 517.326 13.1034 515.635 12.9954 513.963C14.1263 514.575 15.2982 515.217 16.5105 515.888C16.7236 517.482 16.939 519.095 17.158 520.727ZM631.706 566.403C632.828 566.062 633.949 565.726 635.074 565.381C632.966 566.163 630.879 566.905 628.786 567.657C629.753 567.252 630.737 566.813 631.706 566.403ZM623.943 568.761C625.733 568.236 627.541 567.662 629.336 567.123C627.186 568.027 625.063 568.884 622.925 569.77C621.147 570.402 619.353 571.068 617.584 571.684C619.694 570.727 621.815 569.749 623.943 568.761ZM616.68 570.826C618.563 570.291 620.438 569.772 622.325 569.221C619.818 570.38 617.344 571.485 614.858 572.61C612.956 573.265 611.064 573.903 609.17 574.542C611.662 573.322 614.163 572.086 616.68 570.826ZM609.17 572.961C611.207 572.4 613.263 571.795 615.308 571.217C612.546 572.595 609.826 573.911 607.092 575.248C604.995 575.952 602.884 576.684 600.798 577.367C603.576 575.916 606.36 574.458 609.17 572.961ZM602.007 574.879C603.998 574.348 605.975 573.845 607.972 573.297C605.038 574.857 602.15 576.349 599.249 577.861C597.173 578.537 595.112 579.185 593.046 579.842C596.03 578.191 598.992 576.571 602.007 574.879ZM594.621 576.838C596.729 576.294 598.854 575.716 600.971 575.154C597.847 576.905 594.787 578.568 591.698 580.273C589.544 580.954 587.373 581.668 585.231 582.327C588.337 580.528 591.48 578.682 594.621 576.838ZM587.552 578.615C589.583 578.109 591.606 577.619 593.645 577.096C590.443 578.974 587.252 580.838 584.085 582.67C581.942 583.326 579.819 583.945 577.686 584.581C580.958 582.615 584.235 580.64 587.552 578.615ZM580.368 580.384C582.461 579.88 584.564 579.355 586.664 578.834C583.301 580.886 579.966 582.901 576.649 584.891C574.466 585.54 572.264 586.224 570.094 586.85C573.491 584.73 576.93 582.556 580.368 580.384ZM573.362 582.037C575.417 581.56 577.471 581.082 579.534 580.589C576.054 582.786 572.581 584.974 569.141 587.12C566.992 587.737 564.869 588.308 562.734 588.904C566.26 586.635 569.789 584.364 573.362 582.037ZM566.39 583.622C568.457 583.16 570.529 582.689 572.604 582.209C568.986 584.564 565.416 586.859 561.848 589.152C559.681 589.753 557.501 590.381 555.346 590.962C559 588.549 562.679 586.106 566.39 583.622ZM559.416 585.162C561.488 584.716 563.566 584.254 565.646 583.791C561.905 586.293 558.189 588.764 554.505 591.196C552.392 591.764 550.305 592.282 548.203 592.828C551.904 590.319 555.666 587.733 559.416 585.162ZM552.582 586.589C554.627 586.167 556.673 585.746 558.727 585.306C554.943 587.899 551.152 590.499 547.417 593.032C545.261 593.59 543.097 594.163 540.953 594.7C544.806 592.025 548.683 589.321 552.582 586.589ZM545.74 588C547.789 587.594 549.854 587.152 551.912 586.729C547.981 589.482 544.079 592.199 540.195 594.896C538.081 595.423 535.986 595.918 533.884 596.426C537.815 593.642 541.757 590.846 545.74 588ZM539.057 589.273C541.074 588.89 543.085 588.521 545.11 588.12C541.1 590.984 537.134 593.796 533.18 596.593C531.067 597.101 528.952 597.612 526.851 598.1C530.894 595.188 534.95 592.262 539.057 589.273ZM532.328 590.556C534.356 590.187 536.404 589.777 538.441 589.391C534.31 592.396 530.232 595.336 526.166 598.262C524.076 598.745 521.996 599.211 519.918 599.675C524.027 596.668 528.148 593.647 532.328 590.556ZM525.724 591.705C527.722 591.357 529.707 591.036 531.714 590.672C527.527 593.769 523.392 596.802 519.274 599.814C517.196 600.276 515.125 600.727 513.059 601.167C517.247 598.053 521.468 594.901 525.724 591.705ZM519.104 592.846C521.108 592.514 523.127 592.155 525.14 591.806C520.871 595.01 516.63 598.181 512.428 601.305C510.362 601.745 508.295 602.187 506.241 602.605C510.489 599.399 514.79 596.13 519.104 592.846ZM512.584 593.893C514.564 593.58 516.541 593.274 518.529 592.946C514.21 596.233 509.897 599.513 505.643 602.725C503.599 603.14 501.569 603.534 499.538 603.93C503.842 600.637 508.217 597.261 512.584 593.893ZM506.098 594.896C508.07 594.599 510.051 594.291 512.033 593.978C507.655 597.354 503.262 600.744 498.946 604.047C496.902 604.445 494.845 604.861 492.813 605.24C497.197 601.843 501.652 598.364 506.098 594.896ZM499.654 595.846C501.615 595.566 503.583 595.274 505.553 594.98C501.097 598.456 496.638 601.936 492.243 605.341C490.23 605.715 488.239 606.052 486.237 606.407C490.669 602.934 495.162 599.39 499.654 595.846ZM57.4727 538.44C140.738 572.738 297.28 624.551 499.131 595.917C494.624 599.472 490.122 603.022 485.675 606.507C278.784 643.015 135.185 580.252 57.4727 538.44ZM51.962 536.151C52.9833 536.578 54.0071 537.006 55.0511 537.441C132.175 579.222 276.444 643.574 485.21 606.87C480.732 610.379 476.303 613.831 471.893 617.26C255.18 662.64 122.701 585.518 51.962 536.151ZM47.3018 534.188C48.4468 534.673 49.5914 535.159 50.7686 535.653C121.222 584.971 253.842 663.034 471.395 617.649C466.98 621.08 462.62 624.448 458.267 627.809C232.006 682.388 111.2 591.149 47.3018 534.188ZM42.8679 532.299C44.0637 532.812 45.2799 533.33 46.516 533.855C110.237 590.765 231.006 682.713 457.724 628.227C453.401 631.564 449.099 634.877 444.84 638.137C208.797 702.333 99.9219 596.912 42.8679 532.299ZM38.5464 530.439C39.764 530.967 41.0175 531.506 42.2819 532.047C99.2163 596.608 207.974 702.607 444.251 638.587C439.997 641.844 435.765 645.074 431.576 648.256C185.424 722.488 88.7163 602.753 38.5464 530.439ZM34.2709 528.581C35.5044 529.12 36.782 529.674 38.0684 530.232C88.1577 602.499 184.718 722.72 430.943 648.739C426.717 651.946 422.554 655.08 418.388 658.217C205.921 728.306 111.559 648.32 60.8604 573.269C50.3406 557.695 41.7003 542.339 34.2709 528.581ZM30.0393 526.725C31.2881 527.274 32.5592 527.833 33.8639 528.403C41.3346 542.248 50.0316 557.727 60.6335 573.422C111.323 648.46 205.608 728.435 417.712 658.727C413.559 661.854 409.434 664.946 405.344 668C212.645 736.816 121.589 678.67 72.1852 607.94C53.0513 580.545 40.1625 551.259 30.0393 526.725ZM25.8373 524.871C27.0907 525.426 28.3622 525.988 29.678 526.567C39.8234 551.167 52.7421 580.581 71.9617 608.096C121.351 678.807 212.319 736.956 404.622 668.537C400.608 671.535 396.591 674.535 392.642 677.456C211.455 746.91 123.139 701.973 75.509 635.709C49.9153 600.103 36.057 558.339 25.8373 524.871ZM21.6576 523.021C22.907 523.575 24.1836 524.141 25.5061 524.725C35.7373 558.248 49.6089 600.145 75.2872 635.869C122.898 702.105 211.102 747.065 391.844 678.045C387.839 681.005 383.896 683.894 379.948 686.786C206.088 757.768 119.875 722.051 73.9442 659.723C43.2527 618.073 30.5309 564.538 21.6576 523.021ZM20.6464 522.573L21.348 522.883C30.2284 564.453 42.9497 618.124 73.7228 659.884C119.631 722.181 205.709 757.935 379.087 687.42C375.172 690.286 371.299 693.105 367.444 695.903C198.203 769.032 113.455 740.327 69.0128 681.321C34.1824 635.077 24.0964 570.213 17.4943 521.176C18.517 521.629 19.567 522.094 20.6464 522.573ZM21.2771 522.552L20.7576 522.322C19.624 521.819 18.5225 521.331 17.4517 520.857C17.2339 519.238 17.0197 517.636 16.8092 516.052C17.9413 516.68 19.109 517.331 20.3109 518.006C20.6285 519.505 20.9496 521.019 21.2771 522.552ZM25.3998 524.379C24.0894 523.8 22.8252 523.239 21.5862 522.69C21.2616 521.171 20.943 519.669 20.6285 518.185C21.7595 518.82 22.9225 519.476 24.1154 520.151C24.5375 521.545 24.965 522.953 25.3998 524.379ZM29.5269 526.201C28.2253 525.629 26.9709 525.074 25.7317 524.526C25.302 523.117 24.8789 521.724 24.4613 520.347C25.59 520.985 26.7468 521.642 27.9299 522.312C28.4558 523.594 28.9868 524.891 29.5269 526.201ZM33.6522 528.011C32.3723 527.451 31.1134 526.899 29.8888 526.359C29.3561 525.069 28.8325 523.792 28.3149 522.53L28.9495 522.89L31.7552 524.48C32.379 525.645 33.0115 526.821 33.6522 528.011ZM37.7711 529.803C36.5149 529.258 35.265 528.716 34.0594 528.189C33.431 527.025 32.8119 525.873 32.2004 524.733C33.3086 525.361 34.4451 526.004 35.5959 526.654C36.3127 527.693 37.035 528.74 37.7711 529.803ZM41.8605 531.568C40.6371 531.043 39.4281 530.522 38.2484 530.011C37.5367 528.984 36.8346 527.968 36.1399 526.96C37.2216 527.571 38.3247 528.192 39.4449 528.82C40.2361 529.724 41.0492 530.647 41.8605 531.568ZM45.8795 533.287C44.7148 532.792 43.5754 532.304 42.4462 531.819C41.677 530.947 40.9161 530.082 40.1631 529.224C41.2015 529.807 42.2493 530.393 43.3214 530.992C44.1642 531.75 45.015 532.514 45.8795 533.287ZM49.6981 534.906C48.672 534.473 47.6699 534.047 46.6643 533.621C45.9005 532.938 45.1365 532.256 44.3885 531.584C45.3274 532.107 46.2623 532.629 47.2291 533.163C48.0516 533.744 48.8591 534.317 49.6981 534.906ZM52.6533 536.142C52.0702 535.899 51.4741 535.652 50.8999 535.411C50.3881 535.053 49.875 534.695 49.3722 534.341C50.4568 534.938 51.5374 535.533 52.6533 536.142ZM1452 519.538C1349.54 478.906 1056.04 388.355 737.674 527.019C705.602 540.987 674.213 552.695 643.568 562.438C673.954 550.843 705.344 537.195 737.789 521.137C1085.28 349.138 1355.49 456.2 1452 507.55V507.241C1355.33 455.84 1085.12 348.917 737.667 520.892C703.564 537.772 670.615 552.005 638.787 563.967C637.18 564.468 635.586 564.934 633.983 565.425C667.091 551.323 701.658 534.659 737.793 515.003C1112.71 311.062 1361.31 431.625 1452 493.985V493.653C1361.12 431.225 1112.48 310.877 737.662 514.762C700.714 534.861 665.396 551.847 631.613 566.145C629.625 566.748 627.631 567.37 625.651 567.956C661.088 551.444 698.414 531.911 737.797 508.87C1138.02 274.723 1367.02 405.265 1452 478.763V478.401C1366.82 404.824 1137.73 274.575 737.659 508.634C697.661 532.035 659.776 551.833 623.849 568.503C621.875 569.083 619.922 569.616 617.954 570.179C655.533 551.321 695.406 529.021 737.8 502.737C1160.62 240.589 1372.48 376.843 1452 461.371V460.969C1372.25 376.36 1160.27 240.486 737.657 502.505C694.803 529.074 654.516 551.586 616.581 570.569C614.482 571.167 612.376 571.78 610.283 572.36C650.001 551.165 692.414 526.112 737.802 496.605C1179.97 209.156 1377.51 346.18 1452 441.217V440.778C1377.29 345.672 1179.58 209.078 737.654 496.375C691.859 526.146 649.088 551.395 609.067 572.706C607.017 573.271 604.983 573.801 602.94 574.348C644.701 550.863 689.557 523.102 737.805 490.473C1195.23 181.123 1381.8 313.142 1452 417.528V417.028C1381.57 312.601 1194.78 181.097 737.652 490.246C689.066 523.104 643.911 551.036 601.904 574.622C599.767 575.193 597.626 575.77 595.496 576.321C639.347 550.538 686.652 520.111 737.807 484.341C1205.73 157.13 1385.03 277.937 1452 389.604V389.058C1384.79 277.392 1205.26 157.13 737.65 484.116C686.175 520.112 638.598 550.697 594.521 576.581C592.454 577.112 590.398 577.624 588.339 578.139C634.185 550.107 683.887 517.012 737.808 478.209C1210.94 137.731 1386.77 241.181 1452 356.966V356.375C1386.53 240.646 1210.44 137.754 737.649 477.986C683.436 517 633.499 550.232 587.452 578.358C585.331 578.886 583.212 579.411 581.1 579.921C628.99 549.629 681.066 513.941 737.809 472.078C1210.86 123.076 1386.73 204.026 1452 319.789V319.086C1386.47 203.47 1210.31 123.148 737.647 471.857C680.634 513.919 628.337 549.745 580.266 580.126C578.18 580.628 576.097 581.122 574.019 581.606C623.898 549.088 678.332 510.793 737.81 465.946C1206.34 112.659 1384.88 167.978 1452 279.207V278.524C1384.61 167.485 1205.77 112.749 737.646 465.727C677.93 510.754 623.298 549.18 573.261 581.778C571.18 582.26 569.106 582.729 567.033 583.194C618.882 548.471 675.64 507.604 737.812 459.814C1198.51 105.677 1381.38 134.35 1452 236.896V236.295C1381.16 133.928 1198.06 105.675 737.645 459.597C675.237 507.57 618.292 548.559 566.289 583.364C564.193 583.832 562.094 584.308 560.006 584.758C613.85 547.826 672.92 504.428 737.812 453.682C1188.72 101.073 1376.67 103.949 1452 194.661V194.083C1376.45 103.564 1188.31 101.046 737.645 453.467C672.537 504.38 613.297 547.894 559.318 584.902C557.255 585.345 555.205 585.765 553.151 586.191C608.941 547.083 670.28 501.18 737.814 447.551C1178.09 97.9204 1371.18 76.9823 1452 153.895V153.337C1370.98 76.6237 1177.72 97.8706 737.643 447.336C669.904 501.128 608.4 547.147 552.482 586.33C550.412 586.758 548.331 587.209 546.271 587.619C604.014 546.341 667.639 497.923 737.814 441.419C1167.37 95.5447 1365.31 53.246 1452 115.432V114.907C1365.12 52.9116 1167.04 95.4632 737.642 441.206C667.278 497.863 603.501 546.391 545.641 587.74C543.61 588.143 541.597 588.51 539.574 588.895C599.223 545.482 665.078 494.593 737.814 435.288C1157.08 93.4404 1359.35 32.3716 1452 79.7126V79.1912C1359.17 32.0472 1156.75 93.3557 737.641 435.076C664.723 494.531 598.717 545.53 538.958 589.013C536.918 589.4 534.868 589.808 532.836 590.179C594.402 544.631 662.506 491.265 737.814 429.157C1147.4 91.3678 1353.49 13.8948 1452 46.7409V46.2523C1353.32 13.59 1147.08 91.271 737.641 428.945C662.151 491.203 593.902 544.677 532.227 590.295C530.212 590.662 528.215 590.992 526.208 591.343C589.675 543.677 659.968 487.901 737.816 423.026C1038.29 172.618 1231.16 58.4617 1352.81 25H1351.5C1229.69 58.9935 1037.05 173.294 737.64 422.815C659.62 487.836 589.195 543.71 525.624 591.444C523.607 591.794 521.587 592.151 519.579 592.485C584.949 542.708 657.432 484.53 737.816 416.894C996.912 198.89 1177.54 79.3508 1301.91 25H1301.08C1176.66 79.5781 996.185 199.144 737.64 416.685C657.086 484.463 584.474 542.74 519.004 592.585C517.009 592.916 515.023 593.229 513.036 593.545C580.289 541.677 654.936 481.118 737.816 410.763C973.533 210.672 1145.42 90.0038 1269.68 25H1268.98C1144.72 90.1415 972.947 210.81 737.64 410.554C654.599 481.045 579.83 541.697 512.484 593.63C510.5 593.944 508.518 594.25 506.542 594.549C575.664 540.601 652.462 477.68 737.817 404.632C956.435 217.535 1121.24 96.9021 1244.5 25H1243.96C1120.69 96.9822 956.034 217.518 737.64 404.424C652.129 477.605 575.211 540.622 505.997 594.633C504.023 594.93 502.046 595.229 500.079 595.51C571.066 539.495 650.006 474.222 737.818 398.5C943.09 221.491 1101.74 101.668 1223.64 25H1223.12C1101.22 101.729 942.703 221.464 737.639 398.293C649.68 474.142 570.628 539.507 499.556 595.582C295.589 624.63 137.84 571.487 55.1663 537.191C52.4968 535.745 49.8884 534.319 47.3757 532.93C44.9479 531.216 42.5885 529.536 40.3151 527.906C38.1495 525.944 36.061 524.037 34.0376 522.19L32.5992 520.533C31.2001 518.919 29.8368 517.345 28.5065 515.817C26.8534 513.404 25.2546 511.081 23.7064 508.862C22.3013 506.264 20.9358 503.778 19.6075 501.42C18.4357 498.672 17.2909 496.061 16.1646 493.602C15.2092 490.739 14.2626 488.038 13.3156 485.517C12.8807 483.842 12.4432 482.227 12.0004 480.678V481.671C12.1389 482.167 12.2773 482.67 12.4156 483.179C12.2777 482.829 12.1392 482.482 12.0004 482.139V484.311L12.1965 485.487L12.0004 485.118V485.693L12.3364 486.335C12.5519 487.654 12.7635 489.004 12.9744 490.38C12.6486 489.882 12.3241 489.396 12.0006 488.921V489.404C12.3557 489.931 12.7135 490.472 13.0729 491.025C13.2852 492.424 13.4954 493.849 13.7058 495.303C13.131 494.589 12.5627 493.899 12.0006 493.236V493.658C12.5875 494.356 13.1814 495.082 13.7827 495.834C13.9916 497.289 14.201 498.774 14.4098 500.283C13.5919 499.45 12.7883 498.653 12.0006 497.895V498.274C12.8087 499.056 13.6321 499.877 14.4728 500.735C14.6804 502.238 14.8892 503.768 15.0986 505.32C14.1367 504.518 13.1996 503.752 12.2839 503.024C12.1904 501.614 12.0962 500.221 12.0009 498.848V503.148L12.019 503.163C12.1276 504.789 12.235 506.439 12.3436 508.111L12.0012 507.887V508.213L12.3661 508.452L12.6085 512.205L12.6915 513.487L12.0015 513.115V513.426L12.7126 513.808C12.8218 515.491 12.9318 517.191 13.0443 518.911L12.0015 518.454V518.753L13.0642 519.22C16.752 575.471 23.0782 651.488 61.4182 701.421C104.554 757.6 188.223 780.709 354.175 705.49C350.435 708.174 346.723 710.826 343.042 713.444C177.822 792.228 94.5046 773.872 52.4132 719.984C26.3575 686.627 16.1012 639.642 12.0017 593.638V596.622C16.2794 641.716 26.661 687.459 52.1978 720.152C94.2443 773.982 177.351 792.416 341.881 714.273C338.275 716.832 334.725 719.329 331.171 721.829C166.182 803.951 82.9497 789.738 41.7643 737.815C27.1351 719.371 17.811 696.166 12.0015 670.837V672.062C17.8367 696.974 27.1155 719.789 41.5505 737.986C82.6758 789.834 165.632 804.161 329.795 722.798C326.315 725.244 322.857 727.664 319.431 730.046C153.827 815.774 70.4108 805.218 29.99 754.959C22.6558 745.84 16.7419 735.409 12.0017 724.015V724.735C16.7083 735.914 22.557 746.154 29.776 755.13C70.1196 805.291 153.174 816.007 317.769 731.197C314.449 733.507 311.126 735.816 307.863 738.061C140.934 827.651 57.0896 820.409 17.3088 771.564C15.4403 769.269 13.6802 766.873 12.0021 764.401V764.888C13.6166 767.248 15.3071 769.539 17.0967 771.736C56.7773 820.46 140.181 827.896 305.897 739.405C302.676 741.611 299.488 743.779 296.307 745.939C138.395 833.525 54.2937 835.49 12.0017 796.345V796.711C54.2185 835.548 137.807 833.676 294.153 747.407C291.111 749.468 288.107 751.482 285.106 753.494C141.127 835.851 57.8868 848.044 12.0001 822.107V822.409C57.6769 848.092 140.165 836.177 282.289 755.38C279.592 757.186 276.902 758.983 274.247 760.741C142.083 838.551 60.4633 858.195 12.0001 843.161V843.432C60.0408 858.26 140.524 839.139 270.25 763.367C267.972 764.867 265.683 766.379 263.431 767.85C141.644 841.477 62.1812 866.567 12.0001 860.524V860.768C61.3953 866.683 139.058 842.53 257.369 771.786C255.741 772.837 254.121 773.88 252.503 774.921C175.444 822.649 115.097 851.275 68.2727 865H69.1139C113.367 851.913 169.612 825.606 240.508 782.572C179.401 821.214 128.681 848.018 86.8029 865H87.4264C131.94 846.896 186.402 817.731 252.637 775.129C259.606 770.814 266.706 766.348 273.938 761.73C280.724 757.557 287.608 753.273 294.648 748.806C301.055 744.901 307.581 740.857 314.219 736.686C321.089 732.544 328.113 728.224 335.247 723.775C342.085 719.692 349.061 715.45 356.146 711.078C362.944 707.062 369.859 702.907 376.891 698.617C383.641 694.677 390.484 690.624 397.464 686.411C404.146 682.561 410.907 678.618 417.811 674.502C424.389 670.768 431.034 666.953 437.823 662.964C444.282 659.36 450.812 655.672 457.473 651.822C463.765 648.381 470.133 644.846 476.611 641.172C483.019 637.747 489.535 634.185 496.133 630.521C502.459 627.225 508.896 623.787 515.396 620.268C521.624 617.113 527.92 613.871 534.311 610.503C540.518 607.467 546.817 604.307 553.186 601.053C559.091 598.275 565.055 595.416 571.097 592.447C576.885 589.856 582.75 587.154 588.652 584.394C594.497 581.93 600.394 579.383 606.356 576.736C611.865 574.578 617.427 572.327 623.017 570.028C628.278 568.147 633.56 566.224 638.879 564.224C671.04 554.188 704.038 541.967 737.783 527.27C1056.17 388.599 1349.67 479.235 1452 519.833V519.538Z" fill="url(#paint2_linear_1015_966)" fill-opacity="0.04"/>
<defs>
<filter id="filter0_f_1015_966" x="595.3" y="41.3" width="1453.4" height="1453.4" filterUnits="userSpaceOnUse" color-interpolation-filters="sRGB">
<feFlood flood-opacity="0" result="BackgroundImageFix"/>
<feBlend mode="normal" in="SourceGraphic" in2="BackgroundImageFix" result="shape"/>
<feGaussianBlur stdDeviation="179.35" result="effect1_foregroundBlur_1015_966"/>
</filter>
<filter id="filter1_f_1015_966" x="499.3" y="163.3" width="1402.4" height="1402.4" filterUnits="userSpaceOnUse" color-interpolation-filters="sRGB">
<feFlood flood-opacity="0" result="BackgroundImageFix"/>
<feBlend mode="normal" in="SourceGraphic" in2="BackgroundImageFix" result="shape"/>
<feGaussianBlur stdDeviation="179.35" result="effect1_foregroundBlur_1015_966"/>
</filter>
<linearGradient id="paint0_linear_1015_966" x1="998.056" y1="866.732" x2="2214.64" y2="1424.17" gradientUnits="userSpaceOnUse">
<stop stop-color="#D4F76C"/>
<stop offset="1" stop-color="#389BD8"/>
</linearGradient>
<linearGradient id="paint1_linear_1015_966" x1="899.004" y1="956.39" x2="2031.28" y2="1475.2" gradientUnits="userSpaceOnUse">
<stop stop-color="#D4F76C"/>
<stop offset="1" stop-color="#389BD8"/>
</linearGradient>
<linearGradient id="paint2_linear_1015_966" x1="1365.8" y1="557.684" x2="-2686.29" y2="3740.56" gradientUnits="userSpaceOnUse">
<stop stop-color="#D4F76C"/>
<stop offset="1" stop-color="#389BD8"/>
</linearGradient>
</defs>
</svg>
