<svg width="703" height="300" viewBox="0 0 703 300" fill="none" xmlns="http://www.w3.org/2000/svg">
<g opacity="0.2">
<path d="M89.8515 176.268H91.1256C91.4635 176.268 91.7876 176.402 92.0265 176.641C92.2655 176.88 92.3997 177.204 92.3997 177.542V186.461C92.3997 186.799 92.2655 187.123 92.0265 187.362C91.7876 187.601 91.4635 187.735 91.1256 187.735H83.4811C83.1432 187.735 82.8191 187.601 82.5802 187.362C82.3413 187.123 82.207 186.799 82.207 186.461V177.542C82.207 177.204 82.3413 176.88 82.5802 176.641C82.8191 176.402 83.1432 176.268 83.4811 176.268H84.7552M85.3922 182.639H89.2145M87.3034 184.55V180.728M85.3922 174.994H89.2145C89.5663 174.994 89.8515 175.279 89.8515 175.631V176.905C89.8515 177.257 89.5663 177.542 89.2145 177.542H85.3922C85.0404 177.542 84.7552 177.257 84.7552 176.905V175.631C84.7552 175.279 85.0404 174.994 85.3922 174.994Z" stroke="white" stroke-width="1.91113" stroke-linecap="round" stroke-linejoin="round"/>
<path d="M214.236 180.495V182.234H207.053V180.495H214.236ZM208.578 181.364L207.909 185.619L206.919 184.495H214.651V186.381H205.621L206.397 181.364L205.621 176.348H214.584V178.234H206.919L207.909 177.11L208.578 181.364Z" fill="white"/>
<path d="M196.418 180.802H200.285C200.793 180.802 201.194 180.687 201.489 180.455C201.792 180.214 201.943 179.884 201.943 179.465C201.943 179.046 201.792 178.72 201.489 178.488C201.194 178.256 200.793 178.14 200.285 178.14H196.084L197.114 176.976V186.381H194.84V176.348H200.552C201.284 176.348 201.926 176.481 202.479 176.749C203.032 177.008 203.464 177.369 203.776 177.833C204.088 178.296 204.244 178.84 204.244 179.465C204.244 180.08 204.088 180.62 203.776 181.083C203.464 181.547 203.032 181.913 202.479 182.18C201.926 182.439 201.284 182.568 200.552 182.568H196.418V180.802ZM198.158 181.685H200.753L204.539 186.381H201.877L198.158 181.685Z" fill="white"/>
<path d="M184.071 184.267V182.421H191.028V184.267H184.071ZM189.061 176.348L193.757 186.381H191.335L187.228 177.271H187.978L183.871 186.381H181.449L186.145 176.348H189.061Z" fill="white"/>
<path d="M181.442 182.3C181.344 183.148 181.045 183.897 180.546 184.548C180.055 185.19 179.404 185.689 178.593 186.046C177.79 186.403 176.871 186.581 175.837 186.581C174.695 186.581 173.692 186.363 172.827 185.926C171.971 185.489 171.302 184.882 170.82 184.106C170.338 183.321 170.098 182.407 170.098 181.364C170.098 180.32 170.338 179.411 170.82 178.635C171.302 177.85 171.971 177.239 172.827 176.802C173.692 176.365 174.695 176.146 175.837 176.146C176.871 176.146 177.79 176.325 178.593 176.682C179.404 177.038 180.055 177.538 180.546 178.18C181.045 178.822 181.344 179.571 181.442 180.427H179.154C179.065 179.955 178.874 179.549 178.579 179.21C178.285 178.862 177.906 178.595 177.442 178.407C176.978 178.22 176.439 178.126 175.823 178.126C175.119 178.126 174.508 178.26 173.991 178.528C173.482 178.786 173.09 179.161 172.813 179.651C172.537 180.133 172.399 180.704 172.399 181.364C172.399 182.024 172.537 182.599 172.813 183.09C173.09 183.571 173.482 183.946 173.991 184.213C174.508 184.472 175.119 184.601 175.823 184.601C176.439 184.601 176.978 184.512 177.442 184.334C177.906 184.146 178.285 183.883 178.579 183.544C178.874 183.197 179.065 182.782 179.154 182.3H181.442Z" fill="white"/>
<path d="M158.219 176.348H160.493V186.381H158.219V176.348ZM166.245 176.348H168.52V186.381H166.245V176.348ZM159.463 180.308H167.249V182.301H159.463V180.308Z" fill="white"/>
<path d="M150.703 177.364H152.964V186.381H150.703V177.364ZM146.703 176.348H156.951V178.354H146.703V176.348Z" fill="white"/>
<path d="M141.786 176.348V185.378L140.756 184.374H148.288V186.381H139.512V176.348H141.786Z" fill="white"/>
<path d="M128.743 184.267V182.421H135.7V184.267H128.743ZM133.733 176.348L138.429 186.381H136.007L131.9 177.271H132.649L128.542 186.381H126.121L130.817 176.348H133.733Z" fill="white"/>
<path d="M125.151 180.495V182.234H117.967V180.495H125.151ZM119.492 181.364L118.823 185.619L117.833 184.495H125.565V186.381H116.535L117.311 181.364L116.535 176.348H125.498V178.234H117.833L118.823 177.11L119.492 181.364Z" fill="white"/>
<path d="M104.5 176.348H106.774V186.381H104.5V176.348ZM112.527 176.348H114.801V186.381H112.527V176.348ZM105.744 180.308H113.53V182.301H105.744V180.308Z" fill="white"/>
</g>
<g opacity="0.2">
<g clip-path="url(#clip0_842_933)">
<path d="M479.534 287.749V292.527M466.794 289.74V292.527C466.794 293.161 467.297 293.768 468.193 294.216C469.089 294.664 470.304 294.916 471.571 294.916C472.839 294.916 474.054 294.664 474.95 294.216C475.846 293.768 476.349 293.161 476.349 292.527V289.74M479.073 288.484C479.215 288.421 479.336 288.317 479.421 288.186C479.505 288.055 479.549 287.903 479.547 287.747C479.546 287.591 479.499 287.439 479.411 287.31C479.324 287.181 479.201 287.08 479.057 287.02L472.232 283.911C472.025 283.817 471.8 283.768 471.571 283.768C471.343 283.768 471.118 283.817 470.911 283.911L464.086 287.017C463.944 287.079 463.824 287.181 463.739 287.31C463.654 287.44 463.609 287.591 463.609 287.746C463.609 287.901 463.654 288.052 463.739 288.182C463.824 288.311 463.944 288.414 464.086 288.476L470.911 291.588C471.118 291.682 471.343 291.731 471.571 291.731C471.8 291.731 472.025 291.682 472.232 291.588L479.073 288.484Z" stroke="white" stroke-width="1.91113" stroke-linecap="round" stroke-linejoin="round"/>
</g>
<path d="M649.794 292.861L649.004 292.982V284.326H651.212V294.36H648.336L641.914 285.704L642.69 285.584V294.36H640.496V284.326H643.439L649.794 292.861Z" fill="white"/>
<path d="M633.07 294.56C631.902 294.56 630.876 294.341 629.994 293.904C629.12 293.467 628.437 292.861 627.947 292.085C627.456 291.3 627.211 290.386 627.211 289.342C627.211 288.299 627.456 287.389 627.947 286.613C628.437 285.828 629.12 285.218 629.994 284.781C630.876 284.344 631.902 284.125 633.07 284.125C634.239 284.125 635.26 284.344 636.134 284.781C637.017 285.218 637.704 285.828 638.194 286.613C638.685 287.389 638.93 288.299 638.93 289.342C638.93 290.386 638.685 291.3 638.194 292.085C637.704 292.861 637.017 293.467 636.134 293.904C635.26 294.341 634.239 294.56 633.07 294.56ZM633.07 292.54C633.802 292.54 634.431 292.41 634.957 292.152C635.492 291.893 635.902 291.523 636.188 291.041C636.482 290.56 636.629 289.993 636.629 289.342C636.629 288.691 636.482 288.125 636.188 287.643C635.902 287.162 635.492 286.792 634.957 286.533C634.431 286.274 633.802 286.145 633.07 286.145C632.348 286.145 631.719 286.274 631.184 286.533C630.649 286.792 630.234 287.162 629.94 287.643C629.655 288.125 629.512 288.691 629.512 289.342C629.512 289.993 629.655 290.56 629.94 291.041C630.234 291.523 630.649 291.893 631.184 292.152C631.719 292.41 632.348 292.54 633.07 292.54Z" fill="white"/>
<path d="M623.383 284.326H625.657V294.36H623.383V284.326Z" fill="white"/>
<path d="M615.867 285.343H618.128V294.36H615.867V285.343ZM611.867 284.326H622.115V286.333H611.867V284.326Z" fill="white"/>
<path d="M603.575 292.246V290.4H610.532V292.246H603.575ZM608.565 284.326L613.261 294.36H610.839L606.732 285.249H607.482L603.375 294.36H600.953L605.649 284.326H608.565Z" fill="white"/>
<path d="M600.946 290.279C600.848 291.126 600.549 291.875 600.05 292.526C599.559 293.168 598.908 293.668 598.097 294.025C597.294 294.381 596.375 294.56 595.341 294.56C594.199 294.56 593.196 294.341 592.331 293.904C591.474 293.467 590.806 292.861 590.324 292.085C589.842 291.3 589.602 290.386 589.602 289.342C589.602 288.299 589.842 287.389 590.324 286.613C590.806 285.828 591.474 285.218 592.331 284.781C593.196 284.344 594.199 284.125 595.341 284.125C596.375 284.125 597.294 284.303 598.097 284.66C598.908 285.017 599.559 285.516 600.05 286.158C600.549 286.801 600.848 287.55 600.946 288.406H598.658C598.569 287.933 598.377 287.527 598.083 287.189C597.789 286.841 597.41 286.573 596.946 286.386C596.482 286.199 595.943 286.105 595.327 286.105C594.623 286.105 594.012 286.239 593.495 286.506C592.986 286.765 592.594 287.139 592.317 287.63C592.041 288.112 591.903 288.682 591.903 289.342C591.903 290.002 592.041 290.578 592.317 291.068C592.594 291.55 592.986 291.924 593.495 292.192C594.012 292.451 594.623 292.58 595.327 292.58C595.943 292.58 596.482 292.491 596.946 292.312C597.41 292.125 597.789 291.862 598.083 291.523C598.377 291.175 598.569 290.76 598.658 290.279H600.946Z" fill="white"/>
<path d="M580.583 289.958C580.583 290.493 580.685 290.953 580.891 291.336C581.096 291.72 581.394 292.018 581.787 292.233C582.188 292.438 582.67 292.54 583.232 292.54C583.802 292.54 584.284 292.438 584.676 292.233C585.069 292.018 585.368 291.72 585.573 291.336C585.778 290.953 585.88 290.493 585.88 289.958V284.326H588.155V290.065C588.155 290.966 587.95 291.755 587.539 292.433C587.129 293.102 586.554 293.624 585.814 293.998C585.073 294.373 584.213 294.56 583.232 294.56C582.251 294.56 581.39 294.373 580.65 293.998C579.918 293.624 579.343 293.102 578.924 292.433C578.514 291.755 578.309 290.966 578.309 290.065V284.326H580.583V289.958Z" fill="white"/>
<path d="M571.013 284.326C572.181 284.326 573.202 284.536 574.076 284.955C574.959 285.374 575.646 285.958 576.136 286.707C576.627 287.457 576.872 288.335 576.872 289.343C576.872 290.342 576.627 291.22 576.136 291.978C575.646 292.727 574.959 293.312 574.076 293.731C573.202 294.15 572.181 294.36 571.013 294.36H566.25V284.326H571.013ZM568.511 293.463L567.36 292.353H571.186C571.864 292.353 572.457 292.228 572.966 291.978C573.483 291.729 573.88 291.376 574.156 290.921C574.433 290.467 574.571 289.94 574.571 289.343C574.571 288.736 574.433 288.21 574.156 287.764C573.88 287.309 573.483 286.957 572.966 286.707C572.457 286.458 571.864 286.333 571.186 286.333H567.36L568.511 285.222V293.463Z" fill="white"/>
<path d="M564.108 288.473V290.212H556.924V288.473H564.108ZM558.449 289.343L557.78 293.597L556.79 292.473H564.522V294.36H555.492L556.268 289.343L555.492 284.326H564.455V286.212H556.79L557.78 285.089L558.449 289.343Z" fill="white"/>
<path d="M550.248 288.473V290.212H543.064V288.473H550.248ZM544.589 289.343L543.92 293.597L542.93 292.473H550.663V294.36H541.633L542.409 289.343L541.633 284.326H550.596V286.212H542.93L543.92 285.089L544.589 289.343Z" fill="white"/>
<path d="M538.485 292.861L537.696 292.982V284.326H539.903V294.36H537.027L530.606 285.704L531.381 285.584V294.36H529.188V284.326H532.131L538.485 292.861Z" fill="white"/>
<path d="M524.863 284.326H527.138V294.36H524.863V284.326Z" fill="white"/>
<path d="M517.091 284.326V293.356L516.061 292.353H523.592V294.36H514.816V284.326H517.091Z" fill="white"/>
<path d="M511.352 292.861L510.563 292.982V284.326H512.77V294.36H509.894L503.473 285.704L504.249 285.584V294.36H502.055V284.326H504.998L511.352 292.861Z" fill="white"/>
<path d="M494.629 294.56C493.461 294.56 492.435 294.341 491.552 293.904C490.678 293.467 489.996 292.861 489.505 292.085C489.015 291.3 488.77 290.386 488.77 289.342C488.77 288.299 489.015 287.389 489.505 286.613C489.996 285.828 490.678 285.218 491.552 284.781C492.435 284.344 493.461 284.125 494.629 284.125C495.797 284.125 496.819 284.344 497.693 284.781C498.576 285.218 499.262 285.828 499.753 286.613C500.243 287.389 500.489 288.299 500.489 289.342C500.489 290.386 500.243 291.3 499.753 292.085C499.262 292.861 498.576 293.467 497.693 293.904C496.819 294.341 495.797 294.56 494.629 294.56ZM494.629 292.54C495.36 292.54 495.989 292.41 496.515 292.152C497.05 291.893 497.461 291.523 497.746 291.041C498.04 290.56 498.188 289.993 498.188 289.342C498.188 288.691 498.04 288.125 497.746 287.643C497.461 287.162 497.05 286.792 496.515 286.533C495.989 286.274 495.36 286.145 494.629 286.145C493.907 286.145 493.278 286.274 492.743 286.533C492.208 286.792 491.793 287.162 491.499 287.643C491.213 288.125 491.071 288.691 491.071 289.342C491.071 289.993 491.213 290.56 491.499 291.041C491.793 291.523 492.208 291.893 492.743 292.152C493.278 292.41 493.907 292.54 494.629 292.54Z" fill="white"/>
</g>
<g opacity="0.2">
<path d="M381.824 37.2335H391.38M390.583 40.4187C390.795 40.4187 390.997 40.3348 391.147 40.1855C391.296 40.0361 391.38 39.8336 391.38 39.6224V35.3622C391.38 34.9983 391.631 34.6901 391.959 34.5332C392.636 34.21 393.178 33.6577 393.488 32.974C393.798 32.2902 393.857 31.5189 393.654 30.7962C393.45 30.0734 392.998 29.4457 392.377 29.0237C391.756 28.6018 391.006 28.4128 390.259 28.4901C389.952 27.7752 389.441 27.1661 388.791 26.7381C388.141 26.3101 387.38 26.082 386.602 26.082C385.824 26.082 385.063 26.3101 384.412 26.7381C383.762 27.1661 383.252 27.7752 382.945 28.4901C382.198 28.4133 381.449 28.6026 380.828 29.0245C380.207 29.4464 379.756 30.0739 379.553 30.7963C379.349 31.5186 379.408 32.2896 379.717 32.9731C380.027 33.6566 380.568 34.2088 381.245 34.5324C381.573 34.6901 381.824 34.9983 381.824 35.3614V39.6224C381.824 39.8336 381.908 40.0361 382.057 40.1855C382.207 40.3348 382.409 40.4187 382.62 40.4187H390.583Z" stroke="white" stroke-width="1.91113" stroke-linecap="round" stroke-linejoin="round"/>
<path d="M590.477 34.9897H592.778C592.831 35.3286 592.978 35.6274 593.219 35.886C593.469 36.1357 593.799 36.3319 594.209 36.4746C594.628 36.6084 595.11 36.6753 595.654 36.6753C596.448 36.6753 597.072 36.5638 597.527 36.3409C597.99 36.109 598.222 35.7879 598.222 35.3777C598.222 35.0566 598.089 34.8113 597.821 34.6419C597.562 34.4635 597.076 34.3342 596.363 34.2539L594.343 34.0265C593.041 33.8838 592.095 33.5806 591.507 33.1168C590.927 32.6441 590.637 31.9886 590.637 31.1502C590.637 30.4903 590.829 29.9284 591.212 29.4646C591.605 29.0009 592.153 28.6486 592.858 28.4078C593.562 28.1581 594.392 28.0332 595.346 28.0332C596.274 28.0332 597.099 28.1714 597.821 28.4479C598.543 28.7155 599.119 29.0945 599.547 29.585C599.975 30.0666 600.207 30.633 600.242 31.284H597.941C597.897 30.9897 597.763 30.7355 597.54 30.5215C597.326 30.2985 597.027 30.1291 596.644 30.0131C596.26 29.8883 595.81 29.8258 595.293 29.8258C594.57 29.8258 593.995 29.9329 593.567 30.1469C593.139 30.361 592.925 30.6642 592.925 31.0566C592.925 31.3598 593.05 31.5962 593.299 31.7656C593.558 31.9262 594.008 32.0466 594.65 32.1268L596.751 32.381C597.678 32.4791 598.414 32.6397 598.958 32.8626C599.511 33.0767 599.904 33.3665 600.135 33.7322C600.376 34.0978 600.497 34.5616 600.497 35.1235C600.497 35.7924 600.291 36.381 599.881 36.8894C599.48 37.3888 598.914 37.7768 598.182 38.0532C597.451 38.3297 596.595 38.468 595.614 38.468C594.615 38.468 593.736 38.3253 592.978 38.0399C592.22 37.7455 591.623 37.3397 591.186 36.8225C590.749 36.2963 590.512 35.6854 590.477 34.9897Z" fill="white"/>
<path d="M579.465 34.9897H581.766C581.819 35.3286 581.967 35.6274 582.207 35.886C582.457 36.1357 582.787 36.3319 583.197 36.4746C583.616 36.6084 584.098 36.6753 584.642 36.6753C585.436 36.6753 586.06 36.5638 586.515 36.3409C586.979 36.109 587.211 35.7879 587.211 35.3777C587.211 35.0566 587.077 34.8113 586.809 34.6419C586.551 34.4635 586.065 34.3342 585.351 34.2539L583.331 34.0265C582.029 33.8838 581.084 33.5806 580.495 33.1168C579.915 32.6441 579.625 31.9886 579.625 31.1502C579.625 30.4903 579.817 29.9284 580.201 29.4646C580.593 29.0009 581.142 28.6486 581.846 28.4078C582.551 28.1581 583.38 28.0332 584.334 28.0332C585.262 28.0332 586.087 28.1714 586.809 28.4479C587.532 28.7155 588.107 29.0945 588.535 29.585C588.963 30.0666 589.195 30.633 589.231 31.284H586.93C586.885 30.9897 586.751 30.7355 586.528 30.5215C586.314 30.2985 586.016 30.1291 585.632 30.0131C585.249 29.8883 584.798 29.8258 584.281 29.8258C583.558 29.8258 582.983 29.9329 582.555 30.1469C582.127 30.361 581.913 30.6642 581.913 31.0566C581.913 31.3598 582.038 31.5962 582.288 31.7656C582.546 31.9262 582.997 32.0466 583.639 32.1268L585.739 32.381C586.667 32.4791 587.402 32.6397 587.946 32.8626C588.499 33.0767 588.892 33.3665 589.124 33.7322C589.364 34.0978 589.485 34.5616 589.485 35.1235C589.485 35.7924 589.28 36.381 588.869 36.8894C588.468 37.3888 587.902 37.7768 587.171 38.0532C586.439 38.3297 585.583 38.468 584.602 38.468C583.603 38.468 582.725 38.3253 581.967 38.0399C581.208 37.7455 580.611 37.3397 580.174 36.8225C579.737 36.2963 579.501 35.6854 579.465 34.9897Z" fill="white"/>
<path d="M577.854 32.3815V34.1206H570.67V32.3815H577.854ZM572.195 33.2511L571.526 37.5052L570.536 36.3815H578.268V38.2678H569.238L570.014 33.2511L569.238 28.2344H578.201V30.1207H570.536L571.526 28.9969L572.195 33.2511Z" fill="white"/>
<path d="M566.095 36.7695L565.305 36.8899V28.2344H567.513V38.2678H564.636L558.215 29.6123L558.991 29.4919V38.2678H556.797V28.2344H559.74L566.095 36.7695Z" fill="white"/>
<path d="M552.473 28.2344H554.747V38.2678H552.473V28.2344Z" fill="white"/>
<path d="M540.922 34.9897H543.223C543.276 35.3286 543.424 35.6274 543.664 35.886C543.914 36.1357 544.244 36.3319 544.654 36.4746C545.073 36.6084 545.555 36.6753 546.099 36.6753C546.893 36.6753 547.517 36.5638 547.972 36.3409C548.436 36.109 548.668 35.7879 548.668 35.3777C548.668 35.0566 548.534 34.8113 548.266 34.6419C548.008 34.4635 547.522 34.3342 546.808 34.2539L544.788 34.0265C543.486 33.8838 542.541 33.5806 541.952 33.1168C541.372 32.6441 541.082 31.9886 541.082 31.1502C541.082 30.4903 541.274 29.9284 541.658 29.4646C542.05 29.0009 542.599 28.6486 543.303 28.4078C544.008 28.1581 544.837 28.0332 545.791 28.0332C546.719 28.0332 547.544 28.1714 548.266 28.4479C548.989 28.7155 549.564 29.0945 549.992 29.585C550.42 30.0666 550.652 30.633 550.688 31.284H548.387C548.342 30.9897 548.208 30.7355 547.985 30.5215C547.771 30.2985 547.473 30.1291 547.089 30.0131C546.706 29.8883 546.255 29.8258 545.738 29.8258C545.016 29.8258 544.44 29.9329 544.012 30.1469C543.584 30.361 543.37 30.6642 543.37 31.0566C543.37 31.3598 543.495 31.5962 543.745 31.7656C544.003 31.9262 544.454 32.0466 545.096 32.1268L547.196 32.381C548.124 32.4791 548.859 32.6397 549.403 32.8626C549.956 33.0767 550.349 33.3665 550.581 33.7322C550.822 34.0978 550.942 34.5616 550.942 35.1235C550.942 35.7924 550.737 36.381 550.327 36.8894C549.925 37.3888 549.359 37.7768 548.628 38.0532C547.896 38.3297 547.04 38.468 546.059 38.468C545.06 38.468 544.182 38.3253 543.424 38.0399C542.665 37.7455 542.068 37.3397 541.631 36.8225C541.194 36.2963 540.958 35.6854 540.922 34.9897Z" fill="white"/>
<path d="M531.958 33.8665C531.958 34.4016 532.06 34.8609 532.266 35.2444C532.471 35.6279 532.769 35.9267 533.162 36.1407C533.563 36.3458 534.045 36.4484 534.607 36.4484C535.177 36.4484 535.659 36.3458 536.051 36.1407C536.444 35.9267 536.743 35.6279 536.948 35.2444C537.153 34.8609 537.255 34.4016 537.255 33.8665V28.2344H539.53V33.9735C539.53 34.8743 539.325 35.6636 538.914 36.3414C538.504 37.0103 537.929 37.532 537.189 37.9066C536.448 38.2812 535.588 38.4685 534.607 38.4685C533.626 38.4685 532.765 38.2812 532.025 37.9066C531.293 37.532 530.718 37.0103 530.299 36.3414C529.889 35.6636 529.684 34.8743 529.684 33.9735V28.2344H531.958V33.8665Z" fill="white"/>
<path d="M524.678 33.318L524.892 32.8631C525.668 32.881 526.31 33.0058 526.818 33.2377C527.327 33.4607 527.701 33.7684 527.942 34.1608C528.183 34.5443 528.303 34.9857 528.303 35.4852C528.303 36.0203 528.174 36.4974 527.915 36.9166C527.665 37.3358 527.295 37.6658 526.805 37.9066C526.314 38.1474 525.699 38.2678 524.959 38.2678H517.922L518.698 33.1173L517.922 28.2344H524.704C525.632 28.2344 526.35 28.4529 526.858 28.8899C527.376 29.318 527.634 29.9111 527.634 30.6691C527.634 31.0794 527.536 31.4763 527.34 31.8598C527.153 32.2433 526.84 32.5688 526.403 32.8364C525.975 33.095 525.4 33.2555 524.678 33.318ZM520.169 37.6925L519.3 36.5956H524.49C524.972 36.5956 525.342 36.4841 525.601 36.2611C525.868 36.0292 526.002 35.7082 526.002 35.2979C526.002 34.8787 525.85 34.5487 525.547 34.3079C525.244 34.0582 524.798 33.9334 524.209 33.9334H519.982V32.3013H523.942C524.343 32.3013 524.673 32.1898 524.932 31.9668C525.199 31.7349 525.333 31.4139 525.333 31.0036C525.333 30.6914 525.222 30.4328 524.999 30.2277C524.776 30.0136 524.455 29.9066 524.036 29.9066H519.3L520.169 28.8096L520.878 33.1173L520.169 37.6925Z" fill="white"/>
<path d="M507.75 29.2511H510.011V38.2678H507.75V29.2511ZM503.75 28.2344H513.997V30.2411H503.75V28.2344Z" fill="white"/>
<path d="M501.087 36.7695L500.297 36.8899V28.2344H502.505V38.2678H499.629L493.207 29.6123L493.983 29.4919V38.2678H491.789V28.2344H494.732L501.087 36.7695Z" fill="white"/>
<path d="M481.021 36.1541V34.3079H487.977V36.1541H481.021ZM486.01 28.2344L490.706 38.2678H488.285L484.178 29.1574H484.927L480.82 38.2678H478.398L483.094 28.2344H486.01Z" fill="white"/>
<path d="M470.059 32.6892H473.925C474.434 32.6892 474.835 32.5733 475.129 32.3414C475.433 32.1006 475.584 31.7706 475.584 31.3514C475.584 30.9322 475.433 30.6067 475.129 30.3748C474.835 30.143 474.434 30.027 473.925 30.027H469.725L470.755 28.8631V38.2678H468.48V28.2344H474.193C474.924 28.2344 475.566 28.3682 476.119 28.6357C476.672 28.8944 477.105 29.2556 477.417 29.7193C477.729 30.1831 477.885 30.7271 477.885 31.3514C477.885 31.9668 477.729 32.5064 477.417 32.9701C477.105 33.4339 476.672 33.7996 476.119 34.0671C475.566 34.3258 474.924 34.4551 474.193 34.4551H470.059V32.6892ZM471.798 33.5722H474.393L478.179 38.2678H475.517L471.798 33.5722Z" fill="white"/>
<path d="M458.981 33.8665C458.981 34.4016 459.084 34.8609 459.289 35.2444C459.494 35.6279 459.793 35.9267 460.185 36.1407C460.587 36.3458 461.068 36.4484 461.63 36.4484C462.201 36.4484 462.682 36.3458 463.075 36.1407C463.467 35.9267 463.766 35.6279 463.971 35.2444C464.176 34.8609 464.279 34.4016 464.279 33.8665V28.2344H466.553V33.9735C466.553 34.8743 466.348 35.6636 465.938 36.3414C465.528 37.0103 464.952 37.532 464.212 37.9066C463.472 38.2812 462.611 38.4685 461.63 38.4685C460.649 38.4685 459.788 38.2812 459.048 37.9066C458.317 37.532 457.742 37.0103 457.322 36.3414C456.912 35.6636 456.707 34.8743 456.707 33.9735V28.2344H458.981V33.8665Z" fill="white"/>
<path d="M446.661 36.1541V34.3079H453.618V36.1541H446.661ZM451.651 28.2344L456.347 38.2678H453.925L449.818 29.1574H450.567L446.46 38.2678H444.039L448.735 28.2344H451.651Z" fill="white"/>
<path d="M439.176 29.2511H441.437V38.2678H439.176V29.2511ZM435.176 28.2344H445.423V30.2411H435.176V28.2344Z" fill="white"/>
<path d="M424.809 34.9897H427.11C427.163 35.3286 427.31 35.6274 427.551 35.886C427.801 36.1357 428.131 36.3319 428.541 36.4746C428.96 36.6084 429.442 36.6753 429.986 36.6753C430.78 36.6753 431.404 36.5638 431.859 36.3409C432.323 36.109 432.554 35.7879 432.554 35.3777C432.554 35.0566 432.421 34.8113 432.153 34.6419C431.894 34.4635 431.408 34.3342 430.695 34.2539L428.675 34.0265C427.373 33.8838 426.427 33.5806 425.839 33.1168C425.259 32.6441 424.969 31.9886 424.969 31.1502C424.969 30.4903 425.161 29.9284 425.544 29.4646C425.937 29.0009 426.485 28.6486 427.19 28.4078C427.894 28.1581 428.724 28.0332 429.678 28.0332C430.606 28.0332 431.431 28.1714 432.153 28.4479C432.875 28.7155 433.451 29.0945 433.879 29.585C434.307 30.0666 434.539 30.633 434.574 31.284H432.273C432.229 30.9897 432.095 30.7355 431.872 30.5215C431.658 30.2985 431.359 30.1291 430.976 30.0131C430.592 29.8883 430.142 29.8258 429.625 29.8258C428.902 29.8258 428.327 29.9329 427.899 30.1469C427.471 30.361 427.257 30.6642 427.257 31.0566C427.257 31.3598 427.382 31.5962 427.631 31.7656C427.89 31.9262 428.34 32.0466 428.982 32.1268L431.083 32.381C432.01 32.4791 432.746 32.6397 433.29 32.8626C433.843 33.0767 434.236 33.3665 434.467 33.7322C434.708 34.0978 434.829 34.5616 434.829 35.1235C434.829 35.7924 434.623 36.381 434.213 36.8894C433.812 37.3888 433.246 37.7768 432.514 38.0532C431.783 38.3297 430.927 38.468 429.946 38.468C428.947 38.468 428.068 38.3253 427.31 38.0399C426.552 37.7455 425.955 37.3397 425.518 36.8225C425.081 36.2963 424.844 35.6854 424.809 34.9897Z" fill="white"/>
<path d="M423.197 32.3815V34.1206H416.013V32.3815H423.197ZM417.539 33.2511L416.87 37.5052L415.88 36.3815H423.612V38.2678H414.582L415.358 33.2511L414.582 28.2344H423.545V30.1207H415.88L416.87 28.9969L417.539 33.2511Z" fill="white"/>
<path d="M405.379 32.6892H409.246C409.754 32.6892 410.155 32.5733 410.45 32.3414C410.753 32.1006 410.904 31.7706 410.904 31.3514C410.904 30.9322 410.753 30.6067 410.45 30.3748C410.155 30.143 409.754 30.027 409.246 30.027H405.045L406.075 28.8631V38.2678H403.801V28.2344H409.513C410.244 28.2344 410.887 28.3682 411.44 28.6357C411.993 28.8944 412.425 29.2556 412.737 29.7193C413.049 30.1831 413.205 30.7271 413.205 31.3514C413.205 31.9668 413.049 32.5064 412.737 32.9701C412.425 33.4339 411.993 33.7996 411.44 34.0671C410.887 34.3258 410.244 34.4551 409.513 34.4551H405.379V32.6892ZM407.118 33.5722H409.714L413.5 38.2678H410.838L407.118 33.5722Z" fill="white"/>
</g>
<g opacity="0.4">
<path d="M33.1552 98.1419C34.7057 98.1419 36.1926 97.526 37.289 96.4296C38.3853 95.3333 39.0013 93.8463 39.0013 92.2958C39.0013 90.7454 38.3853 89.2584 37.289 88.1621C36.1926 87.0657 34.7057 86.4498 33.1552 86.4498M33.1552 98.1419C31.6047 98.1419 30.1178 97.526 29.0214 96.4296C27.9251 95.3333 27.3092 93.8463 27.3092 92.2958M33.1552 98.1419V99.6034M33.1552 86.4498C31.6047 86.4498 30.1178 87.0657 29.0214 88.1621C27.9251 89.2584 27.3092 90.7454 27.3092 92.2958M33.1552 86.4498V84.9883M27.3092 92.2958H25.8477M34.6167 92.2958C34.6167 92.6835 34.4627 93.0552 34.1887 93.3293C33.9146 93.6034 33.5428 93.7573 33.1552 93.7573C32.7676 93.7573 32.3959 93.6034 32.1218 93.3293C31.8477 93.0552 31.6937 92.6835 31.6937 92.2958C31.6937 91.9082 31.8477 91.5365 32.1218 91.2624C32.3959 90.9883 32.7676 90.8343 33.1552 90.8343C33.5428 90.8343 33.9146 90.9883 34.1887 91.2624C34.4627 91.5365 34.6167 91.9082 34.6167 92.2958ZM34.6167 92.2958H40.4628M36.809 98.6242L36.0782 97.36M32.4245 91.0316L29.5014 85.9675M39.4836 95.9496L38.2193 95.2189M26.8269 88.6421L28.0911 89.3728M39.4836 88.6421L38.2193 89.3728M26.8269 95.9496L28.0911 95.2189M36.809 85.9675L36.0782 87.2317M32.4245 93.56L29.5014 98.6242" stroke="white" stroke-width="2.19227" stroke-linecap="round" stroke-linejoin="round"/>
<path d="M242.582 94.2904H245.222C245.283 94.6792 245.452 95.0219 245.728 95.3186C246.014 95.605 246.393 95.8301 246.864 95.9938C247.344 96.1472 247.897 96.224 248.521 96.224C249.431 96.224 250.148 96.0961 250.669 95.8403C251.201 95.5743 251.467 95.206 251.467 94.7354C251.467 94.3671 251.314 94.0858 251.007 93.8914C250.71 93.6868 250.153 93.5385 249.334 93.4464L247.017 93.1855C245.523 93.0218 244.439 92.674 243.764 92.142C243.099 91.5998 242.766 90.8478 242.766 89.8861C242.766 89.1291 242.986 88.4845 243.426 87.9526C243.876 87.4206 244.505 87.0165 245.314 86.7402C246.122 86.4538 247.073 86.3105 248.168 86.3105C249.232 86.3105 250.178 86.4691 251.007 86.7863C251.836 87.0932 252.495 87.528 252.987 88.0907C253.478 88.6431 253.744 89.2928 253.785 90.0396H251.145C251.094 89.702 250.94 89.4104 250.685 89.1649C250.439 88.9091 250.096 88.7147 249.656 88.5817C249.217 88.4385 248.7 88.3669 248.107 88.3669C247.278 88.3669 246.618 88.4897 246.127 88.7352C245.636 88.9807 245.39 89.3286 245.39 89.7787C245.39 90.1266 245.534 90.3977 245.82 90.592C246.117 90.7762 246.633 90.9143 247.37 91.0064L249.779 91.298C250.843 91.4105 251.687 91.5946 252.311 91.8504C252.946 92.0959 253.396 92.4284 253.662 92.8479C253.938 93.2673 254.076 93.7993 254.076 94.4439C254.076 95.2112 253.841 95.8864 253.37 96.4695C252.91 97.0424 252.26 97.4875 251.421 97.8046C250.582 98.1218 249.6 98.2803 248.475 98.2803C247.329 98.2803 246.321 98.1166 245.452 97.7893C244.582 97.4516 243.897 96.9862 243.395 96.3928C242.894 95.7892 242.623 95.0884 242.582 94.2904Z" fill="white"/>
<path d="M240.734 91.2982V93.2932H232.494V91.2982H240.734ZM234.243 92.2957L233.476 97.1757L232.34 95.8867H241.21V98.0504H230.852L231.742 92.2957L230.852 86.541H241.133V88.7048H232.34L233.476 87.4157L234.243 92.2957Z" fill="white"/>
<path d="M226.262 86.541H228.871V98.0504H226.262V86.541Z" fill="white"/>
<path d="M222.283 96.3317L221.377 96.4698V86.541H223.909V98.0504H220.61L213.244 88.1216L214.134 87.9835V98.0504H211.617V86.541H214.993L222.283 96.3317Z" fill="white"/>
<path d="M199.27 95.6258V93.508H207.249V95.6258H199.27ZM204.994 86.541L210.38 98.0504H207.602L202.891 87.5999H203.751L199.039 98.0504H196.262L201.648 86.541H204.994Z" fill="white"/>
<path d="M192.823 86.541C193.734 86.541 194.522 86.6996 195.187 87.0167C195.852 87.3339 196.358 87.7789 196.706 88.3518C197.064 88.9247 197.243 89.5897 197.243 90.3468C197.243 91.1039 197.064 91.7688 196.706 92.3418C196.358 92.9044 195.852 93.3495 195.187 93.6768C194.522 93.994 193.734 94.1526 192.823 94.1526H187.744V92.0041H192.685C193.289 92.0041 193.759 91.8558 194.097 91.5591C194.445 91.2624 194.619 90.8583 194.619 90.3468C194.619 89.825 194.445 89.4209 194.097 89.1345C193.759 88.8378 193.289 88.6894 192.685 88.6894H187.974L189.156 87.4464V98.0504H186.547V86.541H192.823Z" fill="white"/>
<path d="M184.198 86.541V98.0504H181.712V87.4157L182.372 87.4618L177.461 98.0504H174.776L169.865 87.4925L170.51 87.4311V98.0504H168.039V86.541H172.044L176.679 96.7921H175.559L180.193 86.541H184.198Z" fill="white"/>
<path d="M159.522 98.2803C158.182 98.2803 157.006 98.0297 155.993 97.5284C154.99 97.0271 154.207 96.3314 153.645 95.4413C153.082 94.541 152.801 93.4924 152.801 92.2954C152.801 91.0985 153.082 90.0549 153.645 89.1649C154.207 88.2646 154.99 87.5638 155.993 87.0625C157.006 86.5612 158.182 86.3105 159.522 86.3105C160.862 86.3105 162.034 86.5612 163.036 87.0625C164.049 87.5638 164.837 88.2646 165.4 89.1649C165.962 90.0549 166.244 91.0985 166.244 92.2954C166.244 93.4924 165.962 94.541 165.4 95.4413C164.837 96.3314 164.049 97.0271 163.036 97.5284C162.034 98.0297 160.862 98.2803 159.522 98.2803ZM159.522 95.9631C160.361 95.9631 161.082 95.8148 161.686 95.5181C162.3 95.2214 162.77 94.7968 163.098 94.2444C163.435 93.6919 163.604 93.0423 163.604 92.2954C163.604 91.5486 163.435 90.899 163.098 90.3465C162.77 89.7941 162.3 89.3695 161.686 89.0728C161.082 88.7761 160.361 88.6278 159.522 88.6278C158.694 88.6278 157.972 88.7761 157.358 89.0728C156.745 89.3695 156.269 89.7941 155.931 90.3465C155.604 90.899 155.44 91.5486 155.44 92.2954C155.44 93.0423 155.604 93.6919 155.931 94.2444C156.269 94.7968 156.745 95.2214 157.358 95.5181C157.972 95.8148 158.694 95.9631 159.522 95.9631Z" fill="white"/>
<path d="M151.666 93.3696C151.553 94.3416 151.21 95.2009 150.637 95.9478C150.075 96.6844 149.328 97.2573 148.397 97.6665C147.476 98.0757 146.422 98.2803 145.236 98.2803C143.926 98.2803 142.775 98.0297 141.783 97.5284C140.801 97.0271 140.033 96.3314 139.481 95.4413C138.929 94.541 138.652 93.4924 138.652 92.2954C138.652 91.0985 138.929 90.0549 139.481 89.1649C140.033 88.2646 140.801 87.5638 141.783 87.0625C142.775 86.5612 143.926 86.3105 145.236 86.3105C146.422 86.3105 147.476 86.5152 148.397 86.9244C149.328 87.3336 150.075 87.9065 150.637 88.6431C151.21 89.3797 151.553 90.2391 151.666 91.2212H149.041C148.939 90.679 148.719 90.2135 148.382 89.8248C148.044 89.4258 147.609 89.1188 147.077 88.904C146.545 88.6892 145.926 88.5817 145.22 88.5817C144.412 88.5817 143.711 88.7352 143.118 89.0421C142.535 89.3388 142.085 89.7685 141.768 90.3312C141.45 90.8836 141.292 91.5384 141.292 92.2954C141.292 93.0525 141.45 93.7124 141.768 94.2751C142.085 94.8275 142.535 95.2572 143.118 95.5641C143.711 95.8608 144.412 96.0091 145.22 96.0091C145.926 96.0091 146.545 95.9068 147.077 95.7022C147.609 95.4874 148.044 95.1856 148.382 94.7968C148.719 94.3978 148.939 93.9221 149.041 93.3696H151.666Z" fill="white"/>
<path d="M132.82 91.2982V93.2932H124.58V91.2982H132.82ZM126.329 92.2957L125.562 97.1757L124.426 95.8867H133.296V98.0504H122.938L123.828 92.2957L122.938 86.541H133.219V88.7048H124.426L125.562 87.4157L126.329 92.2957Z" fill="white"/>
<path d="M121.634 93.3696C121.522 94.3416 121.179 95.2009 120.606 95.9478C120.044 96.6844 119.297 97.2573 118.366 97.6665C117.445 98.0757 116.391 98.2803 115.204 98.2803C113.895 98.2803 112.744 98.0297 111.752 97.5284C110.77 97.0271 110.002 96.3314 109.45 95.4413C108.897 94.541 108.621 93.4924 108.621 92.2954C108.621 91.0985 108.897 90.0549 109.45 89.1649C110.002 88.2646 110.77 87.5638 111.752 87.0625C112.744 86.5612 113.895 86.3105 115.204 86.3105C116.391 86.3105 117.445 86.5152 118.366 86.9244C119.297 87.3336 120.044 87.9065 120.606 88.6431C121.179 89.3797 121.522 90.2391 121.634 91.2212H119.01C118.908 90.679 118.688 90.2135 118.35 89.8248C118.013 89.4258 117.578 89.1188 117.046 88.904C116.514 88.6892 115.895 88.5817 115.189 88.5817C114.381 88.5817 113.68 88.7352 113.087 89.0421C112.504 89.3388 112.053 89.7685 111.736 90.3312C111.419 90.8836 111.261 91.5384 111.261 92.2954C111.261 93.0525 111.419 93.7124 111.736 94.2751C112.053 94.8275 112.504 95.2572 113.087 95.5641C113.68 95.8608 114.381 96.0091 115.189 96.0091C115.895 96.0091 116.514 95.9068 117.046 95.7022C117.578 95.4874 118.013 95.1856 118.35 94.7968C118.688 94.3978 118.908 93.9221 119.01 93.3696H121.634Z" fill="white"/>
<path d="M104.211 86.541H106.82V98.0504H104.211V86.541Z" fill="white"/>
<path d="M96.6598 96.8995H95.5089L100.205 86.541H102.967L97.5038 98.0504H94.5728L89.125 86.541H91.9179L96.6598 96.8995Z" fill="white"/>
<path d="M79.8889 91.6512H84.3239C84.907 91.6512 85.3674 91.5182 85.705 91.2522C86.0529 90.976 86.2268 90.5974 86.2268 90.1166C86.2268 89.6358 86.0529 89.2623 85.705 88.9964C85.3674 88.7304 84.907 88.5974 84.3239 88.5974H79.5053L80.6869 87.2623V98.0504H78.0781V86.541H84.6308C85.4697 86.541 86.2063 86.6945 86.8406 87.0014C87.4749 87.2981 87.9711 87.7124 88.3292 88.2444C88.6872 88.7764 88.8663 89.4005 88.8663 90.1166C88.8663 90.8225 88.6872 91.4415 88.3292 91.9735C87.9711 92.5054 87.4749 92.9249 86.8406 93.2318C86.2063 93.5285 85.4697 93.6768 84.6308 93.6768H79.8889V91.6512ZM81.8839 92.664H84.861L89.2039 98.0504H86.1501L81.8839 92.664Z" fill="white"/>
<path d="M75.6171 91.2982V93.2932H67.3764V91.2982H75.6171ZM69.1258 92.2957L68.3585 97.1757L67.2229 95.8867H76.0928V98.0504H65.7344L66.6244 92.2957L65.7344 86.541H76.0161V88.7048H67.2229L68.3585 87.4157L69.1258 92.2957Z" fill="white"/>
<path d="M52.8867 94.2904H55.5262C55.5876 94.6792 55.7564 95.0219 56.0326 95.3186C56.3191 95.605 56.6976 95.8301 57.1682 95.9938C57.6491 96.1472 58.2015 96.224 58.8256 96.224C59.7361 96.224 60.4522 96.0961 60.974 95.8403C61.506 95.5743 61.772 95.206 61.772 94.7354C61.772 94.3671 61.6185 94.0858 61.3116 93.8914C61.0149 93.6868 60.4573 93.5385 59.6389 93.4464L57.3217 93.1855C55.828 93.0218 54.7436 92.674 54.0684 92.142C53.4034 91.5998 53.0709 90.8478 53.0709 89.8861C53.0709 89.1291 53.2908 88.4845 53.7307 87.9526C54.1809 87.4206 54.8101 87.0165 55.6183 86.7402C56.4265 86.4538 57.3779 86.3105 58.4726 86.3105C59.5366 86.3105 60.4829 86.4691 61.3116 86.7863C62.1403 87.0932 62.8002 87.528 63.2912 88.0907C63.7823 88.6431 64.0483 89.2928 64.0892 90.0396H61.4497C61.3986 89.702 61.2451 89.4104 60.9893 89.1649C60.7438 88.9091 60.4011 88.7147 59.9612 88.5817C59.5212 88.4385 59.0046 88.3669 58.4112 88.3669C57.5826 88.3669 56.9227 88.4897 56.4316 88.7352C55.9405 88.9807 55.695 89.3286 55.695 89.7787C55.695 90.1266 55.8382 90.3977 56.1247 90.592C56.4214 90.7762 56.938 90.9143 57.6746 91.0064L60.0839 91.298C61.1479 91.4105 61.9919 91.5946 62.616 91.8504C63.2503 92.0959 63.7004 92.4284 63.9664 92.8479C64.2427 93.2673 64.3808 93.7993 64.3808 94.4439C64.3808 95.2112 64.1455 95.8864 63.6749 96.4695C63.2145 97.0424 62.5648 97.4875 61.7259 97.8046C60.887 98.1218 59.9049 98.2803 58.7795 98.2803C57.6337 98.2803 56.626 98.1166 55.7564 97.7893C54.8868 97.4516 54.2013 96.9862 53.7 96.3928C53.1988 95.7892 52.9276 95.0884 52.8867 94.2904Z" fill="white"/>
</g>
<g opacity="0.4">
<path d="M539.688 108.617H541.149L543.093 117.693C543.164 118.026 543.349 118.323 543.616 118.533C543.883 118.744 544.214 118.855 544.554 118.848H551.701C552.034 118.847 552.356 118.733 552.615 118.525C552.874 118.316 553.055 118.025 553.126 117.7L554.332 112.271H541.931M544.766 122.465C544.766 122.869 544.439 123.196 544.035 123.196C543.632 123.196 543.305 122.869 543.305 122.465C543.305 122.061 543.632 121.734 544.035 121.734C544.439 121.734 544.766 122.061 544.766 122.465ZM552.805 122.465C552.805 122.869 552.477 123.196 552.074 123.196C551.67 123.196 551.343 122.869 551.343 122.465C551.343 122.061 551.67 121.734 552.074 121.734C552.477 121.734 552.805 122.061 552.805 122.465Z" stroke="white" stroke-width="2.19227" stroke-linecap="round" stroke-linejoin="round"/>
<path d="M698.726 114.91V116.905H690.486V114.91H698.726ZM692.235 115.907L691.468 120.787L690.332 119.498H699.202V121.662H688.844L689.734 115.907L688.844 110.152H699.125V112.316H690.332L691.468 111.027L692.235 115.907Z" fill="white"/>
<path d="M687.541 116.981C687.428 117.953 687.085 118.812 686.512 119.559C685.95 120.296 685.203 120.869 684.272 121.278C683.351 121.687 682.297 121.892 681.111 121.892C679.801 121.892 678.65 121.641 677.658 121.14C676.676 120.638 675.908 119.943 675.356 119.053C674.804 118.152 674.527 117.104 674.527 115.907C674.527 114.71 674.804 113.666 675.356 112.776C675.908 111.876 676.676 111.175 677.658 110.674C678.65 110.173 679.801 109.922 681.111 109.922C682.297 109.922 683.351 110.126 684.272 110.536C685.203 110.945 685.95 111.518 686.512 112.254C687.085 112.991 687.428 113.85 687.541 114.833H684.916C684.814 114.29 684.594 113.825 684.257 113.436C683.919 113.037 683.484 112.73 682.952 112.515C682.42 112.3 681.801 112.193 681.095 112.193C680.287 112.193 679.586 112.347 678.993 112.653C678.41 112.95 677.96 113.38 677.643 113.942C677.325 114.495 677.167 115.15 677.167 115.907C677.167 116.664 677.325 117.324 677.643 117.886C677.96 118.439 678.41 118.869 678.993 119.175C679.586 119.472 680.287 119.62 681.095 119.62C681.801 119.62 682.42 119.518 682.952 119.314C683.484 119.099 683.919 118.797 684.257 118.408C684.594 118.009 684.814 117.533 684.916 116.981H687.541Z" fill="white"/>
<path d="M664.26 115.263H668.695C669.278 115.263 669.739 115.13 670.076 114.864C670.424 114.587 670.598 114.209 670.598 113.728C670.598 113.247 670.424 112.874 670.076 112.608C669.739 112.342 669.278 112.209 668.695 112.209H663.876L665.058 110.874V121.662H662.449V110.152H669.002C669.841 110.152 670.577 110.306 671.212 110.613C671.846 110.909 672.342 111.324 672.7 111.856C673.058 112.388 673.237 113.012 673.237 113.728C673.237 114.434 673.058 115.053 672.7 115.585C672.342 116.117 671.846 116.536 671.212 116.843C670.577 117.14 669.841 117.288 669.002 117.288H664.26V115.263ZM666.255 116.275H669.232L673.575 121.662H670.521L666.255 116.275Z" fill="white"/>
<path d="M659.988 114.91V116.905H651.747V114.91H659.988ZM653.497 115.907L652.73 120.787L651.594 119.498H660.464V121.662H650.105L650.996 115.907L650.105 110.152H660.387V112.316H651.594L652.73 111.027L653.497 115.907Z" fill="white"/>
<path d="M648.124 110.152V121.662H645.638V111.027L646.298 111.073L641.387 121.662H638.702L633.791 111.104L634.436 111.042V121.662H631.965V110.152H635.97L640.605 120.403H639.484L644.119 110.152H648.124Z" fill="white"/>
<path d="M629.616 110.152V121.662H627.13V111.027L627.79 111.073L622.879 121.662H620.194L615.283 111.104L615.928 111.042V121.662H613.457V110.152H617.462L622.097 120.403H620.977L625.611 110.152H629.616Z" fill="white"/>
<path d="M604.94 121.892C603.6 121.892 602.424 121.641 601.411 121.14C600.408 120.638 599.625 119.943 599.063 119.053C598.5 118.152 598.219 117.104 598.219 115.907C598.219 114.71 598.5 113.666 599.063 112.776C599.625 111.876 600.408 111.175 601.411 110.674C602.424 110.173 603.6 109.922 604.94 109.922C606.28 109.922 607.452 110.173 608.454 110.674C609.467 111.175 610.255 111.876 610.818 112.776C611.38 113.666 611.662 114.71 611.662 115.907C611.662 117.104 611.38 118.152 610.818 119.053C610.255 119.943 609.467 120.638 608.454 121.14C607.452 121.641 606.28 121.892 604.94 121.892ZM604.94 119.574C605.779 119.574 606.5 119.426 607.104 119.129C607.718 118.833 608.188 118.408 608.516 117.856C608.853 117.303 609.022 116.654 609.022 115.907C609.022 115.16 608.853 114.51 608.516 113.958C608.188 113.405 607.718 112.981 607.104 112.684C606.5 112.387 605.779 112.239 604.94 112.239C604.112 112.239 603.39 112.387 602.776 112.684C602.163 112.981 601.687 113.405 601.349 113.958C601.022 114.51 600.858 115.16 600.858 115.907C600.858 116.654 601.022 117.303 601.349 117.856C601.687 118.408 602.163 118.833 602.776 119.129C603.39 119.426 604.112 119.574 604.94 119.574Z" fill="white"/>
<path d="M597.084 116.981C596.971 117.953 596.628 118.812 596.055 119.559C595.493 120.296 594.746 120.869 593.815 121.278C592.894 121.687 591.84 121.892 590.654 121.892C589.344 121.892 588.193 121.641 587.201 121.14C586.219 120.638 585.451 119.943 584.899 119.053C584.347 118.152 584.07 117.104 584.07 115.907C584.07 114.71 584.347 113.666 584.899 112.776C585.451 111.876 586.219 111.175 587.201 110.674C588.193 110.173 589.344 109.922 590.654 109.922C591.84 109.922 592.894 110.126 593.815 110.536C594.746 110.945 595.493 111.518 596.055 112.254C596.628 112.991 596.971 113.85 597.084 114.833H594.459C594.357 114.29 594.137 113.825 593.8 113.436C593.462 113.037 593.027 112.73 592.495 112.515C591.963 112.3 591.344 112.193 590.638 112.193C589.83 112.193 589.129 112.347 588.536 112.653C587.953 112.95 587.503 113.38 587.186 113.942C586.868 114.495 586.71 115.15 586.71 115.907C586.71 116.664 586.868 117.324 587.186 117.886C587.503 118.439 587.953 118.869 588.536 119.175C589.129 119.472 589.83 119.62 590.638 119.62C591.344 119.62 591.963 119.518 592.495 119.314C593.027 119.099 593.462 118.797 593.8 118.408C594.137 118.009 594.357 117.533 594.459 116.981H597.084Z" fill="white"/>
<path d="M578.773 115.248H582.564V117.32H578.773V115.248Z" fill="white"/>
<path d="M576.621 114.91V116.905H568.38V114.91H576.621ZM570.13 115.907L569.362 120.787L568.227 119.498H577.097V121.662H566.738L567.628 115.907L566.738 110.152H577.02V112.316H568.227L569.362 111.027L570.13 115.907Z" fill="white"/>
</g>
<g opacity="0.4">
<path d="M312.594 231.152V223.844C312.594 223.602 312.498 223.37 312.327 223.198C312.155 223.027 311.923 222.931 311.681 222.931H308.027C307.785 222.931 307.552 223.027 307.381 223.198C307.21 223.37 307.113 223.602 307.113 223.844V231.152M301.633 221.104C301.633 220.838 301.691 220.576 301.803 220.335C301.914 220.094 302.077 219.88 302.28 219.708L308.675 214.228C309.004 213.95 309.422 213.797 309.854 213.797C310.286 213.797 310.703 213.95 311.033 214.228L317.427 219.708C317.63 219.88 317.793 220.094 317.905 220.335C318.017 220.576 318.075 220.838 318.075 221.104V229.325C318.075 229.809 317.882 230.274 317.54 230.617C317.197 230.959 316.732 231.152 316.248 231.152H303.46C302.975 231.152 302.511 230.959 302.168 230.617C301.825 230.274 301.633 229.809 301.633 229.325V221.104Z" stroke="white" stroke-width="2.19227" stroke-linecap="round" stroke-linejoin="round"/>
<path d="M543.047 224.925H545.686C545.748 225.314 545.917 225.657 546.193 225.953C546.479 226.24 546.858 226.465 547.328 226.629C547.809 226.782 548.362 226.859 548.986 226.859C549.896 226.859 550.612 226.731 551.134 226.475C551.666 226.209 551.932 225.841 551.932 225.37C551.932 225.002 551.779 224.721 551.472 224.526C551.175 224.322 550.618 224.173 549.799 224.081L547.482 223.82C545.988 223.657 544.904 223.309 544.229 222.777C543.564 222.235 543.231 221.483 543.231 220.521C543.231 219.764 543.451 219.119 543.891 218.587C544.341 218.055 544.97 217.651 545.778 217.375C546.587 217.089 547.538 216.945 548.633 216.945C549.697 216.945 550.643 217.104 551.472 217.421C552.3 217.728 552.96 218.163 553.451 218.725C553.942 219.278 554.208 219.928 554.249 220.674H551.61C551.559 220.337 551.405 220.045 551.149 219.8C550.904 219.544 550.561 219.349 550.121 219.217C549.681 219.073 549.165 219.002 548.571 219.002C547.743 219.002 547.083 219.124 546.592 219.37C546.101 219.615 545.855 219.963 545.855 220.413C545.855 220.761 545.998 221.032 546.285 221.227C546.582 221.411 547.098 221.549 547.835 221.641L550.244 221.933C551.308 222.045 552.152 222.229 552.776 222.485C553.41 222.731 553.861 223.063 554.127 223.483C554.403 223.902 554.541 224.434 554.541 225.079C554.541 225.846 554.306 226.521 553.835 227.104C553.375 227.677 552.725 228.122 551.886 228.439C551.047 228.757 550.065 228.915 548.94 228.915C547.794 228.915 546.786 228.751 545.917 228.424C545.047 228.086 544.362 227.621 543.86 227.028C543.359 226.424 543.088 225.723 543.047 224.925Z" fill="white"/>
<path d="M541.199 221.933V223.928H532.958V221.933H541.199ZM534.708 222.93L533.941 227.81L532.805 226.521H541.675V228.685H531.316L532.206 222.93L531.316 217.176H541.598V219.34H532.805L533.941 218.05L534.708 222.93Z" fill="white"/>
<path d="M526.727 217.176H529.335V228.685H526.727V217.176Z" fill="white"/>
<path d="M525.025 224.004C524.912 224.976 524.57 225.836 523.997 226.583C523.434 227.319 522.687 227.892 521.756 228.301C520.836 228.71 519.782 228.915 518.595 228.915C517.286 228.915 516.135 228.664 515.142 228.163C514.16 227.662 513.393 226.966 512.84 226.076C512.288 225.176 512.012 224.127 512.012 222.93C512.012 221.733 512.288 220.69 512.84 219.8C513.393 218.899 514.16 218.199 515.142 217.697C516.135 217.196 517.286 216.945 518.595 216.945C519.782 216.945 520.836 217.15 521.756 217.559C522.687 217.968 523.434 218.541 523.997 219.278C524.57 220.014 524.912 220.874 525.025 221.856H522.401C522.299 221.314 522.079 220.848 521.741 220.46C521.403 220.061 520.969 219.754 520.437 219.539C519.905 219.324 519.286 219.217 518.58 219.217C517.772 219.217 517.071 219.37 516.477 219.677C515.894 219.974 515.444 220.403 515.127 220.966C514.81 221.518 514.651 222.173 514.651 222.93C514.651 223.687 514.81 224.347 515.127 224.91C515.444 225.462 515.894 225.892 516.477 226.199C517.071 226.496 517.772 226.644 518.58 226.644C519.286 226.644 519.905 226.542 520.437 226.337C520.969 226.122 521.403 225.82 521.741 225.432C522.079 225.033 522.299 224.557 522.401 224.004H525.025Z" fill="white"/>
<path d="M508.587 226.966L507.682 227.105V217.176H510.214V228.685H506.915L499.549 218.756L500.439 218.618V228.685H497.922V217.176H501.298L508.587 226.966Z" fill="white"/>
<path d="M495.461 221.933V223.928H487.22V221.933H495.461ZM488.97 222.93L488.202 227.81L487.067 226.521H495.937V228.685H485.578L486.468 222.93L485.578 217.176H495.86V219.34H487.067L488.202 218.05L488.97 222.93Z" fill="white"/>
<path d="M482.938 223.697C482.928 224.393 482.79 225.058 482.524 225.692C482.268 226.317 481.9 226.874 481.419 227.365C480.938 227.846 480.345 228.225 479.639 228.501C478.933 228.777 478.115 228.915 477.184 228.915C476.283 228.915 475.439 228.782 474.651 228.516C473.874 228.24 473.188 227.846 472.595 227.334C472.012 226.823 471.557 226.199 471.229 225.462C470.902 224.715 470.738 223.871 470.738 222.93C470.738 221.989 470.902 221.15 471.229 220.413C471.567 219.667 472.032 219.037 472.626 218.526C473.219 218.014 473.915 217.626 474.713 217.36C475.511 217.083 476.38 216.945 477.322 216.945C478.549 216.945 479.613 217.14 480.514 217.528C481.414 217.907 482.14 218.434 482.693 219.109C483.255 219.784 483.603 220.557 483.736 221.426H481.112C481.01 220.956 480.785 220.552 480.437 220.214C480.099 219.876 479.664 219.615 479.132 219.431C478.611 219.247 478.007 219.155 477.322 219.155C476.513 219.155 475.813 219.303 475.219 219.6C474.636 219.887 474.181 220.311 473.853 220.874C473.536 221.437 473.378 222.122 473.378 222.93C473.378 223.738 473.547 224.429 473.884 225.002C474.222 225.575 474.703 226.015 475.327 226.322C475.951 226.618 476.687 226.767 477.536 226.767C478.365 226.767 479.092 226.639 479.716 226.383C480.34 226.117 480.831 225.749 481.189 225.278C481.557 224.797 481.767 224.229 481.818 223.575L482.938 223.697ZM477.889 224.756V222.869H483.859V228.685H481.987L481.634 224.02L482.171 224.756H477.889Z" fill="white"/>
<path d="M459.602 226.261V224.143H467.581V226.261H459.602ZM465.326 217.176L470.712 228.685H467.934L463.223 218.235H464.083L459.371 228.685H456.594L461.98 217.176H465.326Z" fill="white"/>
<path d="M451.898 221.933V223.928H443.658V221.933H451.898ZM445.407 222.93L444.64 227.81L443.504 226.521H452.374V228.685H442.016L442.906 222.93L442.016 217.176H452.297V219.34H443.504L444.64 218.05L445.407 222.93Z" fill="white"/>
<path d="M433.76 218.342H436.354V228.685H433.76V218.342ZM429.172 217.176H440.927V219.478H429.172V217.176Z" fill="white"/>
<path d="M419.664 226.261V224.143H427.644V226.261H419.664ZM425.388 217.176L430.774 228.685H427.997L423.286 218.235H424.145L419.434 228.685H416.656L422.043 217.176H425.388Z" fill="white"/>
<path d="M411.073 218.342H413.666V228.685H411.073V218.342ZM406.484 217.176H418.239V219.478H406.484V217.176Z" fill="white"/>
<path d="M394.594 224.925H397.233C397.295 225.314 397.463 225.657 397.74 225.953C398.026 226.24 398.405 226.465 398.875 226.629C399.356 226.782 399.909 226.859 400.533 226.859C401.443 226.859 402.159 226.731 402.681 226.475C403.213 226.209 403.479 225.841 403.479 225.37C403.479 225.002 403.326 224.721 403.019 224.526C402.722 224.322 402.164 224.173 401.346 224.081L399.029 223.82C397.535 223.657 396.451 223.309 395.775 222.777C395.11 222.235 394.778 221.483 394.778 220.521C394.778 219.764 394.998 219.119 395.438 218.587C395.888 218.055 396.517 217.651 397.325 217.375C398.134 217.089 399.085 216.945 400.18 216.945C401.244 216.945 402.19 217.104 403.019 217.421C403.847 217.728 404.507 218.163 404.998 218.725C405.489 219.278 405.755 219.928 405.796 220.674H403.157C403.106 220.337 402.952 220.045 402.696 219.8C402.451 219.544 402.108 219.349 401.668 219.217C401.228 219.073 400.712 219.002 400.118 219.002C399.29 219.002 398.63 219.124 398.139 219.37C397.648 219.615 397.402 219.963 397.402 220.413C397.402 220.761 397.545 221.032 397.832 221.227C398.128 221.411 398.645 221.549 399.382 221.641L401.791 221.933C402.855 222.045 403.699 222.229 404.323 222.485C404.957 222.731 405.407 223.063 405.673 223.483C405.95 223.902 406.088 224.434 406.088 225.079C406.088 225.846 405.853 226.521 405.382 227.104C404.922 227.677 404.272 228.122 403.433 228.439C402.594 228.757 401.612 228.915 400.487 228.915C399.341 228.915 398.333 228.751 397.463 228.424C396.594 228.086 395.908 227.621 395.407 227.028C394.906 226.424 394.635 225.723 394.594 224.925Z" fill="white"/>
<path d="M392.746 221.933V223.928H384.505V221.933H392.746ZM386.255 222.93L385.487 227.81L384.352 226.521H393.222V228.685H382.863L383.753 222.93L382.863 217.176H393.145V219.34H384.352L385.487 218.05L386.255 222.93Z" fill="white"/>
<path d="M370.913 217.176V227.534L369.732 226.383H378.372V228.685H368.305V217.176H370.913Z" fill="white"/>
<path d="M355.957 226.261V224.143H363.937V226.261H355.957ZM361.681 217.176L367.067 228.685H364.29L359.579 218.235H360.438L355.727 228.685H352.949L358.336 217.176H361.681Z" fill="white"/>
<path d="M351.836 221.933V223.928H343.595V221.933H351.836ZM345.345 222.93L344.577 227.81L343.442 226.521H352.312V228.685H341.953L342.843 222.93L341.953 217.176H352.235V219.34H343.442L344.577 218.05L345.345 222.93Z" fill="white"/>
<path d="M331.393 222.286H335.828C336.411 222.286 336.871 222.153 337.209 221.887C337.557 221.611 337.731 221.232 337.731 220.751C337.731 220.271 337.557 219.897 337.209 219.631C336.871 219.365 336.411 219.232 335.828 219.232H331.009L332.191 217.897V228.685H329.582V217.176H336.135C336.974 217.176 337.71 217.329 338.345 217.636C338.979 217.933 339.475 218.347 339.833 218.879C340.191 219.411 340.37 220.035 340.37 220.751C340.37 221.457 340.191 222.076 339.833 222.608C339.475 223.14 338.979 223.56 338.345 223.867C337.71 224.163 336.974 224.312 336.135 224.312H331.393V222.286ZM333.388 223.299H336.365L340.708 228.685H337.654L333.388 223.299Z" fill="white"/>
</g>
<g opacity="0.8">
<path d="M257.356 133.228L266.786 138.647M266.786 138.647L276.215 133.228M266.786 138.647V149.485M276.54 134.311C276.54 133.931 276.44 133.558 276.249 133.229C276.059 132.9 275.786 132.626 275.456 132.436L267.87 128.101C267.54 127.911 267.166 127.811 266.786 127.811C266.405 127.811 266.031 127.911 265.702 128.101L258.115 132.436C257.786 132.626 257.512 132.9 257.322 133.229C257.132 133.558 257.032 133.931 257.031 134.311V142.982C257.032 143.362 257.132 143.736 257.322 144.065C257.512 144.394 257.786 144.667 258.115 144.857L265.702 149.192C266.031 149.383 266.405 149.483 266.786 149.483C267.166 149.483 267.54 149.383 267.87 149.192L275.456 144.857C275.786 144.667 276.059 144.394 276.249 144.065C276.44 143.736 276.54 143.362 276.54 142.982V134.311Z" stroke="white" stroke-width="2.60121" stroke-linecap="round" stroke-linejoin="round"/>
<path d="M501.91 141.013H505.042C505.115 141.475 505.315 141.881 505.643 142.233C505.983 142.573 506.432 142.84 506.99 143.034C507.561 143.217 508.216 143.308 508.957 143.308C510.037 143.308 510.887 143.156 511.506 142.852C512.137 142.537 512.453 142.1 512.453 141.541C512.453 141.104 512.271 140.771 511.907 140.54C511.555 140.297 510.893 140.121 509.922 140.012L507.172 139.702C505.4 139.508 504.113 139.095 503.312 138.464C502.523 137.821 502.129 136.929 502.129 135.787C502.129 134.889 502.39 134.124 502.912 133.493C503.446 132.862 504.192 132.383 505.151 132.055C506.11 131.715 507.239 131.545 508.538 131.545C509.8 131.545 510.923 131.733 511.907 132.109C512.89 132.474 513.673 132.989 514.255 133.657C514.838 134.313 515.154 135.083 515.202 135.97H512.07C512.01 135.569 511.828 135.223 511.524 134.932C511.233 134.628 510.826 134.398 510.304 134.24C509.782 134.07 509.169 133.985 508.465 133.985C507.482 133.985 506.699 134.131 506.116 134.422C505.534 134.713 505.242 135.126 505.242 135.66C505.242 136.073 505.412 136.394 505.752 136.625C506.104 136.844 506.717 137.007 507.591 137.117L510.45 137.463C511.712 137.596 512.714 137.815 513.454 138.118C514.207 138.41 514.741 138.804 515.057 139.302C515.384 139.799 515.548 140.431 515.548 141.195C515.548 142.106 515.269 142.907 514.711 143.599C514.164 144.279 513.394 144.807 512.398 145.183C511.403 145.559 510.237 145.748 508.902 145.748C507.543 145.748 506.347 145.553 505.315 145.165C504.283 144.764 503.47 144.212 502.875 143.508C502.28 142.792 501.959 141.96 501.91 141.013Z" fill="white"/>
<path d="M499.722 137.463V139.83H489.944V137.463H499.722ZM492.02 138.647L491.11 144.437L489.762 142.907H500.287V145.475H487.996L489.052 138.647L487.996 131.818H500.196V134.386H489.762L491.11 132.856L492.02 138.647Z" fill="white"/>
<path d="M486.449 139.921C486.315 141.074 485.908 142.094 485.229 142.98C484.561 143.854 483.675 144.534 482.57 145.019C481.478 145.505 480.227 145.748 478.819 145.748C477.265 145.748 475.9 145.45 474.722 144.855C473.557 144.26 472.647 143.435 471.991 142.379C471.336 141.311 471.008 140.066 471.008 138.646C471.008 137.226 471.336 135.988 471.991 134.932C472.647 133.863 473.557 133.032 474.722 132.437C475.9 131.842 477.265 131.545 478.819 131.545C480.227 131.545 481.478 131.788 482.57 132.273C483.675 132.759 484.561 133.439 485.229 134.313C485.908 135.187 486.315 136.206 486.449 137.372H483.335C483.214 136.728 482.953 136.176 482.552 135.715C482.151 135.241 481.635 134.877 481.004 134.622C480.373 134.367 479.639 134.24 478.801 134.24C477.842 134.24 477.011 134.422 476.306 134.786C475.615 135.138 475.08 135.648 474.704 136.316C474.328 136.971 474.14 137.748 474.14 138.646C474.14 139.545 474.328 140.327 474.704 140.995C475.08 141.651 475.615 142.16 476.306 142.525C477.011 142.877 477.842 143.053 478.801 143.053C479.639 143.053 480.373 142.931 481.004 142.688C481.635 142.434 482.151 142.075 482.552 141.614C482.953 141.141 483.214 140.576 483.335 139.921H486.449Z" fill="white"/>
<path d="M465.777 131.818H468.873V145.475H465.777V131.818Z" fill="white"/>
<path d="M456.815 144.109H455.45L461.022 131.818H464.299L457.817 145.475H454.339L447.875 131.818H451.189L456.815 144.109Z" fill="white"/>
<path d="M436.914 137.882H442.176C442.868 137.882 443.415 137.724 443.815 137.408C444.228 137.081 444.434 136.631 444.434 136.061C444.434 135.49 444.228 135.047 443.815 134.732C443.415 134.416 442.868 134.258 442.176 134.258H436.459L437.861 132.674V145.475H434.766V131.818H442.541C443.536 131.818 444.41 132 445.163 132.365C445.915 132.717 446.504 133.208 446.929 133.839C447.354 134.471 447.566 135.211 447.566 136.061C447.566 136.899 447.354 137.633 446.929 138.264C446.504 138.895 445.915 139.393 445.163 139.757C444.41 140.109 443.536 140.285 442.541 140.285H436.914V137.882ZM439.281 139.084H442.814L447.967 145.475H444.343L439.281 139.084Z" fill="white"/>
<path d="M431.847 137.463V139.83H422.069V137.463H431.847ZM424.145 138.647L423.235 144.437L421.887 142.907H432.412V145.475H420.121L421.177 138.647L420.121 131.818H432.321V134.386H421.887L423.235 132.856L424.145 138.647Z" fill="white"/>
<path d="M404.875 141.013H408.007C408.08 141.475 408.28 141.881 408.608 142.233C408.948 142.573 409.397 142.84 409.955 143.034C410.526 143.217 411.181 143.308 411.922 143.308C413.002 143.308 413.852 143.156 414.471 142.852C415.102 142.537 415.418 142.1 415.418 141.541C415.418 141.104 415.236 140.771 414.871 140.54C414.519 140.297 413.858 140.121 412.887 140.012L410.137 139.702C408.365 139.508 407.078 139.095 406.277 138.464C405.488 137.821 405.093 136.929 405.093 135.787C405.093 134.889 405.354 134.124 405.876 133.493C406.411 132.862 407.157 132.383 408.116 132.055C409.075 131.715 410.204 131.545 411.503 131.545C412.765 131.545 413.888 131.733 414.871 132.109C415.855 132.474 416.638 132.989 417.22 133.657C417.803 134.313 418.119 135.083 418.167 135.97H415.035C414.975 135.569 414.793 135.223 414.489 134.932C414.198 134.628 413.791 134.398 413.269 134.24C412.747 134.07 412.134 133.985 411.43 133.985C410.447 133.985 409.664 134.131 409.081 134.422C408.498 134.713 408.207 135.126 408.207 135.66C408.207 136.073 408.377 136.394 408.717 136.625C409.069 136.844 409.682 137.007 410.556 137.117L413.415 137.463C414.677 137.596 415.679 137.815 416.419 138.118C417.172 138.41 417.706 138.804 418.022 139.302C418.349 139.799 418.513 140.431 418.513 141.195C418.513 142.106 418.234 142.907 417.676 143.599C417.129 144.279 416.358 144.807 415.363 145.183C414.368 145.559 413.202 145.748 411.867 145.748C410.507 145.748 409.312 145.553 408.28 145.165C407.248 144.764 406.435 144.212 405.84 143.508C405.245 142.792 404.924 141.96 404.875 141.013Z" fill="white"/>
<path d="M390.486 145.475V138.883H393.582V145.475H390.486ZM384.059 131.818H387.5L392.762 138.464H391.269L396.531 131.818H399.973L393.017 140.613L391.032 140.631L384.059 131.818Z" fill="white"/>
<path d="M373.344 137.882H378.606C379.298 137.882 379.844 137.724 380.245 137.408C380.658 137.081 380.864 136.631 380.864 136.061C380.864 135.49 380.658 135.047 380.245 134.732C379.844 134.416 379.298 134.258 378.606 134.258H372.889L374.291 132.674V145.475H371.195V131.818H378.97C379.966 131.818 380.84 132 381.592 132.365C382.345 132.717 382.934 133.208 383.359 133.839C383.783 134.471 383.996 135.211 383.996 136.061C383.996 136.899 383.783 137.633 383.359 138.264C382.934 138.895 382.345 139.393 381.592 139.757C380.84 140.109 379.966 140.285 378.97 140.285H373.344V137.882ZM375.711 139.084H379.243L384.396 145.475H380.773L375.711 139.084Z" fill="white"/>
<path d="M368.277 137.463V139.83H358.499V137.463H368.277ZM360.575 138.647L359.664 144.437L358.317 142.907H368.841V145.475H356.551L357.607 138.647L356.551 131.818H368.75V134.386H358.317L359.664 132.856L360.575 138.647Z" fill="white"/>
<path d="M348.026 144.109H346.661L352.232 131.818H355.51L349.028 145.475H345.55L339.086 131.818H342.4L348.026 144.109Z" fill="white"/>
<path d="M334.531 131.818H337.627V145.475H334.531V131.818Z" fill="white"/>
<path d="M323.951 131.818V144.109L322.549 142.743H332.8V145.475H320.855V131.818H323.951Z" fill="white"/>
<path d="M317.937 137.463V139.83H308.159V137.463H317.937ZM310.235 138.647L309.325 144.437L307.977 142.907H318.502V145.475H306.211L307.267 138.647L306.211 131.818H318.411V134.386H307.977L309.325 132.856L310.235 138.647Z" fill="white"/>
<path d="M296.681 131.818C298.272 131.818 299.662 132.104 300.851 132.674C302.053 133.245 302.988 134.04 303.655 135.059C304.323 136.079 304.657 137.275 304.657 138.647C304.657 140.006 304.323 141.202 303.655 142.234C302.988 143.253 302.053 144.048 300.851 144.619C299.662 145.189 298.272 145.475 296.681 145.475H290.199V131.818H296.681ZM293.276 144.255L291.711 142.743H296.918C297.841 142.743 298.648 142.573 299.34 142.234C300.044 141.894 300.584 141.414 300.96 140.795C301.337 140.176 301.525 139.46 301.525 138.647C301.525 137.821 301.337 137.105 300.96 136.498C300.584 135.879 300.044 135.399 299.34 135.059C298.648 134.72 297.841 134.55 296.918 134.55H291.711L293.276 133.038V144.255Z" fill="white"/>
</g>
<g opacity="0.8">
<path d="M178.853 6.20117V17.688M183.826 9.07287L173.879 14.8163M173.879 9.07287L183.826 14.8163" stroke="white" stroke-width="2.29736" stroke-linecap="round" stroke-linejoin="round"/>
<path d="M317.232 10.8974V12.988H308.596V10.8974H317.232ZM310.429 11.9427L309.625 17.0566L308.435 15.7058H317.73V17.9733H306.875L307.808 11.9427L306.875 5.91211H317.65V8.1796H308.435L309.625 6.82876L310.429 11.9427Z" fill="white"/>
<path d="M305.512 13.0694C305.394 14.0879 305.035 14.9884 304.435 15.7711C303.845 16.543 303.062 17.1434 302.087 17.5722C301.122 18.001 300.018 18.2155 298.774 18.2155C297.402 18.2155 296.196 17.9528 295.156 17.4275C294.126 16.9021 293.322 16.1731 292.743 15.2404C292.164 14.2969 291.875 13.198 291.875 11.9437C291.875 10.6893 292.164 9.59577 292.743 8.66304C293.322 7.71959 294.126 6.9852 295.156 6.45987C296.196 5.93454 297.402 5.67188 298.774 5.67188C300.018 5.67188 301.122 5.8863 302.087 6.31514C303.062 6.74398 303.845 7.34435 304.435 8.11627C305.035 8.88818 305.394 9.78874 305.512 10.818H302.762C302.655 10.2497 302.424 9.76194 302.071 9.35454C301.717 8.93642 301.261 8.61479 300.704 8.38965C300.146 8.16451 299.498 8.05194 298.758 8.05194C297.911 8.05194 297.177 8.21276 296.555 8.53439C295.944 8.8453 295.472 9.29558 295.14 9.88523C294.807 10.4642 294.641 11.1503 294.641 11.9437C294.641 12.737 294.807 13.4285 295.14 14.0182C295.472 14.5971 295.944 15.0474 296.555 15.369C297.177 15.6799 297.911 15.8354 298.758 15.8354C299.498 15.8354 300.146 15.7282 300.704 15.5138C301.261 15.2886 301.717 14.9724 302.071 14.565C302.424 14.1468 302.655 13.6483 302.762 13.0694H305.512Z" fill="white"/>
<path d="M288.286 16.1721L287.337 16.3169V5.91211H289.991V17.9733H286.533L278.814 7.56851L279.747 7.42377V17.9733H277.109V5.91211H280.647L288.286 16.1721Z" fill="white"/>
<path d="M264.168 15.4324V13.2131H272.53V15.4324H264.168ZM270.166 5.91211L275.811 17.9733H272.9L267.963 7.02173H268.863L263.926 17.9733H261.016L266.66 5.91211H270.166Z" fill="white"/>
<path d="M252.847 5.91211V16.7671L251.609 15.561H260.663V17.9733H250.113V5.91211H252.847Z" fill="white"/>
<path d="M247.536 10.8974V12.988H238.9V10.8974H247.536ZM240.734 11.9427L239.93 17.0566L238.74 15.7058H248.035V17.9733H237.18L238.112 11.9427L237.18 5.91211H247.954V8.1796H238.74L239.93 6.82876L240.734 11.9427Z" fill="white"/>
<path d="M234.989 10.8974V12.988H226.354V10.8974H234.989ZM228.187 11.9427L227.383 17.0566L226.193 15.7058H235.488V17.9733H224.633L225.566 11.9427L224.633 5.91211H235.407V8.1796H226.193L227.383 6.82876L228.187 11.9427Z" fill="white"/>
<path d="M213.566 11.2673H218.213C218.824 11.2673 219.307 11.1279 219.66 10.8491C220.025 10.5597 220.207 10.163 220.207 9.6591C220.207 9.15522 220.025 8.7639 219.66 8.48515C219.307 8.20641 218.824 8.06703 218.213 8.06703H213.164L214.402 6.66794V17.9733H211.668V5.91211H218.535C219.414 5.91211 220.186 6.07292 220.851 6.39456C221.515 6.70546 222.035 7.13967 222.41 7.69716C222.786 8.25465 222.973 8.90863 222.973 9.6591C222.973 10.3989 222.786 11.0475 222.41 11.605C222.035 12.1625 221.515 12.602 220.851 12.9237C220.186 13.2346 219.414 13.39 218.535 13.39H213.566V11.2673ZM215.656 12.3286H218.776L223.327 17.9733H220.127L215.656 12.3286Z" fill="white"/>
<path d="M200.846 11.026H209.562V13.3579H200.846V11.026ZM209.836 5.91211V8.26001H200.878L202.261 6.86092V17.9733H199.527V5.91211H209.836Z" fill="white"/>
</g>
<defs>
<clipPath id="clip0_842_933">
<rect width="19.1113" height="19.1113" fill="white" transform="translate(462.016 279.787)"/>
</clipPath>
</defs>
</svg>
