<svg width="703" height="300" viewBox="0 0 703 300" fill="none" xmlns="http://www.w3.org/2000/svg">
<g opacity="0.2">
<path d="M93.3476 176.268H94.6217C94.9596 176.268 95.2837 176.402 95.5226 176.641C95.7616 176.88 95.8958 177.204 95.8958 177.542V186.461C95.8958 186.799 95.7616 187.123 95.5226 187.362C95.2837 187.601 94.9596 187.735 94.6217 187.735H86.9772C86.6393 187.735 86.3152 187.601 86.0763 187.362C85.8374 187.123 85.7031 186.799 85.7031 186.461V177.542C85.7031 177.204 85.8374 176.88 86.0763 176.641C86.3152 176.402 86.6393 176.268 86.9772 176.268H88.2513M88.8883 182.639H92.7106M90.7995 184.55V180.728M88.8883 174.994H92.7106C93.0624 174.994 93.3476 175.279 93.3476 175.631V176.905C93.3476 177.257 93.0624 177.542 92.7106 177.542H88.8883C88.5365 177.542 88.2513 177.257 88.2513 176.905V175.631C88.2513 175.279 88.5365 174.994 88.8883 174.994Z" stroke="white" stroke-width="1.91113" stroke-linecap="round" stroke-linejoin="round"/>
<path d="M201.47 183.244V181.398H208.426V183.244H201.47ZM206.46 175.324L211.155 185.358H208.734L204.627 176.247H205.376L201.269 185.358H198.848L203.543 175.324H206.46Z" fill="white"/>
<path d="M187.465 175.324H189.739V185.358H187.465V175.324ZM195.492 175.324H197.766V185.358H195.492V175.324ZM188.709 179.284H196.495V181.277H188.709V179.284Z" fill="white"/>
<path d="M174.57 185.358V175.324H176.791V184.207L176.109 184.073L182.45 175.324H185.406V185.358H183.186V176.354L183.868 176.488L177.447 185.358H174.57Z" fill="white"/>
<path d="M171.426 175.324V184.073L170.663 183.351H173.178V187.404H171.051V184.97L171.84 185.358H161.285V175.324H163.559V184.073L162.837 183.351H169.927L169.165 184.073V175.324H171.426Z" fill="white"/>
<path d="M148.391 185.358V175.324H150.611V184.207L149.929 184.073L156.27 175.324H159.227V185.358H157.006V176.354L157.688 176.488L151.267 185.358H148.391Z" fill="white"/>
<path d="M133.688 187.404V183.351H135.56L136.524 183.378H143.748L144.296 183.351H146.998V187.404H144.871V185.358H135.815V187.404H133.688ZM135.841 175.324H145.246V184.635H142.985V176.287L144.002 177.304H137.059L138.009 176.568C138.062 177.014 138.098 177.456 138.116 177.893C138.133 178.33 138.142 178.74 138.142 179.124C138.142 180.212 138.058 181.135 137.888 181.893C137.719 182.642 137.465 183.213 137.126 183.605C136.787 183.989 136.368 184.18 135.868 184.18L134.932 183.391C135.306 182.963 135.583 182.361 135.761 181.585C135.948 180.8 136.042 179.824 136.042 178.655C136.042 178.138 136.024 177.598 135.988 177.037C135.953 176.475 135.904 175.904 135.841 175.324Z" fill="white"/>
<path d="M132.424 179.471V181.21H125.24V179.471H132.424ZM126.765 180.341L126.096 184.595L125.106 183.471H132.839V185.358H123.809L124.585 180.341L123.809 175.324H132.772V177.211H125.106L126.096 176.087L126.765 180.341Z" fill="white"/>
<path d="M122.083 175.324V185.358H119.916V176.087L120.491 176.127L116.21 185.358H113.869L109.588 176.154L110.15 176.1V185.358H107.996V175.324H111.488L115.528 184.261H114.551L118.591 175.324H122.083Z" fill="white"/>
</g>
<g opacity="0.2">
<path d="M456.909 287.749V292.527M444.169 289.74V292.527C444.169 293.161 444.672 293.768 445.568 294.216C446.464 294.664 447.679 294.916 448.946 294.916C450.214 294.916 451.429 294.664 452.325 294.216C453.221 293.768 453.724 293.161 453.724 292.527V289.74M456.448 288.484C456.59 288.421 456.711 288.317 456.796 288.186C456.88 288.055 456.924 287.903 456.922 287.747C456.921 287.591 456.874 287.439 456.786 287.31C456.699 287.181 456.576 287.08 456.432 287.02L449.607 283.911C449.4 283.817 449.175 283.768 448.946 283.768C448.718 283.768 448.493 283.817 448.286 283.911L441.461 287.017C441.319 287.079 441.199 287.181 441.114 287.31C441.029 287.44 440.984 287.591 440.984 287.746C440.984 287.901 441.029 288.052 441.114 288.182C441.199 288.311 441.319 288.414 441.461 288.476L448.286 291.588C448.493 291.682 448.718 291.731 448.946 291.731C449.175 291.731 449.4 291.682 449.607 291.588L456.448 288.484Z" stroke="white" stroke-width="1.91113" stroke-linecap="round" stroke-linejoin="round"/>
<path d="M673.42 289.858V291.597H666.236V289.858H673.42ZM667.761 290.728L667.092 294.982L666.102 293.858H673.835V295.744H664.805L665.581 290.728L664.805 285.711H673.768V287.597H666.102L667.092 286.473L667.761 290.728Z" fill="white"/>
<path d="M652.23 295.744V285.711H654.451V294.594L653.769 294.46L660.11 285.711H663.067V295.744H660.846V286.741L661.528 286.875L655.107 295.744H652.23Z" fill="white"/>
<path d="M639.871 285.711H642.145V295.744H639.871V285.711ZM647.898 285.711H650.172V295.744H647.898V285.711ZM641.115 289.671H648.901V291.664H641.115V289.671Z" fill="white"/>
<path d="M629.106 293.631V291.784H636.063V293.631H629.106ZM634.096 285.711L638.792 295.744H636.371L632.264 286.634H633.013L628.906 295.744H626.484L631.18 285.711H634.096Z" fill="white"/>
<path d="M622.803 290.795L623.017 290.34C623.793 290.358 624.435 290.482 624.943 290.714C625.452 290.937 625.826 291.245 626.067 291.637C626.308 292.021 626.428 292.462 626.428 292.962C626.428 293.497 626.299 293.974 626.04 294.393C625.79 294.812 625.42 295.142 624.93 295.383C624.439 295.624 623.824 295.744 623.084 295.744H616.047L616.823 290.594L616.047 285.711H622.829C623.757 285.711 624.475 285.929 624.983 286.366C625.501 286.795 625.759 287.388 625.759 288.146C625.759 288.556 625.661 288.953 625.465 289.336C625.278 289.72 624.965 290.045 624.528 290.313C624.1 290.572 623.525 290.732 622.803 290.795ZM618.294 295.169L617.425 294.072H622.615C623.097 294.072 623.467 293.961 623.726 293.738C623.993 293.506 624.127 293.185 624.127 292.774C624.127 292.355 623.976 292.025 623.672 291.784C623.369 291.535 622.923 291.41 622.334 291.41H618.107V289.778H622.067C622.468 289.778 622.798 289.666 623.057 289.443C623.324 289.211 623.458 288.89 623.458 288.48C623.458 288.168 623.347 287.909 623.124 287.704C622.901 287.49 622.58 287.383 622.161 287.383H617.425L618.294 286.286L619.003 290.594L618.294 295.169Z" fill="white"/>
<path d="M609.047 295.945C607.879 295.945 606.853 295.726 605.97 295.289C605.096 294.852 604.414 294.246 603.923 293.47C603.433 292.685 603.188 291.771 603.188 290.727C603.188 289.684 603.433 288.774 603.923 287.998C604.414 287.213 605.096 286.602 605.97 286.165C606.853 285.728 607.879 285.51 609.047 285.51C610.215 285.51 611.237 285.728 612.111 286.165C612.993 286.602 613.68 287.213 614.171 287.998C614.661 288.774 614.907 289.684 614.907 290.727C614.907 291.771 614.661 292.685 614.171 293.47C613.68 294.246 612.993 294.852 612.111 295.289C611.237 295.726 610.215 295.945 609.047 295.945ZM609.047 293.924C609.778 293.924 610.407 293.795 610.933 293.536C611.468 293.278 611.879 292.908 612.164 292.426C612.458 291.945 612.606 291.378 612.606 290.727C612.606 290.076 612.458 289.51 612.164 289.028C611.879 288.547 611.468 288.176 610.933 287.918C610.407 287.659 609.778 287.53 609.047 287.53C608.325 287.53 607.696 287.659 607.161 287.918C606.626 288.176 606.211 288.547 605.917 289.028C605.631 289.51 605.488 290.076 605.488 290.727C605.488 291.378 605.631 291.945 605.917 292.426C606.211 292.908 606.626 293.278 607.161 293.536C607.696 293.795 608.325 293.924 609.047 293.924Z" fill="white"/>
<path d="M597.142 295.945C596.107 295.945 595.206 295.802 594.439 295.516C593.672 295.222 593.075 294.807 592.647 294.272C592.218 293.737 591.982 293.108 591.938 292.386H594.212C594.292 292.966 594.577 293.412 595.068 293.724C595.567 294.027 596.259 294.179 597.142 294.179C597.98 294.179 598.626 294.058 599.081 293.817C599.545 293.568 599.777 293.198 599.777 292.707C599.777 292.288 599.581 291.98 599.188 291.784C598.805 291.579 598.185 291.476 597.329 291.476H595.402V289.938H597.289C597.797 289.938 598.216 289.884 598.546 289.777C598.876 289.67 599.121 289.519 599.282 289.322C599.442 289.117 599.523 288.89 599.523 288.64C599.523 288.346 599.425 288.101 599.228 287.904C599.041 287.699 598.769 287.543 598.412 287.436C598.065 287.329 597.645 287.276 597.155 287.276C596.352 287.276 595.715 287.427 595.242 287.73C594.769 288.025 594.493 288.435 594.412 288.961H592.152C592.205 288.319 592.432 287.739 592.834 287.222C593.244 286.696 593.824 286.281 594.573 285.978C595.322 285.666 596.218 285.51 597.262 285.51C598.189 285.51 598.992 285.63 599.67 285.871C600.357 286.103 600.887 286.428 601.262 286.848C601.645 287.267 601.837 287.753 601.837 288.306C601.837 288.761 601.699 289.18 601.422 289.563C601.155 289.947 600.736 290.25 600.165 290.473C599.603 290.696 598.876 290.803 597.984 290.794V290.54C598.84 290.495 599.572 290.558 600.178 290.727C600.794 290.897 601.266 291.16 601.596 291.516C601.935 291.864 602.105 292.315 602.105 292.868C602.105 293.474 601.908 294.009 601.516 294.473C601.133 294.937 600.571 295.298 599.83 295.557C599.09 295.815 598.194 295.945 597.142 295.945Z" fill="white"/>
<path d="M582.298 293.631V291.784H589.254V293.631H582.298ZM587.288 285.711L591.983 295.744H589.562L585.455 286.634H586.204L582.097 295.744H579.676L584.371 285.711H587.288Z" fill="white"/>
<path d="M576.679 285.711C577.472 285.711 578.159 285.849 578.739 286.126C579.318 286.402 579.76 286.79 580.063 287.29C580.375 287.789 580.531 288.369 580.531 289.029C580.531 289.689 580.375 290.268 580.063 290.768C579.76 291.258 579.318 291.646 578.739 291.932C578.159 292.208 577.472 292.346 576.679 292.346H572.251V290.473H576.558C577.084 290.473 577.495 290.344 577.789 290.086C578.092 289.827 578.244 289.475 578.244 289.029C578.244 288.574 578.092 288.222 577.789 287.972C577.495 287.713 577.084 287.584 576.558 287.584H572.451L573.481 286.5V295.744H571.207V285.711H576.679Z" fill="white"/>
<path d="M561.596 289.631H566.145C566.947 289.631 567.616 289.76 568.151 290.019C568.687 290.268 569.088 290.625 569.355 291.089C569.623 291.544 569.757 292.079 569.757 292.694C569.757 293.31 569.61 293.845 569.315 294.3C569.03 294.754 568.615 295.111 568.071 295.37C567.536 295.619 566.894 295.744 566.145 295.744H559.844L560.62 290.487L559.844 285.711H568.954V287.504H561.248L562.118 286.407L562.787 290.447L562.078 295.102L561.208 294.032H565.891C566.381 294.032 566.769 293.907 567.054 293.657C567.349 293.408 567.496 293.069 567.496 292.641C567.496 292.213 567.349 291.874 567.054 291.624C566.76 291.374 566.368 291.249 565.877 291.249H561.596V289.631Z" fill="white"/>
<path d="M552.844 295.945C551.676 295.945 550.65 295.726 549.767 295.289C548.893 294.852 548.211 294.246 547.72 293.47C547.23 292.685 546.984 291.771 546.984 290.727C546.984 289.684 547.23 288.774 547.72 287.998C548.211 287.213 548.893 286.602 549.767 286.165C550.65 285.728 551.676 285.51 552.844 285.51C554.012 285.51 555.033 285.728 555.907 286.165C556.79 286.602 557.477 287.213 557.968 287.998C558.458 288.774 558.703 289.684 558.703 290.727C558.703 291.771 558.458 292.685 557.968 293.47C557.477 294.246 556.79 294.852 555.907 295.289C555.033 295.726 554.012 295.945 552.844 295.945ZM552.844 293.924C553.575 293.924 554.204 293.795 554.73 293.536C555.265 293.278 555.676 292.908 555.961 292.426C556.255 291.945 556.402 291.378 556.402 290.727C556.402 290.076 556.255 289.51 555.961 289.028C555.676 288.547 555.265 288.176 554.73 287.918C554.204 287.659 553.575 287.53 552.844 287.53C552.121 287.53 551.493 287.659 550.958 287.918C550.422 288.176 550.008 288.547 549.713 289.028C549.428 289.51 549.285 290.076 549.285 290.727C549.285 291.378 549.428 291.945 549.713 292.426C550.008 292.908 550.422 293.278 550.958 293.536C551.493 293.795 552.121 293.924 552.844 293.924Z" fill="white"/>
<path d="M542.379 290.152H545.683V291.958H542.379V290.152Z" fill="white"/>
<path d="M530.289 285.711H532.563V295.744H530.289V285.711ZM538.316 285.711H540.59V295.744H538.316V285.711ZM531.533 289.671H539.319V291.664H531.533V289.671Z" fill="white"/>
<path d="M517.395 295.744V285.71H519.615V294.593L518.933 294.459L525.274 285.71H528.231V295.744H526.01V286.74L526.692 286.874L520.271 295.744H517.395ZM519.589 282.74H521.395C521.502 283.052 521.667 283.293 521.889 283.463C522.121 283.632 522.411 283.717 522.759 283.717C523.107 283.717 523.392 283.632 523.615 283.463C523.847 283.293 524.012 283.052 524.11 282.74H525.93C525.751 283.525 525.381 284.1 524.819 284.466C524.257 284.832 523.571 285.014 522.759 285.014C521.947 285.014 521.261 284.832 520.699 284.466C520.137 284.1 519.767 283.525 519.589 282.74Z" fill="white"/>
<path d="M506.63 293.631V291.784H513.586V293.631H506.63ZM511.62 285.711L516.315 295.744H513.894L509.787 286.634H510.536L506.429 295.744H504.008L508.703 285.711H511.62Z" fill="white"/>
<path d="M493.473 285.711H502.918V295.744H500.657V286.688L501.674 287.718H494.731L495.694 286.968C495.765 287.62 495.814 288.244 495.841 288.841C495.877 289.439 495.895 290.001 495.895 290.527C495.895 291.793 495.783 292.824 495.56 293.617C495.337 294.411 494.989 294.995 494.517 295.37C494.044 295.744 493.424 295.932 492.657 295.932C492.354 295.932 492.051 295.896 491.747 295.825C491.444 295.762 491.168 295.669 490.918 295.544V293.644C491.301 293.796 491.658 293.871 491.988 293.871C492.613 293.871 493.063 293.586 493.339 293.015C493.616 292.436 493.754 291.495 493.754 290.193C493.754 289.604 493.732 288.935 493.687 288.186C493.643 287.437 493.571 286.612 493.473 285.711Z" fill="white"/>
<path d="M479.43 285.711H481.704V295.744H479.43V285.711ZM487.456 285.711H489.731V295.744H487.456V285.711ZM480.674 289.671H488.46V291.664H480.674V289.671Z" fill="white"/>
<path d="M472.004 295.945C470.836 295.945 469.81 295.726 468.927 295.289C468.053 294.852 467.371 294.246 466.88 293.47C466.39 292.685 466.145 291.771 466.145 290.727C466.145 289.684 466.39 288.774 466.88 287.998C467.371 287.213 468.053 286.602 468.927 286.165C469.81 285.728 470.836 285.51 472.004 285.51C473.172 285.51 474.194 285.728 475.068 286.165C475.951 286.602 476.637 287.213 477.128 287.998C477.618 288.774 477.864 289.684 477.864 290.727C477.864 291.771 477.618 292.685 477.128 293.47C476.637 294.246 475.951 294.852 475.068 295.289C474.194 295.726 473.172 295.945 472.004 295.945ZM472.004 293.924C472.735 293.924 473.364 293.795 473.89 293.536C474.425 293.278 474.836 292.908 475.121 292.426C475.415 291.945 475.563 291.378 475.563 290.727C475.563 290.076 475.415 289.51 475.121 289.028C474.836 288.547 474.425 288.176 473.89 287.918C473.364 287.659 472.735 287.53 472.004 287.53C471.282 287.53 470.653 287.659 470.118 287.918C469.583 288.176 469.168 288.547 468.874 289.028C468.588 289.51 468.446 290.076 468.446 290.727C468.446 291.378 468.588 291.945 468.874 292.426C469.168 292.908 469.583 293.278 470.118 293.536C470.653 293.795 471.282 293.924 472.004 293.924Z" fill="white"/>
</g>
<g opacity="0.2">
<path d="M379.234 37.2335H388.79M387.994 40.4187C388.205 40.4187 388.407 40.3348 388.557 40.1855C388.706 40.0361 388.79 39.8336 388.79 39.6224V35.3622C388.79 34.9983 389.042 34.6901 389.369 34.5332C390.047 34.21 390.588 33.6577 390.898 32.974C391.208 32.2902 391.267 31.5189 391.064 30.7962C390.86 30.0734 390.408 29.4457 389.787 29.0237C389.166 28.6018 388.416 28.4128 387.67 28.4901C387.362 27.7752 386.852 27.1661 386.202 26.7381C385.552 26.3101 384.79 26.082 384.012 26.082C383.234 26.082 382.473 26.3101 381.823 26.7381C381.173 27.1661 380.662 27.7752 380.355 28.4901C379.608 28.4133 378.859 28.6026 378.238 29.0245C377.618 29.4464 377.166 30.0739 376.963 30.7963C376.76 31.5186 376.818 32.2896 377.128 32.9731C377.437 33.6566 377.978 34.2088 378.655 34.5324C378.983 34.6901 379.234 34.9983 379.234 35.3614V39.6224C379.234 39.8336 379.318 40.0361 379.468 40.1855C379.617 40.3348 379.819 40.4187 380.031 40.4187H387.994Z" stroke="white" stroke-width="1.91113" stroke-linecap="round" stroke-linejoin="round"/>
<path d="M603.087 35.5718C602.989 36.4191 602.69 37.1682 602.19 37.8193C601.7 38.4614 601.049 38.9609 600.237 39.3176C599.434 39.6743 598.516 39.8527 597.481 39.8527C596.34 39.8527 595.336 39.6342 594.471 39.1972C593.615 38.7602 592.946 38.1537 592.465 37.3778C591.983 36.593 591.742 35.6788 591.742 34.6353C591.742 33.5919 591.983 32.6822 592.465 31.9063C592.946 31.1214 593.615 30.5105 594.471 30.0735C595.336 29.6365 596.34 29.418 597.481 29.418C598.516 29.418 599.434 29.5963 600.237 29.9531C601.049 30.3098 601.7 30.8093 602.19 31.4514C602.69 32.0935 602.989 32.8427 603.087 33.6989H600.799C600.71 33.2262 600.518 32.8204 600.224 32.4815C599.929 32.1337 599.55 31.8661 599.087 31.6788C598.623 31.4915 598.083 31.3979 597.468 31.3979C596.763 31.3979 596.152 31.5317 595.635 31.7992C595.127 32.0579 594.734 32.4325 594.458 32.923C594.181 33.4046 594.043 33.9754 594.043 34.6353C594.043 35.2953 594.181 35.8706 594.458 36.3611C594.734 36.8427 595.127 37.2173 595.635 37.4848C596.152 37.7435 596.763 37.8728 597.468 37.8728C598.083 37.8728 598.623 37.7836 599.087 37.6052C599.55 37.4179 599.929 37.1548 600.224 36.8159C600.518 36.4681 600.71 36.0534 600.799 35.5718H603.087Z" fill="white"/>
<path d="M590.236 33.7663V35.5054H583.053V33.7663H590.236ZM584.578 34.6358L583.909 38.89L582.919 37.7663H590.651V39.6526H581.621L582.397 34.6358L581.621 29.6191H590.584V31.5054H582.919L583.909 30.3817L584.578 34.6358Z" fill="white"/>
<path d="M569.582 29.6191H571.856V39.6526H569.582V29.6191ZM577.609 29.6191H579.883V39.6526H577.609V29.6191ZM570.826 33.579H578.612V35.5723H570.826V33.579Z" fill="white"/>
<path d="M563.013 39.8527C561.978 39.8527 561.077 39.71 560.31 39.4246C559.543 39.1303 558.946 38.7156 558.518 38.1805C558.09 37.6454 557.853 37.0166 557.809 36.2942H560.083C560.163 36.8739 560.449 37.3198 560.939 37.632C561.438 37.9352 562.13 38.0868 563.013 38.0868C563.851 38.0868 564.498 37.9664 564.952 37.7256C565.416 37.4759 565.648 37.1058 565.648 36.6153C565.648 36.1961 565.452 35.8884 565.059 35.6922C564.676 35.4871 564.056 35.3845 563.2 35.3845H561.273V33.846H563.16C563.668 33.846 564.087 33.7925 564.417 33.6855C564.747 33.5785 564.993 33.4269 565.153 33.2307C565.314 33.0255 565.394 32.7981 565.394 32.5484C565.394 32.2541 565.296 32.0088 565.1 31.8126C564.912 31.6075 564.64 31.4514 564.283 31.3444C563.936 31.2374 563.516 31.1838 563.026 31.1838C562.223 31.1838 561.586 31.3355 561.113 31.6387C560.64 31.933 560.364 32.3433 560.284 32.8695H558.023C558.076 32.2273 558.304 31.6476 558.705 31.1303C559.115 30.6041 559.695 30.1894 560.444 29.8862C561.193 29.574 562.09 29.418 563.133 29.418C564.061 29.418 564.863 29.5384 565.541 29.7792C566.228 30.0111 566.758 30.3366 567.133 30.7558C567.516 31.1749 567.708 31.661 567.708 32.2139C567.708 32.6688 567.57 33.088 567.294 33.4715C567.026 33.855 566.607 34.1582 566.036 34.3812C565.474 34.6041 564.747 34.7112 563.855 34.7022V34.4481C564.712 34.4035 565.443 34.4659 566.049 34.6353C566.665 34.8048 567.137 35.0679 567.467 35.4246C567.806 35.7725 567.976 36.2229 567.976 36.7758C567.976 37.3823 567.78 37.9174 567.387 38.3811C567.004 38.8449 566.442 39.2061 565.702 39.4648C564.961 39.7234 564.065 39.8527 563.013 39.8527Z" fill="white"/>
<path d="M545.598 39.6526V29.6191H547.818V38.5021L547.136 38.3683L553.477 29.6191H556.434V39.6526H554.213V30.6492L554.895 30.783L548.474 39.6526H545.598Z" fill="white"/>
<path d="M535.987 33.5389H540.535C541.338 33.5389 542.007 33.6682 542.542 33.9268C543.077 34.1765 543.478 34.5333 543.746 34.997C544.014 35.4519 544.147 35.987 544.147 36.6024C544.147 37.2178 544 37.7529 543.706 38.2077C543.421 38.6626 543.006 39.0193 542.462 39.278C541.927 39.5277 541.285 39.6526 540.535 39.6526H534.234L535.01 34.395L534.234 29.6191H543.345V31.4118H535.639L536.509 30.3148L537.178 34.3549L536.468 39.0104L535.599 37.9402H540.281C540.772 37.9402 541.16 37.8153 541.445 37.5656C541.739 37.3159 541.887 36.977 541.887 36.5489C541.887 36.1208 541.739 35.7819 541.445 35.5322C541.151 35.2824 540.758 35.1576 540.268 35.1576H535.987V33.5389Z" fill="white"/>
<path d="M518.238 39.6517V29.6183H520.459V38.5012L519.777 38.3675L526.118 29.6183H529.074V39.6517H526.854V30.6484L527.536 30.7822L521.115 39.6517H518.238ZM520.432 26.6484H522.238C522.345 26.9606 522.51 27.2014 522.733 27.3708C522.965 27.5403 523.255 27.625 523.603 27.625C523.951 27.625 524.236 27.5403 524.459 27.3708C524.691 27.2014 524.856 26.9606 524.954 26.6484H526.773C526.595 27.4333 526.225 28.0085 525.663 28.3742C525.101 28.7398 524.414 28.9227 523.603 28.9227C522.791 28.9227 522.104 28.7398 521.543 28.3742C520.981 28.0085 520.611 27.4333 520.432 26.6484Z" fill="white"/>
<path d="M503.633 39.6526V29.6191H505.907V38.8633L504.877 37.8465H508.944C509.47 37.8465 509.885 37.7128 510.188 37.4452C510.5 37.1687 510.656 36.7986 510.656 36.3348C510.656 35.8711 510.5 35.5054 510.188 35.2379C509.885 34.9614 509.47 34.8231 508.944 34.8231H504.676V33.0171H509.064C509.867 33.0171 510.558 33.1554 511.138 33.4318C511.718 33.7083 512.163 34.0963 512.476 34.5957C512.797 35.0952 512.957 35.6749 512.957 36.3348C512.957 36.9948 512.797 37.5745 512.476 38.074C512.163 38.5734 511.718 38.9614 511.138 39.2378C510.558 39.5143 509.867 39.6526 509.064 39.6526H503.633ZM513.92 29.6191H516.195V39.6526H513.92V29.6191Z" fill="white"/>
<path d="M491.273 29.6191H493.548V39.6526H491.273V29.6191ZM499.3 29.6191H501.574V39.6526H499.3V29.6191ZM492.518 33.579H500.304V35.5723H492.518V33.579Z" fill="white"/>
<path d="M478.918 29.6191H481.192V39.6526H478.918V29.6191ZM486.945 29.6191H489.219V39.6526H486.945V29.6191ZM480.162 33.579H487.948V35.5723H480.162V33.579Z" fill="white"/>
<path d="M468.149 37.5388V35.6927H475.106V37.5388H468.149ZM473.139 29.6191L477.835 39.6526H475.414L471.307 30.5422H472.056L467.949 39.6526H465.527L470.223 29.6191H473.139Z" fill="white"/>
<path d="M462.53 29.6191C463.324 29.6191 464.011 29.7574 464.59 30.0339C465.17 30.3103 465.612 30.6983 465.915 31.1977C466.227 31.6972 466.383 32.2769 466.383 32.9369C466.383 33.5968 466.227 34.1765 465.915 34.676C465.612 35.1665 465.17 35.5545 464.59 35.8399C464.011 36.1163 463.324 36.2546 462.53 36.2546H458.102V34.3817H462.41C462.936 34.3817 463.346 34.2523 463.641 33.9937C463.944 33.7351 464.095 33.3828 464.095 32.9369C464.095 32.482 463.944 32.1297 463.641 31.88C463.346 31.6214 462.936 31.492 462.41 31.492H458.303L459.333 30.4084V39.6526H457.059V29.6191H462.53Z" fill="white"/>
<path d="M449.633 39.8527C448.465 39.8527 447.439 39.6342 446.556 39.1972C445.682 38.7602 445 38.1537 444.509 37.3778C444.019 36.593 443.773 35.6788 443.773 34.6353C443.773 33.5919 444.019 32.6822 444.509 31.9063C445 31.1214 445.682 30.5105 446.556 30.0735C447.439 29.6365 448.465 29.418 449.633 29.418C450.801 29.418 451.822 29.6365 452.696 30.0735C453.579 30.5105 454.266 31.1214 454.757 31.9063C455.247 32.6822 455.492 33.5919 455.492 34.6353C455.492 35.6788 455.247 36.593 454.757 37.3778C454.266 38.1537 453.579 38.7602 452.696 39.1972C451.822 39.6342 450.801 39.8527 449.633 39.8527ZM449.633 37.8327C450.364 37.8327 450.993 37.7033 451.519 37.4447C452.054 37.1861 452.465 36.8159 452.75 36.3343C453.044 35.8527 453.191 35.2864 453.191 34.6353C453.191 33.9843 453.044 33.418 452.75 32.9364C452.465 32.4547 452.054 32.0846 451.519 31.826C450.993 31.5673 450.364 31.438 449.633 31.438C448.911 31.438 448.282 31.5673 447.747 31.826C447.212 32.0846 446.797 32.4547 446.503 32.9364C446.217 33.418 446.074 33.9843 446.074 34.6353C446.074 35.2864 446.217 35.8527 446.503 36.3343C446.797 36.8159 447.212 37.1861 447.747 37.4447C448.282 37.7033 448.911 37.8327 449.633 37.8327Z" fill="white"/>
<path d="M437.223 30.6359H439.484V39.6526H437.223V30.6359ZM433.223 29.6191H443.47V31.6258H433.223V29.6191Z" fill="white"/>
<path d="M432.977 35.5718C432.879 36.4191 432.58 37.1682 432.081 37.8193C431.59 38.4614 430.939 38.9609 430.128 39.3176C429.325 39.6743 428.406 39.8527 427.372 39.8527C426.23 39.8527 425.227 39.6342 424.362 39.1972C423.506 38.7602 422.837 38.1537 422.355 37.3778C421.874 36.593 421.633 35.6788 421.633 34.6353C421.633 33.5919 421.874 32.6822 422.355 31.9063C422.837 31.1214 423.506 30.5105 424.362 30.0735C425.227 29.6365 426.23 29.418 427.372 29.418C428.406 29.418 429.325 29.5963 430.128 29.9531C430.939 30.3098 431.59 30.8093 432.081 31.4514C432.58 32.0935 432.879 32.8427 432.977 33.6989H430.69C430.6 33.2262 430.409 32.8204 430.114 32.4815C429.82 32.1337 429.441 31.8661 428.977 31.6788C428.514 31.4915 427.974 31.3979 427.359 31.3979C426.654 31.3979 426.043 31.5317 425.526 31.7992C425.017 32.0579 424.625 32.4325 424.349 32.923C424.072 33.4046 423.934 33.9754 423.934 34.6353C423.934 35.2953 424.072 35.8706 424.349 36.3611C424.625 36.8427 425.017 37.2173 425.526 37.4848C426.043 37.7435 426.654 37.8728 427.359 37.8728C427.974 37.8728 428.514 37.7836 428.977 37.6052C429.441 37.4179 429.82 37.1548 430.114 36.8159C430.409 36.4681 430.6 36.0534 430.69 35.5718H432.977Z" fill="white"/>
<path d="M420.127 33.7663V35.5054H412.943V33.7663H420.127ZM414.468 34.6358L413.799 38.89L412.809 37.7663H420.542V39.6526H411.512L412.288 34.6358L411.512 29.6191H420.475V31.5054H412.809L413.799 30.3817L414.468 34.6358Z" fill="white"/>
<path d="M406.682 29.6191C407.476 29.6191 408.163 29.7574 408.743 30.0339C409.322 30.3103 409.764 30.6983 410.067 31.1977C410.379 31.6972 410.535 32.2769 410.535 32.9369C410.535 33.5968 410.379 34.1765 410.067 34.676C409.764 35.1665 409.322 35.5545 408.743 35.8399C408.163 36.1163 407.476 36.2546 406.682 36.2546H402.254V34.3817H406.562C407.088 34.3817 407.499 34.2523 407.793 33.9937C408.096 33.7351 408.248 33.3828 408.248 32.9369C408.248 32.482 408.096 32.1297 407.793 31.88C407.499 31.6214 407.088 31.492 406.562 31.492H402.455L403.485 30.4084V39.6526H401.211V29.6191H406.682Z" fill="white"/>
</g>
<g opacity="0.4">
<path d="M12.163 98.1419C13.7135 98.1419 15.2005 97.526 16.2968 96.4296C17.3931 95.3333 18.0091 93.8463 18.0091 92.2958C18.0091 90.7454 17.3931 89.2584 16.2968 88.1621C15.2005 87.0657 13.7135 86.4498 12.163 86.4498M12.163 98.1419C10.6126 98.1419 9.12559 97.526 8.02925 96.4296C6.9329 95.3333 6.31698 93.8463 6.31698 92.2958M12.163 98.1419V99.6034M12.163 86.4498C10.6126 86.4498 9.12559 87.0657 8.02925 88.1621C6.9329 89.2584 6.31698 90.7454 6.31698 92.2958M12.163 86.4498V84.9883M6.31698 92.2958H4.85547M13.6245 92.2958C13.6245 92.6835 13.4706 93.0552 13.1965 93.3293C12.9224 93.6034 12.5506 93.7573 12.163 93.7573C11.7754 93.7573 11.4037 93.6034 11.1296 93.3293C10.8555 93.0552 10.7015 92.6835 10.7015 92.2958C10.7015 91.9082 10.8555 91.5365 11.1296 91.2624C11.4037 90.9883 11.7754 90.8343 12.163 90.8343C12.5506 90.8343 12.9224 90.9883 13.1965 91.2624C13.4706 91.5365 13.6245 91.9082 13.6245 92.2958ZM13.6245 92.2958H19.4706M15.8168 98.6242L15.086 97.36M11.4323 91.0316L8.50925 85.9675M18.4914 95.9496L17.2272 95.2189M5.83468 88.6421L7.09889 89.3728M18.4914 88.6421L17.2272 89.3728M5.83468 95.9496L7.09889 95.2189M15.8168 85.9675L15.086 87.2317M11.4323 93.56L8.50925 98.6242" stroke="white" stroke-width="2.19227" stroke-linecap="round" stroke-linejoin="round"/>
<path d="M262.637 98.0504V86.541H265.184V96.7307L264.402 96.5772L271.675 86.541H275.067V98.0504H272.519V87.7226L273.302 87.8761L265.936 98.0504H262.637Z" fill="white"/>
<path d="M247.844 98.0504V86.541H250.391V96.7307L249.609 96.5772L256.882 86.541H260.274V98.0504H257.727V87.7226L258.509 87.8761L251.143 98.0504H247.844Z" fill="white"/>
<path d="M233.668 86.541H236.277V98.0504H233.668V86.541ZM242.876 86.541H245.484V98.0504H242.876V86.541ZM235.095 91.0834H244.026V93.3699H235.095V91.0834Z" fill="white"/>
<path d="M221.32 95.6258V93.508H229.3V95.6258H221.32ZM227.044 86.541L232.431 98.0504H229.653L224.942 87.5999H225.801L221.09 98.0504H218.312L223.699 86.541H227.044Z" fill="white"/>
<path d="M217.067 86.541V98.0504H214.474V87.6613L215.656 88.8429H206.74L207.921 87.6613V98.0504H205.312V86.541H217.067Z" fill="white"/>
<path d="M202.964 86.541V98.0504H200.478V87.4157L201.138 87.4618L196.227 98.0504H193.542L188.631 87.4925L189.275 87.4311V98.0504H186.805V86.541H190.81L195.444 96.7921H194.324L198.959 86.541H202.964Z" fill="white"/>
<path d="M178.288 98.2803C176.948 98.2803 175.771 98.0297 174.758 97.5284C173.756 97.0271 172.973 96.3314 172.41 95.4413C171.848 94.541 171.566 93.4924 171.566 92.2954C171.566 91.0985 171.848 90.0549 172.41 89.1649C172.973 88.2646 173.756 87.5638 174.758 87.0625C175.771 86.5612 176.948 86.3105 178.288 86.3105C179.628 86.3105 180.8 86.5612 181.802 87.0625C182.815 87.5638 183.603 88.2646 184.165 89.1649C184.728 90.0549 185.009 91.0985 185.009 92.2954C185.009 93.4924 184.728 94.541 184.165 95.4413C183.603 96.3314 182.815 97.0271 181.802 97.5284C180.8 98.0297 179.628 98.2803 178.288 98.2803ZM178.288 95.9631C179.127 95.9631 179.848 95.8148 180.452 95.5181C181.065 95.2214 181.536 94.7968 181.863 94.2444C182.201 93.6919 182.37 93.0423 182.37 92.2954C182.37 91.5486 182.201 90.899 181.863 90.3465C181.536 89.7941 181.065 89.3695 180.452 89.0728C179.848 88.7761 179.127 88.6278 178.288 88.6278C177.459 88.6278 176.738 88.7761 176.124 89.0728C175.51 89.3695 175.035 89.7941 174.697 90.3465C174.37 90.899 174.206 91.5486 174.206 92.2954C174.206 93.0423 174.37 93.6919 174.697 94.2444C175.035 94.7968 175.51 95.2214 176.124 95.5181C176.738 95.8148 177.459 95.9631 178.288 95.9631Z" fill="white"/>
<path d="M159.801 98.0504V86.541H162.394V95.9327L161.658 95.4109L168.778 86.541H171.556L162.149 98.0504H159.801ZM165.295 92.4185L167.167 90.7458L171.725 98.0504H168.747L165.295 92.4185Z" fill="white"/>
<path d="M153.414 91.2982V93.2932H145.173V91.2982H153.414ZM146.923 92.2957L146.155 97.1757L145.02 95.8867H153.89V98.0504H143.531L144.421 92.2957L143.531 86.541H153.813V88.7048H145.02L146.155 87.4157L146.923 92.2957Z" fill="white"/>
<path d="M127.145 98.0504V86.541H129.753V97.145L128.572 95.9787H133.237C133.84 95.9787 134.316 95.8253 134.664 95.5183C135.022 95.2012 135.201 94.7766 135.201 94.2446C135.201 93.7127 135.022 93.2932 134.664 92.9863C134.316 92.6691 133.84 92.5106 133.237 92.5106H128.342V90.4389H133.375C134.296 90.4389 135.089 90.5974 135.754 90.9146C136.419 91.2317 136.93 91.6768 137.288 92.2497C137.656 92.8226 137.841 93.4876 137.841 94.2446C137.841 95.0017 137.656 95.6667 137.288 96.2396C136.93 96.8125 136.419 97.2575 135.754 97.5747C135.089 97.8918 134.296 98.0504 133.375 98.0504H127.145ZM138.946 86.541H141.554V98.0504H138.946V86.541Z" fill="white"/>
<path d="M112.969 86.541H115.578V98.0504H112.969V86.541ZM122.176 86.541H124.785V98.0504H122.176V86.541ZM114.396 91.0834H123.327V93.3699H114.396V91.0834Z" fill="white"/>
<path d="M111.267 93.3696C111.155 94.3416 110.812 95.2009 110.239 95.9478C109.676 96.6844 108.93 97.2573 107.999 97.6665C107.078 98.0757 106.024 98.2803 104.837 98.2803C103.528 98.2803 102.377 98.0297 101.384 97.5284C100.402 97.0271 99.635 96.3314 99.0826 95.4413C98.5301 94.541 98.2539 93.4924 98.2539 92.2954C98.2539 91.0985 98.5301 90.0549 99.0826 89.1649C99.635 88.2646 100.402 87.5638 101.384 87.0625C102.377 86.5612 103.528 86.3105 104.837 86.3105C106.024 86.3105 107.078 86.5152 107.999 86.9244C108.93 87.3336 109.676 87.9065 110.239 88.6431C110.812 89.3797 111.155 90.2391 111.267 91.2212H108.643C108.541 90.679 108.321 90.2135 107.983 89.8248C107.646 89.4258 107.211 89.1188 106.679 88.904C106.147 88.6892 105.528 88.5817 104.822 88.5817C104.014 88.5817 103.313 88.7352 102.72 89.0421C102.136 89.3388 101.686 89.7685 101.369 90.3312C101.052 90.8836 100.893 91.5384 100.893 92.2954C100.893 93.0525 101.052 93.7124 101.369 94.2751C101.686 94.8275 102.136 95.2572 102.72 95.5641C103.313 95.8608 104.014 96.0091 104.822 96.0091C105.528 96.0091 106.147 95.9068 106.679 95.7022C107.211 95.4874 107.646 95.1856 107.983 94.7968C108.321 94.3978 108.541 93.9221 108.643 93.3696H111.267Z" fill="white"/>
<path d="M84.0156 98.0504V86.541H86.563V96.7307L85.7804 96.5772L93.0543 86.541H96.4458V98.0504H93.8984V87.7226L94.681 87.8761L87.315 98.0504H84.0156Z" fill="white"/>
<path d="M78.1208 92.3724L78.3663 91.8507C79.2564 91.8711 79.993 92.0144 80.5761 92.2804C81.1592 92.5361 81.5889 92.8891 81.8651 93.3392C82.1414 93.7792 82.2795 94.2856 82.2795 94.8585C82.2795 95.4723 82.1311 96.0196 81.8345 96.5005C81.548 96.9813 81.1234 97.3599 80.5607 97.6361C79.9981 97.9123 79.2922 98.0504 78.443 98.0504H70.3711L71.2612 92.1423L70.3711 86.541H78.1514C79.2154 86.541 80.039 86.7917 80.6221 87.293C81.2155 87.784 81.5122 88.4644 81.5122 89.334C81.5122 89.8046 81.3997 90.2598 81.1746 90.6997C80.9597 91.1397 80.6017 91.5131 80.1004 91.82C79.6093 92.1167 78.9494 92.3008 78.1208 92.3724ZM72.9492 97.3905L71.9517 96.1322H77.9059C78.4584 96.1322 78.8829 96.0043 79.1796 95.7485C79.4865 95.4825 79.64 95.1142 79.64 94.6436C79.64 94.1628 79.4661 93.7843 79.1182 93.508C78.7704 93.2216 78.2589 93.0784 77.5837 93.0784H72.7344V91.2062H77.2767C77.7371 91.2062 78.1156 91.0783 78.4123 90.8225C78.7192 90.5565 78.8727 90.1882 78.8727 89.7176C78.8727 89.3595 78.7448 89.0629 78.4891 88.8276C78.2333 88.582 77.865 88.4592 77.3842 88.4592H71.9517L72.9492 87.2009L73.7625 92.1423L72.9492 97.3905Z" fill="white"/>
<path d="M64.8311 86.541C65.7417 86.541 66.5294 86.6996 67.1944 87.0167C67.8594 87.3339 68.3658 87.7789 68.7137 88.3518C69.0717 88.9247 69.2508 89.5897 69.2508 90.3468C69.2508 91.1039 69.0717 91.7688 68.7137 92.3418C68.3658 92.9044 67.8594 93.3495 67.1944 93.6768C66.5294 93.994 65.7417 94.1526 64.8311 94.1526H59.7517V92.0041H64.693C65.2966 92.0041 65.7672 91.8558 66.1049 91.5591C66.4527 91.2624 66.6266 90.8583 66.6266 90.3468C66.6266 89.825 66.4527 89.4209 66.1049 89.1345C65.7672 88.8378 65.2966 88.6894 64.693 88.6894H59.9819L61.1635 87.4464V98.0504H58.5547V86.541H64.8311Z" fill="white"/>
<path d="M56.0937 91.2982V93.2932H47.8529V91.2982H56.0937ZM49.6024 92.2957L48.8351 97.1757L47.6995 95.8867H56.5694V98.0504H46.2109L47.101 92.2957L46.2109 86.541H56.4927V88.7048H47.6995L48.8351 87.4157L49.6024 92.2957Z" fill="white"/>
<path d="M44.9078 93.3696C44.7953 94.3416 44.4526 95.2009 43.8797 95.9478C43.317 96.6844 42.5701 97.2573 41.6392 97.6665C40.7184 98.0757 39.6647 98.2803 38.4779 98.2803C37.1684 98.2803 36.0175 98.0297 35.0251 97.5284C34.043 97.0271 33.2757 96.3314 32.7232 95.4413C32.1708 94.541 31.8945 93.4924 31.8945 92.2954C31.8945 91.0985 32.1708 90.0549 32.7232 89.1649C33.2757 88.2646 34.043 87.5638 35.0251 87.0625C36.0175 86.5612 37.1684 86.3105 38.4779 86.3105C39.6647 86.3105 40.7184 86.5152 41.6392 86.9244C42.5701 87.3336 43.317 87.9065 43.8797 88.6431C44.4526 89.3797 44.7953 90.2391 44.9078 91.2212H42.2837C42.1814 90.679 41.9614 90.2135 41.6238 89.8248C41.2862 89.4258 40.8514 89.1188 40.3194 88.904C39.7874 88.6892 39.1685 88.5817 38.4626 88.5817C37.6543 88.5817 36.9536 88.7352 36.3602 89.0421C35.777 89.3388 35.3269 89.7685 35.0097 90.3312C34.6926 90.8836 34.534 91.5384 34.534 92.2954C34.534 93.0525 34.6926 93.7124 35.0097 94.2751C35.3269 94.8275 35.777 95.2572 36.3602 95.5641C36.9536 95.8608 37.6543 96.0091 38.4626 96.0091C39.1685 96.0091 39.7874 95.9068 40.3194 95.7022C40.8514 95.4874 41.2862 95.1856 41.6238 94.7968C41.9614 94.3978 42.1814 93.9221 42.2837 93.3696H44.9078Z" fill="white"/>
</g>
<g opacity="0.4">
<path d="M539.688 108.617H541.149L543.093 117.693C543.164 118.026 543.349 118.323 543.616 118.533C543.883 118.744 544.214 118.855 544.554 118.848H551.701C552.034 118.847 552.356 118.733 552.615 118.525C552.874 118.316 553.055 118.025 553.126 117.7L554.332 112.271H541.931M544.766 122.465C544.766 122.869 544.439 123.196 544.035 123.196C543.632 123.196 543.305 122.869 543.305 122.465C543.305 122.061 543.632 121.734 544.035 121.734C544.439 121.734 544.766 122.061 544.766 122.465ZM552.805 122.465C552.805 122.869 552.477 123.196 552.074 123.196C551.67 123.196 551.343 122.869 551.343 122.465C551.343 122.061 551.67 121.734 552.074 121.734C552.477 121.734 552.805 122.061 552.805 122.465Z" stroke="white" stroke-width="2.19227" stroke-linecap="round" stroke-linejoin="round"/>
<path d="M698.726 114.91V116.905H690.486V114.91H698.726ZM692.235 115.907L691.468 120.787L690.332 119.498H699.202V121.662H688.844L689.734 115.907L688.844 110.152H699.125V112.316H690.332L691.468 111.027L692.235 115.907Z" fill="white"/>
<path d="M687.541 116.981C687.428 117.953 687.085 118.812 686.512 119.559C685.95 120.296 685.203 120.869 684.272 121.278C683.351 121.687 682.297 121.892 681.111 121.892C679.801 121.892 678.65 121.641 677.658 121.14C676.676 120.638 675.908 119.943 675.356 119.053C674.804 118.152 674.527 117.104 674.527 115.907C674.527 114.71 674.804 113.666 675.356 112.776C675.908 111.876 676.676 111.175 677.658 110.674C678.65 110.173 679.801 109.922 681.111 109.922C682.297 109.922 683.351 110.126 684.272 110.536C685.203 110.945 685.95 111.518 686.512 112.254C687.085 112.991 687.428 113.85 687.541 114.833H684.916C684.814 114.29 684.594 113.825 684.257 113.436C683.919 113.037 683.484 112.73 682.952 112.515C682.42 112.3 681.801 112.193 681.095 112.193C680.287 112.193 679.586 112.347 678.993 112.653C678.41 112.95 677.96 113.38 677.643 113.942C677.325 114.495 677.167 115.15 677.167 115.907C677.167 116.664 677.325 117.324 677.643 117.886C677.96 118.439 678.41 118.869 678.993 119.175C679.586 119.472 680.287 119.62 681.095 119.62C681.801 119.62 682.42 119.518 682.952 119.314C683.484 119.099 683.919 118.797 684.257 118.408C684.594 118.009 684.814 117.533 684.916 116.981H687.541Z" fill="white"/>
<path d="M664.26 115.263H668.695C669.278 115.263 669.739 115.13 670.076 114.864C670.424 114.587 670.598 114.209 670.598 113.728C670.598 113.247 670.424 112.874 670.076 112.608C669.739 112.342 669.278 112.209 668.695 112.209H663.876L665.058 110.874V121.662H662.449V110.152H669.002C669.841 110.152 670.577 110.306 671.212 110.613C671.846 110.909 672.342 111.324 672.7 111.856C673.058 112.388 673.237 113.012 673.237 113.728C673.237 114.434 673.058 115.053 672.7 115.585C672.342 116.117 671.846 116.536 671.212 116.843C670.577 117.14 669.841 117.288 669.002 117.288H664.26V115.263ZM666.255 116.275H669.232L673.575 121.662H670.521L666.255 116.275Z" fill="white"/>
<path d="M659.988 114.91V116.905H651.747V114.91H659.988ZM653.497 115.907L652.73 120.787L651.594 119.498H660.464V121.662H650.105L650.996 115.907L650.105 110.152H660.387V112.316H651.594L652.73 111.027L653.497 115.907Z" fill="white"/>
<path d="M648.124 110.152V121.662H645.638V111.027L646.298 111.073L641.387 121.662H638.702L633.791 111.104L634.436 111.042V121.662H631.965V110.152H635.97L640.605 120.403H639.484L644.119 110.152H648.124Z" fill="white"/>
<path d="M629.616 110.152V121.662H627.13V111.027L627.79 111.073L622.879 121.662H620.194L615.283 111.104L615.928 111.042V121.662H613.457V110.152H617.462L622.097 120.403H620.977L625.611 110.152H629.616Z" fill="white"/>
<path d="M604.94 121.892C603.6 121.892 602.424 121.641 601.411 121.14C600.408 120.638 599.625 119.943 599.063 119.053C598.5 118.152 598.219 117.104 598.219 115.907C598.219 114.71 598.5 113.666 599.063 112.776C599.625 111.876 600.408 111.175 601.411 110.674C602.424 110.173 603.6 109.922 604.94 109.922C606.28 109.922 607.452 110.173 608.454 110.674C609.467 111.175 610.255 111.876 610.818 112.776C611.38 113.666 611.662 114.71 611.662 115.907C611.662 117.104 611.38 118.152 610.818 119.053C610.255 119.943 609.467 120.638 608.454 121.14C607.452 121.641 606.28 121.892 604.94 121.892ZM604.94 119.574C605.779 119.574 606.5 119.426 607.104 119.129C607.718 118.833 608.188 118.408 608.516 117.856C608.853 117.303 609.022 116.654 609.022 115.907C609.022 115.16 608.853 114.51 608.516 113.958C608.188 113.405 607.718 112.981 607.104 112.684C606.5 112.387 605.779 112.239 604.94 112.239C604.112 112.239 603.39 112.387 602.776 112.684C602.163 112.981 601.687 113.405 601.349 113.958C601.022 114.51 600.858 115.16 600.858 115.907C600.858 116.654 601.022 117.303 601.349 117.856C601.687 118.408 602.163 118.833 602.776 119.129C603.39 119.426 604.112 119.574 604.94 119.574Z" fill="white"/>
<path d="M597.084 116.981C596.971 117.953 596.628 118.812 596.055 119.559C595.493 120.296 594.746 120.869 593.815 121.278C592.894 121.687 591.84 121.892 590.654 121.892C589.344 121.892 588.193 121.641 587.201 121.14C586.219 120.638 585.451 119.943 584.899 119.053C584.347 118.152 584.07 117.104 584.07 115.907C584.07 114.71 584.347 113.666 584.899 112.776C585.451 111.876 586.219 111.175 587.201 110.674C588.193 110.173 589.344 109.922 590.654 109.922C591.84 109.922 592.894 110.126 593.815 110.536C594.746 110.945 595.493 111.518 596.055 112.254C596.628 112.991 596.971 113.85 597.084 114.833H594.459C594.357 114.29 594.137 113.825 593.8 113.436C593.462 113.037 593.027 112.73 592.495 112.515C591.963 112.3 591.344 112.193 590.638 112.193C589.83 112.193 589.129 112.347 588.536 112.653C587.953 112.95 587.503 113.38 587.186 113.942C586.868 114.495 586.71 115.15 586.71 115.907C586.71 116.664 586.868 117.324 587.186 117.886C587.503 118.439 587.953 118.869 588.536 119.175C589.129 119.472 589.83 119.62 590.638 119.62C591.344 119.62 591.963 119.518 592.495 119.314C593.027 119.099 593.462 118.797 593.8 118.408C594.137 118.009 594.357 117.533 594.459 116.981H597.084Z" fill="white"/>
<path d="M578.773 115.248H582.564V117.32H578.773V115.248Z" fill="white"/>
<path d="M576.621 114.91V116.905H568.38V114.91H576.621ZM570.13 115.907L569.362 120.787L568.227 119.498H577.097V121.662H566.738L567.628 115.907L566.738 110.152H577.02V112.316H568.227L569.362 111.027L570.13 115.907Z" fill="white"/>
</g>
<g opacity="0.4">
<path d="M260.207 231.152V223.844C260.207 223.602 260.111 223.37 259.94 223.198C259.769 223.027 259.536 222.931 259.294 222.931H255.64C255.398 222.931 255.166 223.027 254.994 223.198C254.823 223.37 254.727 223.602 254.727 223.844V231.152M249.246 221.104C249.246 220.838 249.304 220.576 249.416 220.335C249.528 220.094 249.691 219.88 249.894 219.708L256.288 214.228C256.618 213.95 257.035 213.797 257.467 213.797C257.899 213.797 258.317 213.95 258.646 214.228L265.04 219.708C265.243 219.88 265.407 220.094 265.518 220.335C265.63 220.576 265.688 220.838 265.688 221.104V229.325C265.688 229.809 265.496 230.274 265.153 230.617C264.81 230.959 264.346 231.152 263.861 231.152H251.073C250.588 231.152 250.124 230.959 249.781 230.617C249.439 230.274 249.246 229.809 249.246 229.325V221.104Z" stroke="white" stroke-width="2.19227" stroke-linecap="round" stroke-linejoin="round"/>
<path d="M594.496 227.627V216.117H597.043V226.307L596.261 226.153L603.535 216.117H606.926V227.627H604.379V217.299L605.161 217.452L597.795 227.627H594.496Z" fill="white"/>
<path d="M585.874 217.283H588.467V227.627H585.874V217.283ZM581.285 216.117H593.04V218.419H581.285V216.117Z" fill="white"/>
<path d="M580.998 222.946C580.885 223.918 580.542 224.777 579.969 225.524C579.407 226.261 578.66 226.833 577.729 227.243C576.808 227.652 575.754 227.856 574.568 227.856C573.258 227.856 572.107 227.606 571.115 227.105C570.133 226.603 569.366 225.908 568.813 225.018C568.261 224.117 567.984 223.069 567.984 221.872C567.984 220.675 568.261 219.631 568.813 218.741C569.366 217.841 570.133 217.14 571.115 216.639C572.107 216.137 573.258 215.887 574.568 215.887C575.754 215.887 576.808 216.091 577.729 216.501C578.66 216.91 579.407 217.483 579.969 218.219C580.542 218.956 580.885 219.815 580.998 220.797H578.374C578.271 220.255 578.051 219.79 577.714 219.401C577.376 219.002 576.941 218.695 576.409 218.48C575.877 218.265 575.258 218.158 574.552 218.158C573.744 218.158 573.043 218.311 572.45 218.618C571.867 218.915 571.417 219.345 571.1 219.907C570.782 220.46 570.624 221.115 570.624 221.872C570.624 222.629 570.782 223.289 571.1 223.851C571.417 224.404 571.867 224.833 572.45 225.14C573.043 225.437 573.744 225.585 574.552 225.585C575.258 225.585 575.877 225.483 576.409 225.278C576.941 225.064 577.376 224.762 577.714 224.373C578.051 223.974 578.271 223.498 578.374 222.946H580.998Z" fill="white"/>
<path d="M560.022 227.856C558.682 227.856 557.506 227.606 556.493 227.105C555.49 226.603 554.707 225.908 554.145 225.018C553.582 224.117 553.301 223.069 553.301 221.872C553.301 220.675 553.582 219.631 554.145 218.741C554.707 217.841 555.49 217.14 556.493 216.639C557.506 216.137 558.682 215.887 560.022 215.887C561.362 215.887 562.534 216.137 563.536 216.639C564.549 217.14 565.337 217.841 565.9 218.741C566.462 219.631 566.744 220.675 566.744 221.872C566.744 223.069 566.462 224.117 565.9 225.018C565.337 225.908 564.549 226.603 563.536 227.105C562.534 227.606 561.362 227.856 560.022 227.856ZM560.022 225.539C560.861 225.539 561.582 225.391 562.186 225.094C562.8 224.798 563.27 224.373 563.598 223.821C563.935 223.268 564.104 222.618 564.104 221.872C564.104 221.125 563.935 220.475 563.598 219.923C563.27 219.37 562.8 218.946 562.186 218.649C561.582 218.352 560.861 218.204 560.022 218.204C559.194 218.204 558.472 218.352 557.859 218.649C557.245 218.946 556.769 219.37 556.431 219.923C556.104 220.475 555.94 221.125 555.94 221.872C555.94 222.618 556.104 223.268 556.431 223.821C556.769 224.373 557.245 224.798 557.859 225.094C558.472 225.391 559.194 225.539 560.022 225.539Z" fill="white"/>
<path d="M551.519 216.117V227.627H549.033V216.992L549.692 217.038L544.782 227.627H542.096L537.186 217.069L537.83 217.007V227.627H535.359V216.117H539.365L543.999 226.368H542.879L547.513 216.117H551.519Z" fill="white"/>
<path d="M520.566 227.627V216.117H523.114V226.307L522.331 226.153L529.605 216.117H532.997V227.627H530.449V217.299L531.232 217.452L523.866 227.627H520.566Z" fill="white"/>
<path d="M498.195 227.627L502.753 220.322L504.625 221.979L501.157 227.627H498.195ZM516.396 227.627L512.958 221.979L514.815 220.322L519.373 227.627H516.396ZM510.058 225.217L509.336 224.956L516.426 216.117H519.204L509.735 227.627H507.833L498.364 216.117H501.142L508.232 224.956L507.495 225.217V216.117H510.058V225.217Z" fill="white"/>
<path d="M484.57 227.627V216.117H487.118V226.307L486.335 226.153L493.609 216.117H497V227.627H494.453V217.299L495.236 217.452L487.87 227.627H484.57Z" fill="white"/>
<path d="M478.675 221.949L478.921 221.427C479.811 221.447 480.548 221.591 481.131 221.857C481.714 222.112 482.144 222.465 482.42 222.915C482.696 223.355 482.834 223.862 482.834 224.435C482.834 225.048 482.686 225.596 482.389 226.077C482.103 226.557 481.678 226.936 481.115 227.212C480.553 227.488 479.847 227.627 478.998 227.627H470.926L471.816 221.718L470.926 216.117H478.706C479.77 216.117 480.594 216.368 481.177 216.869C481.77 217.36 482.067 218.041 482.067 218.91C482.067 219.381 481.954 219.836 481.729 220.276C481.514 220.716 481.156 221.089 480.655 221.396C480.164 221.693 479.504 221.877 478.675 221.949ZM473.504 226.967L472.506 225.708H478.461C479.013 225.708 479.438 225.58 479.734 225.325C480.041 225.059 480.195 224.69 480.195 224.22C480.195 223.739 480.021 223.36 479.673 223.084C479.325 222.798 478.814 222.655 478.138 222.655H473.289V220.782H477.831C478.292 220.782 478.67 220.654 478.967 220.399C479.274 220.133 479.427 219.764 479.427 219.294C479.427 218.936 479.3 218.639 479.044 218.404C478.788 218.158 478.42 218.035 477.939 218.035H472.506L473.504 216.777L474.317 221.718L473.504 226.967Z" fill="white"/>
<path d="M454.426 229.975V225.325H456.574L457.679 225.355H465.966L466.595 225.325H469.695V229.975H467.255V227.627H456.866V229.975H454.426ZM456.896 216.117H467.685V226.798H465.091V217.222L466.257 218.388H458.293L459.383 217.544C459.444 218.056 459.485 218.562 459.505 219.064C459.526 219.565 459.536 220.035 459.536 220.475C459.536 221.724 459.439 222.782 459.244 223.652C459.05 224.511 458.758 225.166 458.37 225.616C457.981 226.056 457.5 226.276 456.927 226.276L455.853 225.371C456.283 224.88 456.6 224.189 456.804 223.299C457.019 222.399 457.127 221.279 457.127 219.938C457.127 219.345 457.106 218.726 457.065 218.081C457.024 217.437 456.968 216.782 456.896 216.117Z" fill="white"/>
<path d="M452.977 220.874V222.869H444.736V220.874H452.977ZM446.485 221.872L445.718 226.752L444.582 225.463H453.452V227.627H443.094L443.984 221.872L443.094 216.117H453.375V218.281H444.582L445.718 216.992L446.485 221.872Z" fill="white"/>
<path d="M429.285 216.117H431.894V227.627H429.285V216.117ZM438.493 216.117H441.101V227.627H438.493V216.117ZM430.712 220.66H439.644V222.946H430.712V220.66Z" fill="white"/>
<path d="M416.843 227.856C415.502 227.856 414.326 227.606 413.313 227.105C412.31 226.603 411.528 225.908 410.965 225.018C410.402 224.117 410.121 223.069 410.121 221.872C410.121 220.675 410.402 219.631 410.965 218.741C411.528 217.841 412.31 217.14 413.313 216.639C414.326 216.137 415.502 215.887 416.843 215.887C418.183 215.887 419.354 216.137 420.357 216.639C421.37 217.14 422.157 217.841 422.72 218.741C423.283 219.631 423.564 220.675 423.564 221.872C423.564 223.069 423.283 224.117 422.72 225.018C422.157 225.908 421.37 226.603 420.357 227.105C419.354 227.606 418.183 227.856 416.843 227.856ZM416.843 225.539C417.681 225.539 418.403 225.391 419.006 225.094C419.62 224.798 420.091 224.373 420.418 223.821C420.756 223.268 420.925 222.618 420.925 221.872C420.925 221.125 420.756 220.475 420.418 219.923C420.091 219.37 419.62 218.946 419.006 218.649C418.403 218.352 417.681 218.204 416.843 218.204C416.014 218.204 415.293 218.352 414.679 218.649C414.065 218.946 413.589 219.37 413.252 219.923C412.924 220.475 412.761 221.125 412.761 221.872C412.761 222.618 412.924 223.268 413.252 223.821C413.589 224.373 414.065 224.798 414.679 225.094C415.293 225.391 416.014 225.539 416.843 225.539Z" fill="white"/>
<path d="M408.325 216.117V227.627H405.732V217.237L406.913 218.419H397.997L399.179 217.237V227.627H396.57V216.117H408.325Z" fill="white"/>
<path d="M380.867 225.202V223.084H388.847V225.202H380.867ZM386.591 216.117L391.978 227.627H389.2L384.489 217.176H385.348L380.637 227.627H377.859L383.246 216.117H386.591Z" fill="white"/>
<path d="M373.636 221.949L373.882 221.427C374.772 221.447 375.509 221.591 376.092 221.857C376.675 222.112 377.105 222.465 377.381 222.915C377.657 223.355 377.795 223.862 377.795 224.435C377.795 225.048 377.647 225.596 377.35 226.077C377.064 226.557 376.639 226.936 376.076 227.212C375.514 227.488 374.808 227.627 373.959 227.627H365.887L366.777 221.718L365.887 216.117H373.667C374.731 216.117 375.555 216.368 376.138 216.869C376.731 217.36 377.028 218.041 377.028 218.91C377.028 219.381 376.915 219.836 376.69 220.276C376.475 220.716 376.117 221.089 375.616 221.396C375.125 221.693 374.465 221.877 373.636 221.949ZM368.465 226.967L367.467 225.708H373.422C373.974 225.708 374.399 225.58 374.695 225.325C375.002 225.059 375.156 224.69 375.156 224.22C375.156 223.739 374.982 223.36 374.634 223.084C374.286 222.798 373.774 222.655 373.099 222.655H368.25V220.782H372.792C373.253 220.782 373.631 220.654 373.928 220.399C374.235 220.133 374.388 219.764 374.388 219.294C374.388 218.936 374.26 218.639 374.005 218.404C373.749 218.158 373.381 218.035 372.9 218.035H367.467L368.465 216.777L369.278 221.718L368.465 226.967Z" fill="white"/>
<path d="M357.635 217.283H360.229V227.627H357.635V217.283ZM353.047 216.117H364.802V218.419H353.047V216.117Z" fill="white"/>
<path d="M352.759 222.946C352.647 223.918 352.304 224.777 351.731 225.524C351.169 226.261 350.422 226.833 349.491 227.243C348.57 227.652 347.516 227.856 346.329 227.856C345.02 227.856 343.869 227.606 342.877 227.105C341.895 226.603 341.127 225.908 340.575 225.018C340.022 224.117 339.746 223.069 339.746 221.872C339.746 220.675 340.022 219.631 340.575 218.741C341.127 217.841 341.895 217.14 342.877 216.639C343.869 216.137 345.02 215.887 346.329 215.887C347.516 215.887 348.57 216.091 349.491 216.501C350.422 216.91 351.169 217.483 351.731 218.219C352.304 218.956 352.647 219.815 352.759 220.797H350.135C350.033 220.255 349.813 219.79 349.475 219.401C349.138 219.002 348.703 218.695 348.171 218.48C347.639 218.265 347.02 218.158 346.314 218.158C345.506 218.158 344.805 218.311 344.212 218.618C343.629 218.915 343.178 219.345 342.861 219.907C342.544 220.46 342.386 221.115 342.386 221.872C342.386 222.629 342.544 223.289 342.861 223.851C343.178 224.404 343.629 224.833 344.212 225.14C344.805 225.437 345.506 225.585 346.314 225.585C347.02 225.585 347.639 225.483 348.171 225.278C348.703 225.064 349.138 224.762 349.475 224.373C349.813 223.974 350.033 223.498 350.135 222.946H352.759Z" fill="white"/>
<path d="M332.217 217.283H334.811V227.627H332.217V217.283ZM327.629 216.117H339.384V218.419H327.629V216.117Z" fill="white"/>
<path d="M314.371 216.117H316.98V227.627H314.371V216.117ZM323.579 216.117H326.187V227.627H323.579V216.117ZM315.798 220.66H324.73V222.946H315.798V220.66Z" fill="white"/>
<path d="M311.914 220.874V222.869H303.673V220.874H311.914ZM305.423 221.872L304.655 226.752L303.52 225.463H312.39V227.627H302.031L302.921 221.872L302.031 216.117H312.313V218.281H303.52L304.655 216.992L305.423 221.872Z" fill="white"/>
<path d="M300.949 216.117V218.434H293.982L295.163 217.253V227.627H292.555V216.117H300.949Z" fill="white"/>
<path d="M280.203 225.202V223.084H288.183V225.202H280.203ZM285.927 216.117L291.314 227.627H288.536L283.825 217.176H284.684L279.973 227.627H277.195L282.582 216.117H285.927Z" fill="white"/>
</g>
<g opacity="0.8">
<path d="M318.239 133.228L327.669 138.647M327.669 138.647L337.098 133.228M327.669 138.647V149.485M337.423 134.311C337.423 133.931 337.322 133.558 337.132 133.229C336.942 132.9 336.668 132.626 336.339 132.436L328.752 128.101C328.423 127.911 328.049 127.811 327.669 127.811C327.288 127.811 326.914 127.911 326.585 128.101L318.998 132.436C318.669 132.626 318.395 132.9 318.205 133.229C318.015 133.558 317.914 133.931 317.914 134.311V142.982C317.914 143.362 318.015 143.736 318.205 144.065C318.395 144.394 318.669 144.667 318.998 144.857L326.585 149.192C326.914 149.383 327.288 149.483 327.669 149.483C328.049 149.483 328.423 149.383 328.752 149.192L336.339 144.857C336.668 144.667 336.942 144.394 337.132 144.065C337.322 143.736 337.423 143.362 337.423 142.982V134.311Z" stroke="white" stroke-width="2.60121" stroke-linecap="round" stroke-linejoin="round"/>
<path d="M464.77 144.219V130.562H467.792V142.653L466.864 142.471L475.494 130.562H479.518V144.219H476.496V131.965L477.424 132.147L468.684 144.219H464.77Z" fill="white"/>
<path d="M449.281 144.219V130.562H452.358V141.706L451.484 141.087L459.933 130.562H463.229L452.067 144.219H449.281ZM455.8 137.536L458.021 135.552L463.429 144.219H459.897L455.8 137.536Z" fill="white"/>
<path d="M442.285 137.482L442.576 136.863C443.633 136.887 444.507 137.057 445.198 137.372C445.89 137.676 446.4 138.095 446.728 138.629C447.056 139.151 447.22 139.752 447.22 140.431C447.22 141.16 447.044 141.809 446.692 142.38C446.352 142.95 445.848 143.399 445.18 143.727C444.513 144.055 443.675 144.219 442.667 144.219H433.09L434.146 137.209L433.09 130.562H442.322C443.584 130.562 444.561 130.86 445.253 131.455C445.957 132.037 446.309 132.845 446.309 133.876C446.309 134.435 446.176 134.975 445.909 135.497C445.654 136.019 445.229 136.462 444.634 136.826C444.051 137.178 443.268 137.397 442.285 137.482ZM436.149 143.436L434.965 141.943H442.03C442.686 141.943 443.189 141.791 443.541 141.488C443.906 141.172 444.088 140.735 444.088 140.177C444.088 139.606 443.881 139.157 443.469 138.829C443.056 138.489 442.449 138.319 441.648 138.319H435.894V136.098H441.284C441.83 136.098 442.279 135.946 442.631 135.643C442.995 135.327 443.177 134.89 443.177 134.332C443.177 133.907 443.026 133.555 442.722 133.276C442.419 132.984 441.982 132.839 441.411 132.839H434.965L436.149 131.345L437.114 137.209L436.149 143.436Z" fill="white"/>
<path d="M418.874 141.342V138.829H428.342V141.342H418.874ZM425.665 130.562L432.056 144.219H428.761L423.171 131.819H424.19L418.6 144.219H415.305L421.696 130.562H425.665Z" fill="white"/>
<path d="M408.683 131.946H411.76V144.219H408.683V131.946ZM403.238 130.562H417.186V133.294H403.238V130.562Z" fill="white"/>
<path d="M402.898 138.665C402.764 139.818 402.358 140.838 401.678 141.724C401.01 142.598 400.124 143.278 399.019 143.763C397.927 144.249 396.677 144.492 395.268 144.492C393.715 144.492 392.349 144.194 391.172 143.599C390.006 143.005 389.096 142.179 388.44 141.123C387.785 140.055 387.457 138.811 387.457 137.39C387.457 135.97 387.785 134.732 388.44 133.676C389.096 132.608 390.006 131.776 391.172 131.181C392.349 130.586 393.715 130.289 395.268 130.289C396.677 130.289 397.927 130.532 399.019 131.017C400.124 131.503 401.01 132.183 401.678 133.057C402.358 133.931 402.764 134.95 402.898 136.116H399.784C399.663 135.472 399.402 134.92 399.001 134.459C398.601 133.985 398.085 133.621 397.453 133.366C396.822 133.111 396.088 132.984 395.25 132.984C394.291 132.984 393.46 133.166 392.756 133.53C392.064 133.882 391.53 134.392 391.153 135.06C390.777 135.715 390.589 136.492 390.589 137.39C390.589 138.289 390.777 139.072 391.153 139.739C391.53 140.395 392.064 140.905 392.756 141.269C393.46 141.621 394.291 141.797 395.25 141.797C396.088 141.797 396.822 141.675 397.453 141.433C398.085 141.178 398.601 140.82 399.001 140.358C399.402 139.885 399.663 139.32 399.784 138.665H402.898Z" fill="white"/>
<path d="M378.007 144.492C376.416 144.492 375.02 144.194 373.819 143.599C372.629 143.005 371.7 142.179 371.033 141.123C370.365 140.055 370.031 138.811 370.031 137.39C370.031 135.97 370.365 134.732 371.033 133.676C371.7 132.608 372.629 131.776 373.819 131.181C375.02 130.586 376.416 130.289 378.007 130.289C379.597 130.289 380.987 130.586 382.176 131.181C383.378 131.776 384.313 132.608 384.98 133.676C385.648 134.732 385.982 135.97 385.982 137.39C385.982 138.811 385.648 140.055 384.98 141.123C384.313 142.179 383.378 143.005 382.176 143.599C380.987 144.194 379.597 144.492 378.007 144.492ZM378.007 141.742C379.002 141.742 379.858 141.566 380.574 141.214C381.302 140.862 381.861 140.358 382.249 139.703C382.65 139.047 382.85 138.277 382.85 137.39C382.85 136.504 382.65 135.733 382.249 135.078C381.861 134.422 381.302 133.919 380.574 133.567C379.858 133.215 379.002 133.039 378.007 133.039C377.023 133.039 376.168 133.215 375.439 133.567C374.711 133.919 374.146 134.422 373.746 135.078C373.357 135.733 373.163 136.504 373.163 137.39C373.163 138.277 373.357 139.047 373.746 139.703C374.146 140.358 374.711 140.862 375.439 141.214C376.168 141.566 377.023 141.742 378.007 141.742Z" fill="white"/>
<path d="M351.082 147.005V141.488H353.631L354.942 141.524H364.775L365.521 141.488H369.199V147.005H366.304V144.219H353.977V147.005H351.082ZM354.014 130.562H366.814V143.236H363.737V131.874L365.121 133.257H355.671L356.963 132.256C357.036 132.863 357.085 133.464 357.109 134.059C357.133 134.653 357.145 135.212 357.145 135.734C357.145 137.215 357.03 138.471 356.799 139.503C356.569 140.523 356.223 141.299 355.762 141.834C355.3 142.356 354.73 142.617 354.05 142.617L352.775 141.542C353.285 140.96 353.662 140.14 353.904 139.084C354.159 138.016 354.287 136.687 354.287 135.096C354.287 134.392 354.262 133.658 354.214 132.893C354.165 132.128 354.099 131.352 354.014 130.562Z" fill="white"/>
</g>
<g opacity="0.8">
<path d="M183.997 6.20117V17.688M188.971 9.07287L179.023 14.8163M179.023 9.07287L188.971 14.8163" stroke="white" stroke-width="2.29736" stroke-linecap="round" stroke-linejoin="round"/>
<path d="M312.586 13.0713C312.468 14.0898 312.109 14.9904 311.509 15.773C310.919 16.5449 310.137 17.1453 309.161 17.5742C308.196 18.003 307.092 18.2174 305.848 18.2174C304.476 18.2174 303.27 17.9548 302.23 17.4294C301.201 16.9041 300.397 16.1751 299.818 15.2423C299.239 14.2989 298.949 13.2 298.949 11.9456C298.949 10.6913 299.239 9.59772 299.818 8.66499C300.397 7.72154 301.201 6.98715 302.23 6.46182C303.27 5.93649 304.476 5.67383 305.848 5.67383C307.092 5.67383 308.196 5.88825 309.161 6.31709C310.137 6.74593 310.919 7.34631 311.509 8.11822C312.109 8.89013 312.468 9.7907 312.586 10.8199H309.836C309.729 10.2517 309.499 9.7639 309.145 9.3565C308.791 8.93838 308.335 8.61675 307.778 8.39161C307.22 8.16646 306.572 8.05389 305.832 8.05389C304.985 8.05389 304.251 8.21471 303.629 8.53634C303.018 8.84725 302.546 9.29753 302.214 9.88719C301.881 10.4661 301.715 11.1523 301.715 11.9456C301.715 12.739 301.881 13.4305 302.214 14.0201C302.546 14.5991 303.018 15.0494 303.629 15.371C304.251 15.6819 304.985 15.8374 305.832 15.8374C306.572 15.8374 307.22 15.7301 307.778 15.5157C308.335 15.2906 308.791 14.9743 309.145 14.5669C309.499 14.1488 309.729 13.6503 309.836 13.0713H312.586Z" fill="white"/>
<path d="M284.672 5.91406H287.406V17.9752H284.672V5.91406ZM294.321 5.91406H297.055V17.9752H294.321V5.91406ZM286.167 10.6742H295.527V13.0703H286.167V10.6742Z" fill="white"/>
<path d="M271.73 15.4343V13.2151H280.092V15.4343H271.73ZM277.729 5.91406L283.373 17.9752H280.462L275.525 7.02369H276.426L271.489 17.9752H268.578L274.223 5.91406H277.729Z" fill="white"/>
<path d="M255.919 5.91406H267.273V17.9752H264.555V7.08801L265.777 8.32629H257.431L258.589 7.42573C258.675 8.20836 258.733 8.95883 258.766 9.67714C258.809 10.3954 258.83 11.0709 258.83 11.7034C258.83 13.2258 258.696 14.4641 258.428 15.4182C258.16 16.3724 257.742 17.0746 257.174 17.5249C256.605 17.9752 255.86 18.2003 254.938 18.2003C254.574 18.2003 254.209 18.1575 253.845 18.0717C253.48 17.9966 253.148 17.8841 252.848 17.734V15.4504C253.309 15.6327 253.738 15.7238 254.134 15.7238C254.885 15.7238 255.426 15.3807 255.758 14.6946C256.091 13.9977 256.257 12.8666 256.257 11.3014C256.257 10.5938 256.23 9.78971 256.177 8.88915C256.123 7.98858 256.037 6.99689 255.919 5.91406Z" fill="white"/>
<path d="M238.391 17.9752V5.91406H241.06V16.5922L240.24 16.4314L247.863 5.91406H251.417V17.9752H248.747V7.15234L249.567 7.31316L241.848 17.9752H238.391Z" fill="white"/>
<path d="M232.167 5.91406C233.121 5.91406 233.947 6.08024 234.644 6.41259C235.341 6.74494 235.871 7.21131 236.236 7.81168C236.611 8.41206 236.799 9.10893 236.799 9.90228C236.799 10.6956 236.611 11.3925 236.236 11.9929C235.871 12.5825 235.341 13.0489 234.644 13.392C233.947 13.7243 233.121 13.8905 232.167 13.8905H226.844V11.6391H232.022C232.655 11.6391 233.148 11.4836 233.502 11.1727C233.866 10.8618 234.049 10.4383 234.049 9.90228C234.049 9.35551 233.866 8.93203 233.502 8.63184C233.148 8.32093 232.655 8.16548 232.022 8.16548H227.085L228.324 6.86287V17.9752H225.59V5.91406H232.167Z" fill="white"/>
<path d="M214.562 16.0135V13.8425H218.631C219.156 13.8425 219.606 13.7514 219.981 13.5691C220.357 13.3869 220.641 13.1349 220.834 12.8133C221.038 12.481 221.139 12.0896 221.139 11.6394C221.139 11.1891 221.038 10.8031 220.834 10.4815C220.641 10.1491 220.357 9.8972 219.981 9.72566C219.606 9.5434 219.156 9.45228 218.631 9.45228H214.578V7.28127H218.775C219.837 7.28127 220.748 7.46353 221.509 7.82804C222.27 8.19256 222.86 8.7018 223.278 9.35579C223.696 9.99905 223.905 10.7602 223.905 11.6394C223.905 12.5078 223.696 13.2743 223.278 13.939C222.86 14.593 222.27 15.1022 221.509 15.4668C220.748 15.8313 219.837 16.0135 218.775 16.0135H214.562ZM209.802 16.0135C208.751 16.0135 207.845 15.8313 207.084 15.4668C206.323 15.1022 205.728 14.593 205.299 13.939C204.881 13.2743 204.672 12.5078 204.672 11.6394C204.672 10.7602 204.881 9.99905 205.299 9.35579C205.728 8.7018 206.323 8.19256 207.084 7.82804C207.845 7.46353 208.751 7.28127 209.802 7.28127H213.999V9.45228H209.931C209.416 9.45228 208.971 9.5434 208.596 9.72566C208.231 9.8972 207.947 10.1491 207.743 10.4815C207.54 10.8031 207.438 11.1891 207.438 11.6394C207.438 12.0896 207.54 12.481 207.743 12.8133C207.947 13.1349 208.231 13.3869 208.596 13.5691C208.971 13.7514 209.416 13.8425 209.931 13.8425H214.015V16.0135H209.802ZM212.922 18.3293V5.56055H215.656V18.3293H212.922Z" fill="white"/>
</g>
</svg>
