<svg width="727" height="300" viewBox="0 0 727 300" fill="none" xmlns="http://www.w3.org/2000/svg">
<g opacity="0.2">
<path d="M117.348 176.268H118.622C118.96 176.268 119.284 176.402 119.523 176.641C119.762 176.88 119.896 177.204 119.896 177.542V186.461C119.896 186.799 119.762 187.123 119.523 187.362C119.284 187.601 118.96 187.735 118.622 187.735H110.977C110.639 187.735 110.315 187.601 110.076 187.362C109.837 187.123 109.703 186.799 109.703 186.461V177.542C109.703 177.204 109.837 176.88 110.076 176.641C110.315 176.402 110.639 176.268 110.977 176.268H112.251M112.888 182.639H116.711M114.799 184.55V180.728M112.888 174.994H116.711C117.062 174.994 117.348 175.279 117.348 175.631V176.905C117.348 177.257 117.062 177.542 116.711 177.542H112.888C112.537 177.542 112.251 177.257 112.251 176.905V175.631C112.251 175.279 112.537 174.994 112.888 174.994Z" stroke="white" stroke-width="1.91113" stroke-linecap="round" stroke-linejoin="round"/>
<path d="M225.47 183.244V181.398H232.426V183.244H225.47ZM230.46 175.324L235.155 185.358H232.734L228.627 176.247H229.376L225.269 185.358H222.848L227.543 175.324H230.46Z" fill="white"/>
<path d="M211.465 175.324H213.739V185.358H211.465V175.324ZM219.492 175.324H221.766V185.358H219.492V175.324ZM212.709 179.284H220.495V181.277H212.709V179.284Z" fill="white"/>
<path d="M198.57 185.358V175.324H200.791V184.207L200.109 184.073L206.45 175.324H209.406V185.358H207.186V176.354L207.868 176.488L201.447 185.358H198.57Z" fill="white"/>
<path d="M195.426 175.324V184.073L194.663 183.351H197.178V187.404H195.051V184.97L195.84 185.358H185.285V175.324H187.559V184.073L186.837 183.351H193.927L193.165 184.073V175.324H195.426Z" fill="white"/>
<path d="M172.391 185.358V175.324H174.611V184.207L173.929 184.073L180.27 175.324H183.227V185.358H181.006V176.354L181.688 176.488L175.267 185.358H172.391Z" fill="white"/>
<path d="M157.688 187.404V183.351H159.56L160.524 183.378H167.748L168.296 183.351H170.998V187.404H168.871V185.358H159.815V187.404H157.688ZM159.841 175.324H169.246V184.635H166.985V176.287L168.002 177.304H161.059L162.009 176.568C162.062 177.014 162.098 177.456 162.116 177.893C162.133 178.33 162.142 178.74 162.142 179.124C162.142 180.212 162.058 181.135 161.888 181.893C161.719 182.642 161.465 183.213 161.126 183.605C160.787 183.989 160.368 184.18 159.868 184.18L158.932 183.391C159.306 182.963 159.583 182.361 159.761 181.585C159.948 180.8 160.042 179.824 160.042 178.655C160.042 178.138 160.024 177.598 159.988 177.037C159.953 176.475 159.904 175.904 159.841 175.324Z" fill="white"/>
<path d="M156.424 179.471V181.21H149.24V179.471H156.424ZM150.765 180.341L150.096 184.595L149.106 183.471H156.839V185.358H147.809L148.585 180.341L147.809 175.324H156.772V177.211H149.106L150.096 176.087L150.765 180.341Z" fill="white"/>
<path d="M146.083 175.324V185.358H143.916V176.087L144.491 176.127L140.21 185.358H137.869L133.588 176.154L134.15 176.1V185.358H131.996V175.324H135.488L139.528 184.261H138.551L142.591 175.324H146.083Z" fill="white"/>
</g>
<g opacity="0.2">
<g clip-path="url(#clip0_842_999)">
<path d="M513.394 287.749V292.527M500.653 289.74V292.527C500.653 293.161 501.156 293.768 502.052 294.216C502.948 294.664 504.164 294.916 505.431 294.916C506.698 294.916 507.913 294.664 508.809 294.216C509.705 293.768 510.209 293.161 510.209 292.527V289.74M512.932 288.484C513.075 288.421 513.196 288.317 513.28 288.186C513.364 288.055 513.408 287.903 513.407 287.747C513.405 287.591 513.358 287.439 513.271 287.31C513.184 287.181 513.061 287.08 512.917 287.02L506.092 283.911C505.884 283.817 505.659 283.768 505.431 283.768C505.203 283.768 504.977 283.817 504.77 283.911L497.946 287.017C497.804 287.079 497.683 287.181 497.599 287.31C497.514 287.44 497.469 287.591 497.469 287.746C497.469 287.901 497.514 288.052 497.599 288.182C497.683 288.311 497.804 288.414 497.946 288.476L504.77 291.588C504.977 291.682 505.203 291.731 505.431 291.731C505.659 291.731 505.884 291.682 506.092 291.588L512.932 288.484Z" stroke="white" stroke-width="1.91113" stroke-linecap="round" stroke-linejoin="round"/>
</g>
<path d="M655.665 293.631V291.784H662.622V293.631H655.665ZM660.655 285.711L665.351 295.744H662.929L658.822 286.634H659.571L655.464 295.744H653.043L657.739 285.711H660.655Z" fill="white"/>
<path d="M648.176 286.728H650.437V295.744H648.176V286.728ZM644.176 285.711H654.423V287.718H644.176V285.711Z" fill="white"/>
<path d="M640.652 285.711H642.927V295.744H640.652V285.711Z" fill="white"/>
<path d="M635.514 290.795L635.728 290.34C636.504 290.358 637.146 290.482 637.654 290.714C638.162 290.937 638.537 291.245 638.778 291.637C639.019 292.021 639.139 292.462 639.139 292.962C639.139 293.497 639.01 293.974 638.751 294.393C638.501 294.812 638.131 295.142 637.641 295.383C637.15 295.624 636.535 295.744 635.795 295.744H628.758L629.534 290.594L628.758 285.711H635.54C636.468 285.711 637.186 285.929 637.694 286.366C638.212 286.795 638.47 287.388 638.47 288.146C638.47 288.556 638.372 288.953 638.176 289.336C637.989 289.72 637.676 290.045 637.239 290.313C636.811 290.572 636.236 290.732 635.514 290.795ZM631.005 295.169L630.136 294.072H635.326C635.808 294.072 636.178 293.961 636.437 293.738C636.704 293.506 636.838 293.185 636.838 292.774C636.838 292.355 636.686 292.025 636.383 291.784C636.08 291.535 635.634 291.41 635.045 291.41H630.818V289.778H634.778C635.179 289.778 635.509 289.666 635.768 289.443C636.035 289.211 636.169 288.89 636.169 288.48C636.169 288.168 636.058 287.909 635.835 287.704C635.612 287.49 635.291 287.383 634.871 287.383H630.136L631.005 286.286L631.714 290.594L631.005 295.169Z" fill="white"/>
<path d="M627.622 291.664C627.524 292.511 627.225 293.26 626.725 293.911C626.235 294.553 625.584 295.053 624.772 295.409C623.97 295.766 623.051 295.945 622.016 295.945C620.875 295.945 619.872 295.726 619.006 295.289C618.15 294.852 617.481 294.246 617 293.47C616.518 292.685 616.277 291.771 616.277 290.727C616.277 289.684 616.518 288.774 617 287.998C617.481 287.213 618.15 286.602 619.006 286.165C619.872 285.728 620.875 285.51 622.016 285.51C623.051 285.51 623.97 285.688 624.772 286.045C625.584 286.402 626.235 286.901 626.725 287.543C627.225 288.185 627.524 288.935 627.622 289.791H625.334C625.245 289.318 625.053 288.912 624.759 288.573C624.465 288.225 624.086 287.958 623.622 287.771C623.158 287.583 622.618 287.49 622.003 287.49C621.299 287.49 620.688 287.623 620.17 287.891C619.662 288.15 619.27 288.524 618.993 289.015C618.717 289.496 618.578 290.067 618.578 290.727C618.578 291.387 618.717 291.962 618.993 292.453C619.27 292.934 619.662 293.309 620.17 293.577C620.688 293.835 621.299 293.965 622.003 293.965C622.618 293.965 623.158 293.875 623.622 293.697C624.086 293.51 624.465 293.247 624.759 292.908C625.053 292.56 625.245 292.145 625.334 291.664H627.622Z" fill="white"/>
<path d="M609.332 295.945C608.164 295.945 607.138 295.726 606.255 295.289C605.381 294.852 604.699 294.246 604.208 293.47C603.718 292.685 603.473 291.771 603.473 290.727C603.473 289.684 603.718 288.774 604.208 287.998C604.699 287.213 605.381 286.602 606.255 286.165C607.138 285.728 608.164 285.51 609.332 285.51C610.501 285.51 611.522 285.728 612.396 286.165C613.279 286.602 613.965 287.213 614.456 287.998C614.946 288.774 615.192 289.684 615.192 290.727C615.192 291.771 614.946 292.685 614.456 293.47C613.965 294.246 613.279 294.852 612.396 295.289C611.522 295.726 610.501 295.945 609.332 295.945ZM609.332 293.924C610.063 293.924 610.692 293.795 611.218 293.536C611.754 293.278 612.164 292.908 612.449 292.426C612.744 291.945 612.891 291.378 612.891 290.727C612.891 290.076 612.744 289.51 612.449 289.028C612.164 288.547 611.754 288.176 611.218 287.918C610.692 287.659 610.063 287.53 609.332 287.53C608.61 287.53 607.981 287.659 607.446 287.918C606.911 288.176 606.496 288.547 606.202 289.028C605.916 289.51 605.774 290.076 605.774 290.727C605.774 291.378 605.916 291.945 606.202 292.426C606.496 292.908 606.911 293.278 607.446 293.536C607.981 293.795 608.61 293.924 609.332 293.924Z" fill="white"/>
<path d="M598.867 290.152H602.172V291.958H598.867V290.152Z" fill="white"/>
<path d="M586.777 285.711H589.052V295.744H586.777V285.711ZM594.804 285.711H597.078V295.744H594.804V285.711ZM588.021 289.671H595.807V291.664H588.021V289.671Z" fill="white"/>
<path d="M573.883 295.744V285.71H576.104V294.593L575.421 294.459L581.762 285.71H584.719V295.744H582.498V286.74L583.18 286.874L576.759 295.744H573.883ZM576.077 282.74H577.883C577.99 283.052 578.155 283.293 578.378 283.463C578.61 283.632 578.9 283.717 579.247 283.717C579.595 283.717 579.881 283.632 580.104 283.463C580.335 283.293 580.5 283.052 580.599 282.74H582.418C582.24 283.525 581.869 284.1 581.308 284.466C580.746 284.832 580.059 285.014 579.247 285.014C578.436 285.014 577.749 284.832 577.187 284.466C576.625 284.1 576.255 283.525 576.077 282.74Z" fill="white"/>
<path d="M563.118 293.631V291.784H570.075V293.631H563.118ZM568.108 285.711L572.804 295.744H570.382L566.275 286.634H567.024L562.917 295.744H560.496L565.192 285.711H568.108Z" fill="white"/>
<path d="M549.961 285.711H559.406V295.744H557.145V286.688L558.162 287.718H551.219L552.182 286.968C552.254 287.62 552.303 288.244 552.329 288.841C552.365 289.439 552.383 290.001 552.383 290.527C552.383 291.793 552.271 292.824 552.048 293.617C551.825 294.411 551.478 294.995 551.005 295.37C550.532 295.744 549.912 295.932 549.145 295.932C548.842 295.932 548.539 295.896 548.236 295.825C547.932 295.762 547.656 295.669 547.406 295.544V293.644C547.79 293.796 548.146 293.871 548.476 293.871C549.101 293.871 549.551 293.586 549.828 293.015C550.104 292.436 550.242 291.495 550.242 290.193C550.242 289.604 550.22 288.935 550.175 288.186C550.131 287.437 550.06 286.612 549.961 285.711Z" fill="white"/>
<path d="M535.918 285.711H538.192V295.744H535.918V285.711ZM543.945 285.711H546.219V295.744H543.945V285.711ZM537.162 289.671H544.948V291.664H537.162V289.671Z" fill="white"/>
<path d="M528.492 295.945C527.324 295.945 526.298 295.726 525.415 295.289C524.541 294.852 523.859 294.246 523.369 293.47C522.878 292.685 522.633 291.771 522.633 290.727C522.633 289.684 522.878 288.774 523.369 287.998C523.859 287.213 524.541 286.602 525.415 286.165C526.298 285.728 527.324 285.51 528.492 285.51C529.661 285.51 530.682 285.728 531.556 286.165C532.439 286.602 533.126 287.213 533.616 287.998C534.107 288.774 534.352 289.684 534.352 290.727C534.352 291.771 534.107 292.685 533.616 293.47C533.126 294.246 532.439 294.852 531.556 295.289C530.682 295.726 529.661 295.945 528.492 295.945ZM528.492 293.924C529.224 293.924 529.852 293.795 530.379 293.536C530.914 293.278 531.324 292.908 531.609 292.426C531.904 291.945 532.051 291.378 532.051 290.727C532.051 290.076 531.904 289.51 531.609 289.028C531.324 288.547 530.914 288.176 530.379 287.918C529.852 287.659 529.224 287.53 528.492 287.53C527.77 287.53 527.141 287.659 526.606 287.918C526.071 288.176 525.656 288.547 525.362 289.028C525.077 289.51 524.934 290.076 524.934 290.727C524.934 291.378 525.077 291.945 525.362 292.426C525.656 292.908 526.071 293.278 526.606 293.536C527.141 293.795 527.77 293.924 528.492 293.924Z" fill="white"/>
</g>
<g opacity="0.2">
<path d="M408.375 37.2335H417.931M417.134 40.4187C417.345 40.4187 417.548 40.3348 417.697 40.1855C417.847 40.0361 417.931 39.8336 417.931 39.6224V35.3622C417.931 34.9983 418.182 34.6901 418.509 34.5332C419.187 34.21 419.729 33.6577 420.039 32.974C420.349 32.2902 420.408 31.5189 420.204 30.7962C420.001 30.0734 419.549 29.4457 418.928 29.0237C418.307 28.6018 417.557 28.4128 416.81 28.4901C416.503 27.7752 415.992 27.1661 415.342 26.7381C414.692 26.3101 413.931 26.082 413.153 26.082C412.375 26.082 411.613 26.3101 410.963 26.7381C410.313 27.1661 409.803 27.7752 409.495 28.4901C408.749 28.4133 407.999 28.6026 407.379 29.0245C406.758 29.4464 406.306 30.0739 406.103 30.7963C405.9 31.5186 405.959 32.2896 406.268 32.9731C406.578 33.6566 407.119 34.2088 407.796 34.5324C408.123 34.6901 408.375 34.9983 408.375 35.3614V39.6224C408.375 39.8336 408.459 40.0361 408.608 40.1855C408.758 40.3348 408.96 40.4187 409.171 40.4187H417.134Z" stroke="white" stroke-width="1.91113" stroke-linecap="round" stroke-linejoin="round"/>
<path d="M621.946 35.5718C621.848 36.4191 621.549 37.1682 621.05 37.8193C620.559 38.4614 619.908 38.9609 619.097 39.3176C618.294 39.6743 617.375 39.8527 616.341 39.8527C615.199 39.8527 614.196 39.6342 613.331 39.1972C612.474 38.7602 611.806 38.1537 611.324 37.3778C610.842 36.593 610.602 35.6788 610.602 34.6353C610.602 33.5919 610.842 32.6822 611.324 31.9063C611.806 31.1214 612.474 30.5105 613.331 30.0735C614.196 29.6365 615.199 29.418 616.341 29.418C617.375 29.418 618.294 29.5963 619.097 29.9531C619.908 30.3098 620.559 30.8093 621.05 31.4514C621.549 32.0935 621.848 32.8427 621.946 33.6989H619.658C619.569 33.2262 619.377 32.8204 619.083 32.4815C618.789 32.1337 618.41 31.8661 617.946 31.6788C617.482 31.4915 616.943 31.3979 616.327 31.3979C615.623 31.3979 615.012 31.5317 614.495 31.7992C613.986 32.0579 613.594 32.4325 613.317 32.923C613.041 33.4046 612.903 33.9754 612.903 34.6353C612.903 35.2953 613.041 35.8706 613.317 36.3611C613.594 36.8427 613.986 37.2173 614.495 37.4848C615.012 37.7435 615.623 37.8728 616.327 37.8728C616.943 37.8728 617.482 37.7836 617.946 37.6052C618.41 37.4179 618.789 37.1548 619.083 36.8159C619.377 36.4681 619.569 36.0534 619.658 35.5718H621.946Z" fill="white"/>
<path d="M609.096 33.7663V35.5054H601.912V33.7663H609.096ZM603.437 34.6358L602.768 38.89L601.778 37.7663H609.511V39.6526H600.48L601.256 34.6358L600.48 29.6191H609.444V31.5054H601.778L602.768 30.3817L603.437 34.6358Z" fill="white"/>
<path d="M588.441 29.6191H590.716V39.6526H588.441V29.6191ZM596.468 29.6191H598.742V39.6526H596.468V29.6191ZM589.686 33.579H597.471V35.5723H589.686V33.579Z" fill="white"/>
<path d="M581.872 39.8527C580.837 39.8527 579.937 39.71 579.17 39.4246C578.403 39.1303 577.805 38.7156 577.377 38.1805C576.949 37.6454 576.713 37.0166 576.668 36.2942H578.942C579.022 36.8739 579.308 37.3198 579.798 37.632C580.298 37.9352 580.989 38.0868 581.872 38.0868C582.71 38.0868 583.357 37.9664 583.812 37.7256C584.276 37.4759 584.507 37.1058 584.507 36.6153C584.507 36.1961 584.311 35.8884 583.919 35.6922C583.535 35.4871 582.915 35.3845 582.059 35.3845H580.133V33.846H582.019C582.527 33.846 582.947 33.7925 583.277 33.6855C583.607 33.5785 583.852 33.4269 584.012 33.2307C584.173 33.0255 584.253 32.7981 584.253 32.5484C584.253 32.2541 584.155 32.0088 583.959 31.8126C583.772 31.6075 583.5 31.4514 583.143 31.3444C582.795 31.2374 582.376 31.1838 581.885 31.1838C581.083 31.1838 580.445 31.3355 579.972 31.6387C579.5 31.933 579.223 32.3433 579.143 32.8695H576.882C576.936 32.2273 577.163 31.6476 577.564 31.1303C577.975 30.6041 578.554 30.1894 579.303 29.8862C580.053 29.574 580.949 29.418 581.992 29.418C582.92 29.418 583.723 29.5384 584.4 29.7792C585.087 30.0111 585.618 30.3366 585.992 30.7558C586.376 31.1749 586.568 31.661 586.568 32.2139C586.568 32.6688 586.429 33.088 586.153 33.4715C585.885 33.855 585.466 34.1582 584.895 34.3812C584.333 34.6041 583.607 34.7112 582.715 34.7022V34.4481C583.571 34.4035 584.302 34.4659 584.909 34.6353C585.524 34.8048 585.997 35.0679 586.327 35.4246C586.666 35.7725 586.835 36.2229 586.835 36.7758C586.835 37.3823 586.639 37.9174 586.247 38.3811C585.863 38.8449 585.301 39.2061 584.561 39.4648C583.821 39.7234 582.924 39.8527 581.872 39.8527Z" fill="white"/>
<path d="M573.027 29.6191H575.302V39.6526H573.027V29.6191Z" fill="white"/>
<path d="M563.417 33.5389H567.965C568.768 33.5389 569.437 33.6682 569.972 33.9268C570.507 34.1765 570.908 34.5333 571.176 34.997C571.443 35.4519 571.577 35.987 571.577 36.6024C571.577 37.2178 571.43 37.7529 571.136 38.2077C570.85 38.6626 570.435 39.0193 569.891 39.278C569.356 39.5277 568.714 39.6526 567.965 39.6526H561.664L562.44 34.395L561.664 29.6191H570.774V31.4118H563.069L563.938 30.3148L564.607 34.3549L563.898 39.0104L563.029 37.9402H567.711C568.201 37.9402 568.589 37.8153 568.875 37.5656C569.169 37.3159 569.316 36.977 569.316 36.5489C569.316 36.1208 569.169 35.7819 568.875 35.5322C568.58 35.2824 568.188 35.1576 567.697 35.1576H563.417V33.5389Z" fill="white"/>
<path d="M545.668 39.6517V29.6183H547.889V38.5012L547.206 38.3675L553.548 29.6183H556.504V39.6517H554.283V30.6484L554.966 30.7822L548.544 39.6517H545.668ZM547.862 26.6484H549.668C549.775 26.9606 549.94 27.2014 550.163 27.3708C550.395 27.5403 550.685 27.625 551.033 27.625C551.38 27.625 551.666 27.5403 551.889 27.3708C552.121 27.2014 552.286 26.9606 552.384 26.6484H554.203C554.025 27.4333 553.655 28.0085 553.093 28.3742C552.531 28.7398 551.844 28.9227 551.033 28.9227C550.221 28.9227 549.534 28.7398 548.972 28.3742C548.41 28.0085 548.04 27.4333 547.862 26.6484Z" fill="white"/>
<path d="M532.773 39.6526V29.6191H534.994V38.5021L534.312 38.3683L540.653 29.6191H543.61V39.6526H541.389V30.6492L542.071 30.783L535.65 39.6526H532.773Z" fill="white"/>
<path d="M520.414 29.6191H522.688V39.6526H520.414V29.6191ZM528.441 29.6191H530.715V39.6526H528.441V29.6191ZM521.658 33.579H529.444V35.5723H521.658V33.579Z" fill="white"/>
<path d="M508.059 29.6191H510.333V39.6526H508.059V29.6191ZM516.085 29.6191H518.36V39.6526H516.085V29.6191ZM509.303 33.579H517.089V35.5723H509.303V33.579Z" fill="white"/>
<path d="M497.29 37.5388V35.6927H504.247V37.5388H497.29ZM502.28 29.6191L506.976 39.6526H504.554L500.447 30.5422H501.196L497.089 39.6526H494.668L499.364 29.6191H502.28Z" fill="white"/>
<path d="M491.671 29.6191C492.465 29.6191 493.151 29.7574 493.731 30.0339C494.311 30.3103 494.752 30.6983 495.055 31.1977C495.368 31.6972 495.524 32.2769 495.524 32.9369C495.524 33.5968 495.368 34.1765 495.055 34.676C494.752 35.1665 494.311 35.5545 493.731 35.8399C493.151 36.1163 492.465 36.2546 491.671 36.2546H487.243V34.3817H491.55C492.077 34.3817 492.487 34.2523 492.781 33.9937C493.084 33.7351 493.236 33.3828 493.236 32.9369C493.236 32.482 493.084 32.1297 492.781 31.88C492.487 31.6214 492.077 31.492 491.55 31.492H487.443L488.473 30.4084V39.6526H486.199V29.6191H491.671Z" fill="white"/>
<path d="M478.774 39.8527C477.605 39.8527 476.58 39.6342 475.697 39.1972C474.823 38.7602 474.14 38.1537 473.65 37.3778C473.159 36.593 472.914 35.6788 472.914 34.6353C472.914 33.5919 473.159 32.6822 473.65 31.9063C474.14 31.1214 474.823 30.5105 475.697 30.0735C476.58 29.6365 477.605 29.418 478.774 29.418C479.942 29.418 480.963 29.6365 481.837 30.0735C482.72 30.5105 483.407 31.1214 483.897 31.9063C484.388 32.6822 484.633 33.5919 484.633 34.6353C484.633 35.6788 484.388 36.593 483.897 37.3778C483.407 38.1537 482.72 38.7602 481.837 39.1972C480.963 39.6342 479.942 39.8527 478.774 39.8527ZM478.774 37.8327C479.505 37.8327 480.134 37.7033 480.66 37.4447C481.195 37.1861 481.605 36.8159 481.891 36.3343C482.185 35.8527 482.332 35.2864 482.332 34.6353C482.332 33.9843 482.185 33.418 481.891 32.9364C481.605 32.4547 481.195 32.0846 480.66 31.826C480.134 31.5673 479.505 31.438 478.774 31.438C478.051 31.438 477.422 31.5673 476.887 31.826C476.352 32.0846 475.937 32.4547 475.643 32.9364C475.358 33.418 475.215 33.9843 475.215 34.6353C475.215 35.2864 475.358 35.8527 475.643 36.3343C475.937 36.8159 476.352 37.1861 476.887 37.4447C477.422 37.7033 478.051 37.8327 478.774 37.8327Z" fill="white"/>
<path d="M466.363 30.6359H468.624V39.6526H466.363V30.6359ZM462.363 29.6191H472.611V31.6258H462.363V29.6191Z" fill="white"/>
<path d="M462.118 35.5718C462.02 36.4191 461.721 37.1682 461.222 37.8193C460.731 38.4614 460.08 38.9609 459.268 39.3176C458.466 39.6743 457.547 39.8527 456.513 39.8527C455.371 39.8527 454.368 39.6342 453.503 39.1972C452.646 38.7602 451.977 38.1537 451.496 37.3778C451.014 36.593 450.773 35.6788 450.773 34.6353C450.773 33.5919 451.014 32.6822 451.496 31.9063C451.977 31.1214 452.646 30.5105 453.503 30.0735C454.368 29.6365 455.371 29.418 456.513 29.418C457.547 29.418 458.466 29.5963 459.268 29.9531C460.08 30.3098 460.731 30.8093 461.222 31.4514C461.721 32.0935 462.02 32.8427 462.118 33.6989H459.83C459.741 33.2262 459.549 32.8204 459.255 32.4815C458.961 32.1337 458.582 31.8661 458.118 31.6788C457.654 31.4915 457.115 31.3979 456.499 31.3979C455.795 31.3979 455.184 31.5317 454.666 31.7992C454.158 32.0579 453.766 32.4325 453.489 32.923C453.213 33.4046 453.074 33.9754 453.074 34.6353C453.074 35.2953 453.213 35.8706 453.489 36.3611C453.766 36.8427 454.158 37.2173 454.666 37.4848C455.184 37.7435 455.795 37.8728 456.499 37.8728C457.115 37.8728 457.654 37.7836 458.118 37.6052C458.582 37.4179 458.961 37.1548 459.255 36.8159C459.549 36.4681 459.741 36.0534 459.83 35.5718H462.118Z" fill="white"/>
<path d="M449.268 33.7663V35.5054H442.084V33.7663H449.268ZM443.609 34.6358L442.94 38.89L441.95 37.7663H449.682V39.6526H440.652L441.428 34.6358L440.652 29.6191H449.616V31.5054H441.95L442.94 30.3817L443.609 34.6358Z" fill="white"/>
<path d="M435.823 29.6191C436.617 29.6191 437.304 29.7574 437.883 30.0339C438.463 30.3103 438.904 30.6983 439.208 31.1977C439.52 31.6972 439.676 32.2769 439.676 32.9369C439.676 33.5968 439.52 34.1765 439.208 34.676C438.904 35.1665 438.463 35.5545 437.883 35.8399C437.304 36.1163 436.617 36.2546 435.823 36.2546H431.395V34.3817H435.703C436.229 34.3817 436.639 34.2523 436.933 33.9937C437.237 33.7351 437.388 33.3828 437.388 32.9369C437.388 32.482 437.237 32.1297 436.933 31.88C436.639 31.6214 436.229 31.492 435.703 31.492H431.596L432.626 30.4084V39.6526H430.352V29.6191H435.823Z" fill="white"/>
</g>
<g opacity="0.4">
<path d="M38.0224 98.1419C39.5729 98.1419 41.0598 97.526 42.1562 96.4296C43.2525 95.3333 43.8684 93.8463 43.8684 92.2958C43.8684 90.7454 43.2525 89.2584 42.1562 88.1621C41.0598 87.0657 39.5729 86.4498 38.0224 86.4498M38.0224 98.1419C36.4719 98.1419 34.985 97.526 33.8886 96.4296C32.7923 95.3333 32.1764 93.8463 32.1764 92.2958M38.0224 98.1419V99.6034M38.0224 86.4498C36.4719 86.4498 34.985 87.0657 33.8886 88.1621C32.7923 89.2584 32.1764 90.7454 32.1764 92.2958M38.0224 86.4498V84.9883M32.1764 92.2958H30.7148M39.4839 92.2958C39.4839 92.6835 39.3299 93.0552 39.0558 93.3293C38.7818 93.6034 38.41 93.7573 38.0224 93.7573C37.6348 93.7573 37.263 93.6034 36.989 93.3293C36.7149 93.0552 36.5609 92.6835 36.5609 92.2958C36.5609 91.9082 36.7149 91.5365 36.989 91.2624C37.263 90.9883 37.6348 90.8343 38.0224 90.8343C38.41 90.8343 38.7818 90.9883 39.0558 91.2624C39.3299 91.5365 39.4839 91.9082 39.4839 92.2958ZM39.4839 92.2958H45.33M41.6762 98.6242L40.9454 97.36M37.2916 91.0316L34.3686 85.9675M44.3507 95.9496L43.0865 95.2189M31.6941 88.6421L32.9583 89.3728M44.3507 88.6421L43.0865 89.3728M31.6941 95.9496L32.9583 95.2189M41.6762 85.9675L40.9454 87.2317M37.2916 93.56L34.3686 98.6242" stroke="white" stroke-width="2.19227" stroke-linecap="round" stroke-linejoin="round"/>
<path d="M244.774 87.1998C244.385 87.1998 244.084 87.0872 243.869 86.8621C243.644 86.6268 243.531 86.3148 243.531 85.9261C243.531 85.5373 243.644 85.2304 243.869 85.0053C244.084 84.77 244.385 84.6523 244.774 84.6523C245.153 84.6523 245.455 84.77 245.68 85.0053C245.905 85.2304 246.017 85.5373 246.017 85.9261C246.017 86.3148 245.905 86.6268 245.68 86.8621C245.455 87.0872 245.153 87.1998 244.774 87.1998ZM247.966 87.1998C247.588 87.1998 247.286 87.0872 247.061 86.8621C246.836 86.6268 246.723 86.3148 246.723 85.9261C246.723 85.5373 246.836 85.2304 247.061 85.0053C247.286 84.77 247.588 84.6523 247.966 84.6523C248.345 84.6523 248.647 84.77 248.872 85.0053C249.097 85.2304 249.209 85.5373 249.209 85.9261C249.209 86.3148 249.097 86.6268 248.872 86.8621C248.647 87.0872 248.345 87.1998 247.966 87.1998ZM245.066 88.1972H247.675V99.7066H245.066V88.1972Z" fill="white"/>
<path d="M240.105 88.1973H242.714V99.7067H240.105V88.1973Z" fill="white"/>
<path d="M225.93 88.1973H228.538V99.7067H225.93V88.1973ZM235.137 88.1973H237.746V99.7067H235.137V88.1973ZM227.357 92.7396H236.288V95.0262H227.357V92.7396Z" fill="white"/>
<path d="M213.578 97.282V95.1643H221.558V97.282H213.578ZM219.302 88.1973L224.689 99.7067H221.911L217.2 89.2561H218.059L213.348 99.7067H210.57L215.957 88.1973H219.302Z" fill="white"/>
<path d="M209.329 88.1973V99.7067H206.736V89.3175L207.917 90.4991H199.001L200.183 89.3175V99.7067H197.574V88.1973H209.329Z" fill="white"/>
<path d="M195.226 88.1973V99.7067H192.74V89.072L193.399 89.118L188.489 99.7067H185.803L180.893 89.1487L181.537 89.0873V99.7067H179.066V88.1973H183.072L187.706 98.4483H186.586L191.22 88.1973H195.226Z" fill="white"/>
<path d="M170.55 99.9366C169.209 99.9366 168.033 99.6859 167.02 99.1846C166.017 98.6833 165.235 97.9876 164.672 97.0976C164.109 96.1973 163.828 95.1487 163.828 93.9517C163.828 92.7547 164.109 91.7112 164.672 90.8211C165.235 89.9208 166.017 89.22 167.02 88.7187C168.033 88.2174 169.209 87.9668 170.55 87.9668C171.89 87.9668 173.061 88.2174 174.064 88.7187C175.077 89.22 175.864 89.9208 176.427 90.8211C176.99 91.7112 177.271 92.7547 177.271 93.9517C177.271 95.1487 176.99 96.1973 176.427 97.0976C175.864 97.9876 175.077 98.6833 174.064 99.1846C173.061 99.6859 171.89 99.9366 170.55 99.9366ZM170.55 97.6193C171.389 97.6193 172.11 97.471 172.713 97.1743C173.327 96.8776 173.798 96.4531 174.125 95.9006C174.463 95.3482 174.632 94.6985 174.632 93.9517C174.632 93.2049 174.463 92.5552 174.125 92.0028C173.798 91.4503 173.327 91.0257 172.713 90.7291C172.11 90.4324 171.389 90.284 170.55 90.284C169.721 90.284 169 90.4324 168.386 90.7291C167.772 91.0257 167.296 91.4503 166.959 92.0028C166.631 92.5552 166.468 93.2049 166.468 93.9517C166.468 94.6985 166.631 95.3482 166.959 95.9006C167.296 96.4531 167.772 96.8776 168.386 97.1743C169 97.471 169.721 97.6193 170.55 97.6193Z" fill="white"/>
<path d="M152.062 99.7067V88.1973H154.656V97.5889L153.919 97.0672L161.04 88.1973H163.817L154.41 99.7067H152.062ZM157.556 94.0747L159.429 92.402L163.986 99.7067H161.009L157.556 94.0747Z" fill="white"/>
<path d="M143.176 88.1973H145.785V99.7067H143.176V88.1973Z" fill="white"/>
<path d="M128.996 88.1973H131.605V99.7067H128.996V88.1973ZM138.204 88.1973H140.812V99.7067H138.204V88.1973ZM130.423 92.7396H139.355V95.0262H130.423V92.7396Z" fill="white"/>
<path d="M127.298 95.0259C127.186 95.9978 126.843 96.8572 126.27 97.604C125.708 98.3406 124.961 98.9135 124.03 99.3227C123.109 99.732 122.055 99.9366 120.869 99.9366C119.559 99.9366 118.408 99.6859 117.416 99.1846C116.434 98.6833 115.666 97.9876 115.114 97.0976C114.561 96.1973 114.285 95.1487 114.285 93.9517C114.285 92.7547 114.561 91.7112 115.114 90.8211C115.666 89.9208 116.434 89.22 117.416 88.7187C118.408 88.2174 119.559 87.9668 120.869 87.9668C122.055 87.9668 123.109 88.1714 124.03 88.5806C124.961 88.9899 125.708 89.5628 126.27 90.2994C126.843 91.036 127.186 91.8953 127.298 92.8775H124.674C124.572 92.3353 124.352 91.8698 124.014 91.481C123.677 91.082 123.242 90.7751 122.71 90.5602C122.178 90.3454 121.559 90.238 120.853 90.238C120.045 90.238 119.344 90.3914 118.751 90.6984C118.168 90.995 117.718 91.4247 117.4 91.9874C117.083 92.5399 116.925 93.1946 116.925 93.9517C116.925 94.7087 117.083 95.3686 117.4 95.9313C117.718 96.4838 118.168 96.9134 118.751 97.2204C119.344 97.517 120.045 97.6654 120.853 97.6654C121.559 97.6654 122.178 97.5631 122.71 97.3585C123.242 97.1436 123.677 96.8418 124.014 96.4531C124.352 96.0541 124.572 95.5783 124.674 95.0259H127.298Z" fill="white"/>
<path d="M109.875 88.1973H112.484V99.7067H109.875V88.1973Z" fill="white"/>
<path d="M103.98 94.0287L104.226 93.5069C105.116 93.5274 105.852 93.6706 106.435 93.9366C107.019 94.1924 107.448 94.5453 107.725 94.9955C108.001 95.4354 108.139 95.9418 108.139 96.5147C108.139 97.1286 107.991 97.6759 107.694 98.1567C107.407 98.6376 106.983 99.0161 106.42 99.2923C105.857 99.5686 105.152 99.7067 104.302 99.7067H96.2305L97.1205 93.7985L96.2305 88.1973H104.011C105.075 88.1973 105.898 88.4479 106.482 88.9492C107.075 89.4403 107.372 90.1206 107.372 90.9902C107.372 91.4608 107.259 91.9161 107.034 92.356C106.819 92.7959 106.461 93.1693 105.96 93.4762C105.469 93.7729 104.809 93.9571 103.98 94.0287ZM98.8086 99.0468L97.8111 97.7884H103.765C104.318 97.7884 104.742 97.6606 105.039 97.4048C105.346 97.1388 105.499 96.7705 105.499 96.2999C105.499 95.819 105.325 95.4405 104.978 95.1643C104.63 94.8778 104.118 94.7346 103.443 94.7346H98.5937V92.8624H103.136C103.596 92.8624 103.975 92.7345 104.272 92.4788C104.579 92.2128 104.732 91.8445 104.732 91.3739C104.732 91.0158 104.604 90.7191 104.348 90.4838C104.093 90.2383 103.724 90.1155 103.244 90.1155H97.8111L98.8086 88.8571L99.6219 93.7985L98.8086 99.0468Z" fill="white"/>
<path d="M90.6905 88.1973C91.601 88.1973 92.3888 88.3558 93.0538 88.673C93.7188 88.9901 94.2252 89.4352 94.573 90.0081C94.9311 90.581 95.1101 91.246 95.1101 92.003C95.1101 92.7601 94.9311 93.4251 94.573 93.998C94.2252 94.5607 93.7188 95.0057 93.0538 95.3331C92.3888 95.6502 91.601 95.8088 90.6905 95.8088H85.611V93.6604H90.5524C91.156 93.6604 91.6266 93.5121 91.9642 93.2154C92.3121 92.9187 92.486 92.5146 92.486 92.003C92.486 91.4813 92.3121 91.0772 91.9642 90.7907C91.6266 90.494 91.156 90.3457 90.5524 90.3457H85.8412L87.0229 89.1027V99.7067H84.4141V88.1973H90.6905Z" fill="white"/>
<path d="M81.9531 92.9545V94.9494H73.7123V92.9545H81.9531ZM75.4617 93.952L74.6945 98.832L73.5589 97.5429H82.4288V99.7067H72.0703L72.9604 93.952L72.0703 88.1973H82.352V90.361H73.5589L74.6945 89.072L75.4617 93.952Z" fill="white"/>
<path d="M70.7672 95.0259C70.6547 95.9978 70.3119 96.8572 69.739 97.604C69.1763 98.3406 68.4295 98.9135 67.4985 99.3227C66.5778 99.732 65.524 99.9366 64.3373 99.9366C63.0278 99.9366 61.8768 99.6859 60.8845 99.1846C59.9023 98.6833 59.135 97.9876 58.5826 97.0976C58.0301 96.1973 57.7539 95.1487 57.7539 93.9517C57.7539 92.7547 58.0301 91.7112 58.5826 90.8211C59.135 89.9208 59.9023 89.22 60.8845 88.7187C61.8768 88.2174 63.0278 87.9668 64.3373 87.9668C65.524 87.9668 66.5778 88.1714 67.4985 88.5806C68.4295 88.9899 69.1763 89.5628 69.739 90.2994C70.3119 91.036 70.6547 91.8953 70.7672 92.8775H68.1431C68.0408 92.3353 67.8208 91.8698 67.4832 91.481C67.1456 91.082 66.7108 90.7751 66.1788 90.5602C65.6468 90.3454 65.0278 90.238 64.3219 90.238C63.5137 90.238 62.8129 90.3914 62.2196 90.6984C61.6364 90.995 61.1863 91.4247 60.8691 91.9874C60.552 92.5399 60.3934 93.1946 60.3934 93.9517C60.3934 94.7087 60.552 95.3686 60.8691 95.9313C61.1863 96.4838 61.6364 96.9134 62.2196 97.2204C62.8129 97.517 63.5137 97.6654 64.3219 97.6654C65.0278 97.6654 65.6468 97.5631 66.1788 97.3585C66.7108 97.1436 67.1456 96.8418 67.4832 96.4531C67.8208 96.0541 68.0408 95.5783 68.1431 95.0259H70.7672Z" fill="white"/>
</g>
<g opacity="0.4">
<path d="M563.688 108.617H565.149L567.093 117.693C567.164 118.026 567.349 118.323 567.616 118.533C567.883 118.744 568.214 118.855 568.554 118.848H575.701C576.034 118.847 576.356 118.733 576.615 118.525C576.874 118.316 577.055 118.025 577.126 117.7L578.332 112.271H565.931M568.766 122.465C568.766 122.869 568.439 123.196 568.035 123.196C567.632 123.196 567.305 122.869 567.305 122.465C567.305 122.061 567.632 121.734 568.035 121.734C568.439 121.734 568.766 122.061 568.766 122.465ZM576.805 122.465C576.805 122.869 576.477 123.196 576.074 123.196C575.67 123.196 575.343 122.869 575.343 122.465C575.343 122.061 575.67 121.734 576.074 121.734C576.477 121.734 576.805 122.061 576.805 122.465Z" stroke="white" stroke-width="2.19227" stroke-linecap="round" stroke-linejoin="round"/>
<path d="M722.726 114.91V116.905H714.486V114.91H722.726ZM716.235 115.907L715.468 120.787L714.332 119.498H723.202V121.662H712.844L713.734 115.907L712.844 110.152H723.125V112.316H714.332L715.468 111.027L716.235 115.907Z" fill="white"/>
<path d="M711.541 116.981C711.428 117.953 711.085 118.812 710.512 119.559C709.95 120.296 709.203 120.869 708.272 121.278C707.351 121.687 706.297 121.892 705.111 121.892C703.801 121.892 702.65 121.641 701.658 121.14C700.676 120.638 699.908 119.943 699.356 119.053C698.804 118.152 698.527 117.104 698.527 115.907C698.527 114.71 698.804 113.666 699.356 112.776C699.908 111.876 700.676 111.175 701.658 110.674C702.65 110.173 703.801 109.922 705.111 109.922C706.297 109.922 707.351 110.126 708.272 110.536C709.203 110.945 709.95 111.518 710.512 112.254C711.085 112.991 711.428 113.85 711.541 114.833H708.916C708.814 114.29 708.594 113.825 708.257 113.436C707.919 113.037 707.484 112.73 706.952 112.515C706.42 112.3 705.801 112.193 705.095 112.193C704.287 112.193 703.586 112.347 702.993 112.653C702.41 112.95 701.96 113.38 701.643 113.942C701.325 114.495 701.167 115.15 701.167 115.907C701.167 116.664 701.325 117.324 701.643 117.886C701.96 118.439 702.41 118.869 702.993 119.175C703.586 119.472 704.287 119.62 705.095 119.62C705.801 119.62 706.42 119.518 706.952 119.314C707.484 119.099 707.919 118.797 708.257 118.408C708.594 118.009 708.814 117.533 708.916 116.981H711.541Z" fill="white"/>
<path d="M688.26 115.263H692.695C693.278 115.263 693.739 115.13 694.076 114.864C694.424 114.587 694.598 114.209 694.598 113.728C694.598 113.247 694.424 112.874 694.076 112.608C693.739 112.342 693.278 112.209 692.695 112.209H687.876L689.058 110.874V121.662H686.449V110.152H693.002C693.841 110.152 694.577 110.306 695.212 110.613C695.846 110.909 696.342 111.324 696.7 111.856C697.058 112.388 697.237 113.012 697.237 113.728C697.237 114.434 697.058 115.053 696.7 115.585C696.342 116.117 695.846 116.536 695.212 116.843C694.577 117.14 693.841 117.288 693.002 117.288H688.26V115.263ZM690.255 116.275H693.232L697.575 121.662H694.521L690.255 116.275Z" fill="white"/>
<path d="M683.988 114.91V116.905H675.747V114.91H683.988ZM677.497 115.907L676.73 120.787L675.594 119.498H684.464V121.662H674.105L674.996 115.907L674.105 110.152H684.387V112.316H675.594L676.73 111.027L677.497 115.907Z" fill="white"/>
<path d="M672.124 110.152V121.662H669.638V111.027L670.298 111.073L665.387 121.662H662.702L657.791 111.104L658.436 111.042V121.662H655.965V110.152H659.97L664.605 120.403H663.484L668.119 110.152H672.124Z" fill="white"/>
<path d="M653.616 110.152V121.662H651.13V111.027L651.79 111.073L646.879 121.662H644.194L639.283 111.104L639.928 111.042V121.662H637.457V110.152H641.462L646.097 120.403H644.977L649.611 110.152H653.616Z" fill="white"/>
<path d="M628.94 121.892C627.6 121.892 626.424 121.641 625.411 121.14C624.408 120.638 623.625 119.943 623.063 119.053C622.5 118.152 622.219 117.104 622.219 115.907C622.219 114.71 622.5 113.666 623.063 112.776C623.625 111.876 624.408 111.175 625.411 110.674C626.424 110.173 627.6 109.922 628.94 109.922C630.28 109.922 631.452 110.173 632.454 110.674C633.467 111.175 634.255 111.876 634.818 112.776C635.38 113.666 635.662 114.71 635.662 115.907C635.662 117.104 635.38 118.152 634.818 119.053C634.255 119.943 633.467 120.638 632.454 121.14C631.452 121.641 630.28 121.892 628.94 121.892ZM628.94 119.574C629.779 119.574 630.5 119.426 631.104 119.129C631.718 118.833 632.188 118.408 632.516 117.856C632.853 117.303 633.022 116.654 633.022 115.907C633.022 115.16 632.853 114.51 632.516 113.958C632.188 113.405 631.718 112.981 631.104 112.684C630.5 112.387 629.779 112.239 628.94 112.239C628.112 112.239 627.39 112.387 626.776 112.684C626.163 112.981 625.687 113.405 625.349 113.958C625.022 114.51 624.858 115.16 624.858 115.907C624.858 116.654 625.022 117.303 625.349 117.856C625.687 118.408 626.163 118.833 626.776 119.129C627.39 119.426 628.112 119.574 628.94 119.574Z" fill="white"/>
<path d="M621.084 116.981C620.971 117.953 620.628 118.812 620.055 119.559C619.493 120.296 618.746 120.869 617.815 121.278C616.894 121.687 615.84 121.892 614.654 121.892C613.344 121.892 612.193 121.641 611.201 121.14C610.219 120.638 609.451 119.943 608.899 119.053C608.347 118.152 608.07 117.104 608.07 115.907C608.07 114.71 608.347 113.666 608.899 112.776C609.451 111.876 610.219 111.175 611.201 110.674C612.193 110.173 613.344 109.922 614.654 109.922C615.84 109.922 616.894 110.126 617.815 110.536C618.746 110.945 619.493 111.518 620.055 112.254C620.628 112.991 620.971 113.85 621.084 114.833H618.459C618.357 114.29 618.137 113.825 617.8 113.436C617.462 113.037 617.027 112.73 616.495 112.515C615.963 112.3 615.344 112.193 614.638 112.193C613.83 112.193 613.129 112.347 612.536 112.653C611.953 112.95 611.503 113.38 611.186 113.942C610.868 114.495 610.71 115.15 610.71 115.907C610.71 116.664 610.868 117.324 611.186 117.886C611.503 118.439 611.953 118.869 612.536 119.175C613.129 119.472 613.83 119.62 614.638 119.62C615.344 119.62 615.963 119.518 616.495 119.314C617.027 119.099 617.462 118.797 617.8 118.408C618.137 118.009 618.357 117.533 618.459 116.981H621.084Z" fill="white"/>
<path d="M602.773 115.248H606.564V117.32H602.773V115.248Z" fill="white"/>
<path d="M600.621 114.91V116.905H592.38V114.91H600.621ZM594.13 115.907L593.362 120.787L592.227 119.498H601.097V121.662H590.738L591.628 115.907L590.738 110.152H601.02V112.316H592.227L593.362 111.027L594.13 115.907Z" fill="white"/>
</g>
<g opacity="0.4">
<path d="M319.621 231.152V223.844C319.621 223.602 319.525 223.37 319.354 223.198C319.183 223.027 318.95 222.931 318.708 222.931H315.054C314.812 222.931 314.58 223.027 314.408 223.198C314.237 223.37 314.141 223.602 314.141 223.844V231.152M308.66 221.104C308.66 220.838 308.718 220.576 308.83 220.335C308.942 220.094 309.105 219.88 309.308 219.708L315.702 214.228C316.032 213.95 316.449 213.797 316.881 213.797C317.313 213.797 317.731 213.95 318.06 214.228L324.455 219.708C324.657 219.88 324.821 220.094 324.932 220.335C325.044 220.576 325.102 220.838 325.102 221.104V229.325C325.102 229.809 324.91 230.274 324.567 230.617C324.224 230.959 323.76 231.152 323.275 231.152H310.487C310.003 231.152 309.538 230.959 309.195 230.617C308.853 230.274 308.66 229.809 308.66 229.325V221.104Z" stroke="white" stroke-width="2.19227" stroke-linecap="round" stroke-linejoin="round"/>
<path d="M592.898 217.176H595.507V228.685H592.898V217.176Z" fill="white"/>
<path d="M584.28 218.342H586.873V228.685H584.28V218.342ZM579.691 217.176H591.446V219.478H579.691V217.176Z" fill="white"/>
<path d="M579.404 224.004C579.291 224.976 578.949 225.836 578.376 226.583C577.813 227.319 577.066 227.892 576.135 228.301C575.215 228.71 574.161 228.915 572.974 228.915C571.664 228.915 570.514 228.664 569.521 228.163C568.539 227.662 567.772 226.966 567.219 226.076C566.667 225.176 566.391 224.127 566.391 222.93C566.391 221.733 566.667 220.69 567.219 219.8C567.772 218.899 568.539 218.199 569.521 217.697C570.514 217.196 571.664 216.945 572.974 216.945C574.161 216.945 575.215 217.15 576.135 217.559C577.066 217.968 577.813 218.541 578.376 219.278C578.949 220.014 579.291 220.874 579.404 221.856H576.78C576.677 221.314 576.458 220.848 576.12 220.46C575.782 220.061 575.347 219.754 574.816 219.539C574.284 219.324 573.665 219.217 572.959 219.217C572.15 219.217 571.45 219.37 570.856 219.677C570.273 219.974 569.823 220.403 569.506 220.966C569.189 221.518 569.03 222.173 569.03 222.93C569.03 223.687 569.189 224.347 569.506 224.91C569.823 225.462 570.273 225.892 570.856 226.199C571.45 226.496 572.15 226.644 572.959 226.644C573.665 226.644 574.284 226.542 574.816 226.337C575.347 226.122 575.782 225.82 576.12 225.432C576.458 225.033 576.677 224.557 576.78 224.004H579.404Z" fill="white"/>
<path d="M558.425 228.915C557.084 228.915 555.908 228.664 554.895 228.163C553.892 227.662 553.11 226.966 552.547 226.076C551.984 225.176 551.703 224.127 551.703 222.93C551.703 221.733 551.984 220.69 552.547 219.8C553.11 218.899 553.892 218.199 554.895 217.697C555.908 217.196 557.084 216.945 558.425 216.945C559.765 216.945 560.936 217.196 561.939 217.697C562.952 218.199 563.739 218.899 564.302 219.8C564.865 220.69 565.146 221.733 565.146 222.93C565.146 224.127 564.865 225.176 564.302 226.076C563.739 226.966 562.952 227.662 561.939 228.163C560.936 228.664 559.765 228.915 558.425 228.915ZM558.425 226.598C559.264 226.598 559.985 226.45 560.588 226.153C561.202 225.856 561.673 225.432 562 224.879C562.338 224.327 562.507 223.677 562.507 222.93C562.507 222.183 562.338 221.534 562 220.981C561.673 220.429 561.202 220.004 560.588 219.708C559.985 219.411 559.264 219.263 558.425 219.263C557.596 219.263 556.875 219.411 556.261 219.708C555.647 220.004 555.171 220.429 554.834 220.981C554.506 221.534 554.343 222.183 554.343 222.93C554.343 223.677 554.506 224.327 554.834 224.879C555.171 225.432 555.647 225.856 556.261 226.153C556.875 226.45 557.596 226.598 558.425 226.598Z" fill="white"/>
<path d="M549.925 217.176V228.685H547.439V218.05L548.099 218.097L543.188 228.685H540.502L535.592 218.127L536.236 218.066V228.685H533.766V217.176H537.771L542.405 227.427H541.285L545.92 217.176H549.925Z" fill="white"/>
<path d="M525.245 228.915C523.905 228.915 522.728 228.664 521.715 228.163C520.713 227.662 519.93 226.966 519.367 226.076C518.805 225.176 518.523 224.127 518.523 222.93C518.523 221.733 518.805 220.69 519.367 219.8C519.93 218.899 520.713 218.199 521.715 217.697C522.728 217.196 523.905 216.945 525.245 216.945C526.585 216.945 527.757 217.196 528.759 217.697C529.772 218.199 530.56 218.899 531.122 219.8C531.685 220.69 531.966 221.733 531.966 222.93C531.966 224.127 531.685 225.176 531.122 226.076C530.56 226.966 529.772 227.662 528.759 228.163C527.757 228.664 526.585 228.915 525.245 228.915ZM525.245 226.598C526.084 226.598 526.805 226.45 527.409 226.153C528.023 225.856 528.493 225.432 528.821 224.879C529.158 224.327 529.327 223.677 529.327 222.93C529.327 222.183 529.158 221.534 528.821 220.981C528.493 220.429 528.023 220.004 527.409 219.708C526.805 219.411 526.084 219.263 525.245 219.263C524.416 219.263 523.695 219.411 523.081 219.708C522.467 220.004 521.992 220.429 521.654 220.981C521.327 221.534 521.163 222.183 521.163 222.93C521.163 223.677 521.327 224.327 521.654 224.879C521.992 225.432 522.467 225.856 523.081 226.153C523.695 226.45 524.416 226.598 525.245 226.598Z" fill="white"/>
<path d="M513.453 223.468V221.918L518.963 228.685H515.755L511.827 223.667H513.039L509.095 228.685H505.949L511.474 221.933V223.437L506.302 217.176H509.54L513.131 221.718H511.888L515.433 217.176H518.61L513.453 223.468Z" fill="white"/>
<path d="M496.588 228.685L498.567 225.263H498.598L503.263 217.176H506.087L499.411 228.685H496.588ZM498.567 227.012L492.828 217.176H495.698L500.363 225.202L498.567 227.012Z" fill="white"/>
<path d="M488.413 217.176C489.324 217.176 490.111 217.334 490.776 217.652C491.441 217.969 491.948 218.414 492.296 218.987C492.654 219.56 492.833 220.224 492.833 220.982C492.833 221.739 492.654 222.404 492.296 222.977C491.948 223.539 491.441 223.984 490.776 224.312C490.111 224.629 489.324 224.787 488.413 224.787H483.334V222.639H488.275C488.879 222.639 489.349 222.491 489.687 222.194C490.035 221.897 490.209 221.493 490.209 220.982C490.209 220.46 490.035 220.056 489.687 219.769C489.349 219.473 488.879 219.324 488.275 219.324H483.564L484.746 218.081V228.685H482.137V217.176H488.413Z" fill="white"/>
<path d="M479.676 221.933V223.928H471.435V221.933H479.676ZM473.184 222.93L472.417 227.81L471.282 226.521H480.151V228.685H469.793L470.683 222.93L469.793 217.176H480.075V219.34H471.282L472.417 218.05L473.184 222.93Z" fill="white"/>
<path d="M455.984 217.176H458.593V228.685H455.984V217.176ZM465.192 217.176H467.801V228.685H465.192V217.176ZM457.412 221.718H466.343V224.005H457.412V221.718Z" fill="white"/>
<path d="M440.281 226.261V224.143H448.261V226.261H440.281ZM446.005 217.176L451.392 228.685H448.614L443.903 218.235H444.762L440.051 228.685H437.273L442.66 217.176H446.005Z" fill="white"/>
<path d="M433.05 223.007L433.296 222.485C434.186 222.506 434.923 222.649 435.506 222.915C436.089 223.171 436.519 223.524 436.795 223.974C437.071 224.414 437.209 224.92 437.209 225.493C437.209 226.107 437.061 226.654 436.764 227.135C436.478 227.616 436.053 227.995 435.49 228.271C434.928 228.547 434.222 228.685 433.373 228.685H425.301L426.191 222.777L425.301 217.176H433.081C434.145 217.176 434.969 217.426 435.552 217.928C436.145 218.419 436.442 219.099 436.442 219.969C436.442 220.439 436.329 220.895 436.104 221.335C435.889 221.774 435.531 222.148 435.03 222.455C434.539 222.751 433.879 222.936 433.05 223.007ZM427.879 228.025L426.881 226.767H432.836C433.388 226.767 433.813 226.639 434.109 226.383C434.416 226.117 434.57 225.749 434.57 225.278C434.57 224.798 434.396 224.419 434.048 224.143C433.7 223.856 433.189 223.713 432.513 223.713H427.664V221.841H432.206C432.667 221.841 433.045 221.713 433.342 221.457C433.649 221.191 433.802 220.823 433.802 220.352C433.802 219.994 433.675 219.698 433.419 219.462C433.163 219.217 432.795 219.094 432.314 219.094H426.881L427.879 217.836L428.692 222.777L427.879 228.025Z" fill="white"/>
<path d="M417.049 218.342H419.643V228.685H417.049V218.342ZM412.461 217.176H424.216V219.478H412.461V217.176Z" fill="white"/>
<path d="M412.173 224.004C412.061 224.976 411.718 225.836 411.145 226.583C410.583 227.319 409.836 227.892 408.905 228.301C407.984 228.71 406.93 228.915 405.744 228.915C404.434 228.915 403.283 228.664 402.291 228.163C401.309 227.662 400.541 226.966 399.989 226.076C399.436 225.176 399.16 224.127 399.16 222.93C399.16 221.733 399.436 220.69 399.989 219.8C400.541 218.899 401.309 218.199 402.291 217.697C403.283 217.196 404.434 216.945 405.744 216.945C406.93 216.945 407.984 217.15 408.905 217.559C409.836 217.968 410.583 218.541 411.145 219.278C411.718 220.014 412.061 220.874 412.173 221.856H409.549C409.447 221.314 409.227 220.848 408.889 220.46C408.552 220.061 408.117 219.754 407.585 219.539C407.053 219.324 406.434 219.217 405.728 219.217C404.92 219.217 404.219 219.37 403.626 219.677C403.043 219.974 402.593 220.403 402.275 220.966C401.958 221.518 401.8 222.173 401.8 222.93C401.8 223.687 401.958 224.347 402.275 224.91C402.593 225.462 403.043 225.892 403.626 226.199C404.219 226.496 404.92 226.644 405.728 226.644C406.434 226.644 407.053 226.542 407.585 226.337C408.117 226.122 408.552 225.82 408.889 225.432C409.227 225.033 409.447 224.557 409.549 224.004H412.173Z" fill="white"/>
<path d="M391.631 218.342H394.225V228.685H391.631V218.342ZM387.043 217.176H398.798V219.478H387.043V217.176Z" fill="white"/>
<path d="M373.785 217.176H376.394V228.685H373.785V217.176ZM382.993 217.176H385.601V228.685H382.993V217.176ZM375.212 221.718H384.144V224.005H375.212V221.718Z" fill="white"/>
<path d="M371.328 221.933V223.928H363.087V221.933H371.328ZM364.837 222.93L364.069 227.81L362.934 226.521H371.804V228.685H361.445L362.335 222.93L361.445 217.176H371.727V219.34H362.934L364.069 218.05L364.837 222.93Z" fill="white"/>
<path d="M360.363 217.176V219.493H353.396L354.578 218.311V228.685H351.969V217.176H360.363Z" fill="white"/>
<path d="M339.617 226.261V224.143H347.597V226.261H339.617ZM345.341 217.176L350.728 228.685H347.95L343.239 218.235H344.098L339.387 228.685H336.609L341.996 217.176H345.341Z" fill="white"/>
</g>
<g opacity="0.8">
<path d="M342.239 133.228L351.669 138.647M351.669 138.647L361.098 133.228M351.669 138.647V149.485M361.423 134.311C361.423 133.931 361.322 133.558 361.132 133.229C360.942 132.9 360.668 132.626 360.339 132.436L352.752 128.101C352.423 127.911 352.049 127.811 351.669 127.811C351.288 127.811 350.914 127.911 350.585 128.101L342.998 132.436C342.669 132.626 342.395 132.9 342.205 133.229C342.015 133.558 341.914 133.931 341.914 134.311V142.982C341.914 143.362 342.015 143.736 342.205 144.065C342.395 144.394 342.669 144.667 342.998 144.857L350.585 149.192C350.914 149.383 351.288 149.483 351.669 149.483C352.049 149.483 352.423 149.383 352.752 149.192L360.339 144.857C360.668 144.667 360.942 144.394 361.132 144.065C361.322 143.736 361.423 143.362 361.423 142.982V134.311Z" stroke="white" stroke-width="2.60121" stroke-linecap="round" stroke-linejoin="round"/>
<path d="M488.77 144.219V130.562H491.792V142.653L490.864 142.471L499.494 130.562H503.518V144.219H500.496V131.965L501.424 132.147L492.684 144.219H488.77Z" fill="white"/>
<path d="M473.281 144.219V130.562H476.358V141.706L475.484 141.087L483.933 130.562H487.229L476.067 144.219H473.281ZM479.8 137.536L482.021 135.552L487.429 144.219H483.897L479.8 137.536Z" fill="white"/>
<path d="M466.285 137.482L466.576 136.863C467.633 136.887 468.507 137.057 469.198 137.372C469.89 137.676 470.4 138.095 470.728 138.629C471.056 139.151 471.22 139.752 471.22 140.431C471.22 141.16 471.044 141.809 470.692 142.38C470.352 142.95 469.848 143.399 469.18 143.727C468.513 144.055 467.675 144.219 466.667 144.219H457.09L458.146 137.209L457.09 130.562H466.322C467.584 130.562 468.561 130.86 469.253 131.455C469.957 132.037 470.309 132.845 470.309 133.876C470.309 134.435 470.176 134.975 469.909 135.497C469.654 136.019 469.229 136.462 468.634 136.826C468.051 137.178 467.268 137.397 466.285 137.482ZM460.149 143.436L458.965 141.943H466.03C466.686 141.943 467.189 141.791 467.541 141.488C467.906 141.172 468.088 140.735 468.088 140.177C468.088 139.606 467.881 139.157 467.469 138.829C467.056 138.489 466.449 138.319 465.648 138.319H459.894V136.098H465.284C465.83 136.098 466.279 135.946 466.631 135.643C466.995 135.327 467.177 134.89 467.177 134.332C467.177 133.907 467.026 133.555 466.722 133.276C466.419 132.984 465.982 132.839 465.411 132.839H458.965L460.149 131.345L461.114 137.209L460.149 143.436Z" fill="white"/>
<path d="M442.874 141.342V138.829H452.342V141.342H442.874ZM449.665 130.562L456.056 144.219H452.761L447.171 131.819H448.19L442.6 144.219H439.305L445.696 130.562H449.665Z" fill="white"/>
<path d="M432.683 131.946H435.76V144.219H432.683V131.946ZM427.238 130.562H441.186V133.294H427.238V130.562Z" fill="white"/>
<path d="M426.898 138.665C426.764 139.818 426.358 140.838 425.678 141.724C425.01 142.598 424.124 143.278 423.019 143.763C421.927 144.249 420.677 144.492 419.268 144.492C417.715 144.492 416.349 144.194 415.172 143.599C414.006 143.005 413.096 142.179 412.44 141.123C411.785 140.055 411.457 138.811 411.457 137.39C411.457 135.97 411.785 134.732 412.44 133.676C413.096 132.608 414.006 131.776 415.172 131.181C416.349 130.586 417.715 130.289 419.268 130.289C420.677 130.289 421.927 130.532 423.019 131.017C424.124 131.503 425.01 132.183 425.678 133.057C426.358 133.931 426.764 134.95 426.898 136.116H423.784C423.663 135.472 423.402 134.92 423.001 134.459C422.601 133.985 422.085 133.621 421.453 133.366C420.822 133.111 420.088 132.984 419.25 132.984C418.291 132.984 417.46 133.166 416.756 133.53C416.064 133.882 415.53 134.392 415.153 135.06C414.777 135.715 414.589 136.492 414.589 137.39C414.589 138.289 414.777 139.072 415.153 139.739C415.53 140.395 416.064 140.905 416.756 141.269C417.46 141.621 418.291 141.797 419.25 141.797C420.088 141.797 420.822 141.675 421.453 141.433C422.085 141.178 422.601 140.82 423.001 140.358C423.402 139.885 423.663 139.32 423.784 138.665H426.898Z" fill="white"/>
<path d="M402.007 144.492C400.416 144.492 399.02 144.194 397.819 143.599C396.629 143.005 395.7 142.179 395.033 141.123C394.365 140.055 394.031 138.811 394.031 137.39C394.031 135.97 394.365 134.732 395.033 133.676C395.7 132.608 396.629 131.776 397.819 131.181C399.02 130.586 400.416 130.289 402.007 130.289C403.597 130.289 404.987 130.586 406.176 131.181C407.378 131.776 408.313 132.608 408.98 133.676C409.648 134.732 409.982 135.97 409.982 137.39C409.982 138.811 409.648 140.055 408.98 141.123C408.313 142.179 407.378 143.005 406.176 143.599C404.987 144.194 403.597 144.492 402.007 144.492ZM402.007 141.742C403.002 141.742 403.858 141.566 404.574 141.214C405.302 140.862 405.861 140.358 406.249 139.703C406.65 139.047 406.85 138.277 406.85 137.39C406.85 136.504 406.65 135.733 406.249 135.078C405.861 134.422 405.302 133.919 404.574 133.567C403.858 133.215 403.002 133.039 402.007 133.039C401.023 133.039 400.168 133.215 399.439 133.567C398.711 133.919 398.146 134.422 397.746 135.078C397.357 135.733 397.163 136.504 397.163 137.39C397.163 138.277 397.357 139.047 397.746 139.703C398.146 140.358 398.711 140.862 399.439 141.214C400.168 141.566 401.023 141.742 402.007 141.742Z" fill="white"/>
<path d="M375.082 147.005V141.488H377.631L378.942 141.524H388.775L389.521 141.488H393.199V147.005H390.304V144.219H377.977V147.005H375.082ZM378.014 130.562H390.814V143.236H387.737V131.874L389.121 133.257H379.671L380.963 132.256C381.036 132.863 381.085 133.464 381.109 134.059C381.133 134.653 381.145 135.212 381.145 135.734C381.145 137.215 381.03 138.471 380.799 139.503C380.569 140.523 380.223 141.299 379.762 141.834C379.3 142.356 378.73 142.617 378.05 142.617L376.775 141.542C377.285 140.96 377.662 140.14 377.904 139.084C378.159 138.016 378.287 136.687 378.287 135.096C378.287 134.392 378.262 133.658 378.214 132.893C378.165 132.128 378.099 131.352 378.014 130.562Z" fill="white"/>
</g>
<g opacity="0.8">
<path d="M207.997 6.20117V17.688M212.971 9.07287L203.023 14.8163M203.023 9.07287L212.971 14.8163" stroke="white" stroke-width="2.29736" stroke-linecap="round" stroke-linejoin="round"/>
<path d="M336.586 13.0713C336.468 14.0898 336.109 14.9904 335.509 15.773C334.919 16.5449 334.137 17.1453 333.161 17.5742C332.196 18.003 331.092 18.2174 329.848 18.2174C328.476 18.2174 327.27 17.9548 326.23 17.4294C325.201 16.9041 324.397 16.1751 323.818 15.2423C323.239 14.2989 322.949 13.2 322.949 11.9456C322.949 10.6913 323.239 9.59772 323.818 8.66499C324.397 7.72154 325.201 6.98715 326.23 6.46182C327.27 5.93649 328.476 5.67383 329.848 5.67383C331.092 5.67383 332.196 5.88825 333.161 6.31709C334.137 6.74593 334.919 7.34631 335.509 8.11822C336.109 8.89013 336.468 9.7907 336.586 10.8199H333.836C333.729 10.2517 333.499 9.7639 333.145 9.3565C332.791 8.93838 332.335 8.61675 331.778 8.39161C331.22 8.16646 330.572 8.05389 329.832 8.05389C328.985 8.05389 328.251 8.21471 327.629 8.53634C327.018 8.84725 326.546 9.29753 326.214 9.88719C325.881 10.4661 325.715 11.1523 325.715 11.9456C325.715 12.739 325.881 13.4305 326.214 14.0201C326.546 14.5991 327.018 15.0494 327.629 15.371C328.251 15.6819 328.985 15.8374 329.832 15.8374C330.572 15.8374 331.22 15.7301 331.778 15.5157C332.335 15.2906 332.791 14.9743 333.145 14.5669C333.499 14.1488 333.729 13.6503 333.836 13.0713H336.586Z" fill="white"/>
<path d="M308.672 5.91406H311.406V17.9752H308.672V5.91406ZM318.321 5.91406H321.055V17.9752H318.321V5.91406ZM310.167 10.6742H319.527V13.0703H310.167V10.6742Z" fill="white"/>
<path d="M295.73 15.4343V13.2151H304.092V15.4343H295.73ZM301.729 5.91406L307.373 17.9752H304.462L299.525 7.02369H300.426L295.489 17.9752H292.578L298.223 5.91406H301.729Z" fill="white"/>
<path d="M279.919 5.91406H291.273V17.9752H288.555V7.08801L289.777 8.32629H281.431L282.589 7.42573C282.675 8.20836 282.733 8.95883 282.766 9.67714C282.809 10.3954 282.83 11.0709 282.83 11.7034C282.83 13.2258 282.696 14.4641 282.428 15.4182C282.16 16.3724 281.742 17.0746 281.174 17.5249C280.605 17.9752 279.86 18.2003 278.938 18.2003C278.574 18.2003 278.209 18.1575 277.845 18.0717C277.48 17.9966 277.148 17.8841 276.848 17.734V15.4504C277.309 15.6327 277.738 15.7238 278.134 15.7238C278.885 15.7238 279.426 15.3807 279.758 14.6946C280.091 13.9977 280.257 12.8666 280.257 11.3014C280.257 10.5938 280.23 9.78971 280.177 8.88915C280.123 7.98858 280.037 6.99689 279.919 5.91406Z" fill="white"/>
<path d="M262.391 17.9752V5.91406H265.06V16.5922L264.24 16.4314L271.863 5.91406H275.417V17.9752H272.747V7.15234L273.567 7.31316L265.848 17.9752H262.391Z" fill="white"/>
<path d="M256.167 5.91406C257.121 5.91406 257.947 6.08024 258.644 6.41259C259.341 6.74494 259.871 7.21131 260.236 7.81168C260.611 8.41206 260.799 9.10893 260.799 9.90228C260.799 10.6956 260.611 11.3925 260.236 11.9929C259.871 12.5825 259.341 13.0489 258.644 13.392C257.947 13.7243 257.121 13.8905 256.167 13.8905H250.844V11.6391H256.022C256.655 11.6391 257.148 11.4836 257.502 11.1727C257.866 10.8618 258.049 10.4383 258.049 9.90228C258.049 9.35551 257.866 8.93203 257.502 8.63184C257.148 8.32093 256.655 8.16548 256.022 8.16548H251.085L252.324 6.86287V17.9752H249.59V5.91406H256.167Z" fill="white"/>
<path d="M238.562 16.0135V13.8425H242.631C243.156 13.8425 243.606 13.7514 243.981 13.5691C244.357 13.3869 244.641 13.1349 244.834 12.8133C245.038 12.481 245.139 12.0896 245.139 11.6394C245.139 11.1891 245.038 10.8031 244.834 10.4815C244.641 10.1491 244.357 9.8972 243.981 9.72566C243.606 9.5434 243.156 9.45228 242.631 9.45228H238.578V7.28127H242.775C243.837 7.28127 244.748 7.46353 245.509 7.82804C246.27 8.19256 246.86 8.7018 247.278 9.35579C247.696 9.99905 247.905 10.7602 247.905 11.6394C247.905 12.5078 247.696 13.2743 247.278 13.939C246.86 14.593 246.27 15.1022 245.509 15.4668C244.748 15.8313 243.837 16.0135 242.775 16.0135H238.562ZM233.802 16.0135C232.751 16.0135 231.845 15.8313 231.084 15.4668C230.323 15.1022 229.728 14.593 229.299 13.939C228.881 13.2743 228.672 12.5078 228.672 11.6394C228.672 10.7602 228.881 9.99905 229.299 9.35579C229.728 8.7018 230.323 8.19256 231.084 7.82804C231.845 7.46353 232.751 7.28127 233.802 7.28127H237.999V9.45228H233.931C233.416 9.45228 232.971 9.5434 232.596 9.72566C232.231 9.8972 231.947 10.1491 231.743 10.4815C231.54 10.8031 231.438 11.1891 231.438 11.6394C231.438 12.0896 231.54 12.481 231.743 12.8133C231.947 13.1349 232.231 13.3869 232.596 13.5691C232.971 13.7514 233.416 13.8425 233.931 13.8425H238.015V16.0135H233.802ZM236.922 18.3293V5.56055H239.656V18.3293H236.922Z" fill="white"/>
</g>
<defs>
<clipPath id="clip0_842_999">
<rect width="19.1113" height="19.1113" fill="white" transform="translate(495.875 279.787)"/>
</clipPath>
</defs>
</svg>
