<svg viewBox="0 0 24 24" fill="none" xmlns="http://www.w3.org/2000/svg">
    <path d="M6.94141 4.00002C6.94114 4.53046 6.73017 5.03906 6.35491 5.41394C5.97965 5.78883 5.47084 5.99929 4.94041 5.99902C4.40997 5.99876 3.90137 5.78779 3.52649 5.41253C3.1516 5.03727 2.94114 4.52846 2.94141 3.99802C2.94167 3.46759 3.15264 2.95899 3.5279 2.5841C3.90316 2.20922 4.41197 1.99876 4.94241 1.99902C5.47284 1.99929 5.98144 2.21026 6.35633 2.58552C6.73121 2.96078 6.94167 3.46959 6.94141 4.00002ZM7.00141 7.48002H3.00141V20H7.00141V7.48002ZM13.3214 7.48002H9.34141V20H13.2814V13.43C13.2814 9.77002 18.0514 9.43002 18.0514 13.43V20H22.0014V12.07C22.0014 5.90002 14.9414 6.13002 13.2814 9.16002L13.3214 7.48002Z" fill="currentColor"/>
</svg>
